<svg width="20" height="20" viewBox="0 0 20 20" fill="none" xmlns="http://www.w3.org/2000/svg">
<g id="ic_clock">
<path id="Vector (Stroke)" fill-rule="evenodd" clip-rule="evenodd" d="M10 3.75C6.54822 3.75 3.75 6.54822 3.75 10C3.75 13.4518 6.54822 16.25 10 16.25C13.4518 16.25 16.25 13.4518 16.25 10C16.25 6.54822 13.4518 3.75 10 3.75ZM2.25 10C2.25 5.71979 5.71979 2.25 10 2.25C14.2802 2.25 17.75 5.71979 17.75 10C17.75 14.2802 14.2802 17.75 10 17.75C5.71979 17.75 2.25 14.2802 2.25 10ZM10 5.36111C10.4142 5.36111 10.75 5.6969 10.75 6.11111V9.59861L12.7494 10.9315C13.094 11.1613 13.1871 11.6269 12.9574 11.9716C12.7276 12.3162 12.262 12.4094 11.9173 12.1796L9.58397 10.624C9.37533 10.4849 9.25 10.2508 9.25 10V6.11111C9.25 5.6969 9.58579 5.36111 10 5.36111Z" fill="#528116"/>
</g>
</svg>
