<svg width="20" height="20" viewBox="0 0 20 20" fill="none" xmlns="http://www.w3.org/2000/svg">
<g id="ic_benefits">
<g id="Vector (Stroke)">
<path fill-rule="evenodd" clip-rule="evenodd" d="M9.10517 2.53007C9.64046 2.15664 10.3595 2.15664 10.8948 2.53007L12.1923 3.43517C12.1996 3.44032 12.2125 3.4455 12.229 3.44547L13.8349 3.44255C14.4827 3.44137 15.0862 3.8416 15.3004 4.47626L15.7933 5.93625C15.7939 5.93709 15.7955 5.93884 15.7987 5.94107L17.0998 6.84144C17.644 7.21809 17.8896 7.90706 17.6705 8.548L17.1739 10L17.6705 11.452C17.8896 12.0929 17.644 12.7819 17.0998 13.1586L15.7987 14.0589C15.7955 14.0612 15.7939 14.0629 15.7933 14.0637L15.3004 15.5237C15.0862 16.1584 14.4827 16.5586 13.8349 16.5575L12.229 16.5545C12.2125 16.5545 12.1996 16.5597 12.1923 16.5648L10.8948 17.4699C10.3595 17.8434 9.64046 17.8434 9.10517 17.4699L7.80774 16.5648C7.80037 16.5597 7.78747 16.5545 7.771 16.5545L6.16507 16.5575C5.51732 16.5586 4.91378 16.1584 4.69955 15.5237L4.20673 14.0638C4.20607 14.0629 4.20446 14.0612 4.20125 14.0589L2.90022 13.1586C2.35597 12.7819 2.11037 12.0929 2.32954 11.452L2.82605 10L2.32954 8.548C2.11037 7.90706 2.35597 7.21809 2.90022 6.84144L4.20125 5.94107C4.20446 5.93884 4.20607 5.93709 4.20673 5.93625L4.69955 4.47626C4.91378 3.8416 5.51732 3.44137 6.16507 3.44255L7.771 3.44547C7.78747 3.4455 7.80037 3.44032 7.80774 3.43517L9.10517 2.53007ZM10 3.75C9.98353 3.75 9.97108 3.75493 9.96339 3.7603L8.66596 4.6654C8.40202 4.84953 8.08762 4.94605 7.76827 4.94547L6.16233 4.94254C6.14549 4.94251 6.13308 4.94764 6.12565 4.9528C6.12259 4.95493 6.121 4.95656 6.12028 4.95742L5.62741 6.41756C5.52282 6.72742 5.31989 6.99108 5.05485 7.1745L3.75382 8.07488C3.7536 8.07503 3.75403 8.07473 3.75382 8.07488L4.24802 9.52242C4.354 9.83236 4.354 10.1676 4.24802 10.4776L3.75318 11.9247C3.75296 11.9245 3.75339 11.9248 3.75318 11.9247L5.05485 12.8255C5.31989 13.0089 5.52282 13.2726 5.62741 13.5824L6.12028 15.0426C6.121 15.0434 6.12259 15.0451 6.12565 15.0472C6.13308 15.0524 6.14549 15.0575 6.16233 15.0575L7.76827 15.0545C8.08762 15.054 8.40202 15.1505 8.66596 15.3346L9.96339 16.2397C9.97108 16.2451 9.98353 16.25 10 16.25C10.0165 16.25 10.0289 16.2451 10.0366 16.2397L11.334 15.3346C11.598 15.1505 11.9124 15.054 12.2317 15.0545L13.8377 15.0575C13.8545 15.0575 13.8669 15.0524 13.8743 15.0472C13.8774 15.0451 13.879 15.0434 13.8797 15.0426L14.3726 13.5824C14.4772 13.2726 14.6801 13.0089 14.9451 12.8255L16.2462 11.9251C16.246 11.9253 16.2464 11.925 16.2462 11.9251L15.752 10.4776C15.646 10.1676 15.646 9.83236 15.752 9.52242L16.2468 8.07533C16.2466 8.07518 16.247 8.07548 16.2468 8.07533L14.9451 7.1745C14.6801 6.99108 14.4772 6.72742 14.3726 6.41756L13.8797 4.95743C13.879 4.95656 13.8774 4.95493 13.8743 4.9528C13.8669 4.94764 13.8545 4.94251 13.8377 4.94254L12.2317 4.94547C11.9124 4.94605 11.598 4.84953 11.334 4.6654L10.0366 3.7603C10.0289 3.75493 10.0165 3.75 10 3.75Z" fill="#528116"/>
<path fill-rule="evenodd" clip-rule="evenodd" d="M12.9481 7.10597C13.241 7.39887 13.241 7.87374 12.9481 8.16663L8.25467 12.86C7.96178 13.1529 7.4869 13.1529 7.19401 12.86C6.90112 12.5671 6.90112 12.0923 7.19401 11.7994L11.8874 7.10597C12.1803 6.81308 12.6552 6.81308 12.9481 7.10597Z" fill="#528116"/>
<path d="M9 8C9 8.55228 8.55228 9 8 9C7.44771 9 7 8.55228 7 8C7 7.44772 7.44771 7 8 7C8.55228 7 9 7.44772 9 8Z" fill="#528116"/>
<path d="M13 12C13 12.5523 12.5523 13 12 13C11.4477 13 11 12.5523 11 12C11 11.4477 11.4477 11 12 11C12.5523 11 13 11.4477 13 12Z" fill="#528116"/>
</g>
</g>
</svg>
