<svg width="20" height="20" viewBox="0 0 20 20" fill="none" xmlns="http://www.w3.org/2000/svg">
<g id="ic_pin_map">
<g id="Vector (Stroke)">
<path fill-rule="evenodd" clip-rule="evenodd" d="M9.94444 3.75C7.35177 3.75 5.25 5.85177 5.25 8.44444C5.25 9.6606 5.88883 10.7312 6.65116 11.8027L9.92208 16.2387C9.92732 16.2458 9.93562 16.25 9.94444 16.25C9.95326 16.25 9.96156 16.2458 9.9668 16.2387L13.2377 11.8027C14.0001 10.7312 14.6389 9.66062 14.6389 8.44444C14.6389 5.85177 12.5371 3.75 9.94444 3.75ZM3.75 8.44444C3.75 5.02335 6.52335 2.25 9.94444 2.25C13.3655 2.25 16.1389 5.02335 16.1389 8.44444C16.1389 10.1812 15.2242 11.5987 14.4561 12.6777L14.4488 12.6879L11.1741 17.1289C10.8861 17.5195 10.4297 17.75 9.94444 17.75C9.45918 17.75 9.00278 17.5195 8.71479 17.1289L5.4327 12.6777C4.66462 11.5988 3.75 10.1812 3.75 8.44444Z" fill="#528116"/>
<path fill-rule="evenodd" clip-rule="evenodd" d="M9.94445 10.0556C10.8342 10.0556 11.5556 9.33425 11.5556 8.44445C11.5556 7.55466 10.8342 6.83334 9.94445 6.83334C9.05466 6.83334 8.33334 7.55466 8.33334 8.44445C8.33334 9.33425 9.05466 10.0556 9.94445 10.0556ZM9.94445 11.5556C11.6627 11.5556 13.0556 10.1627 13.0556 8.44445C13.0556 6.72624 11.6627 5.33334 9.94445 5.33334C8.22623 5.33334 6.83334 6.72624 6.83334 8.44445C6.83334 10.1627 8.22623 11.5556 9.94445 11.5556Z" fill="#528116"/>
</g>
</g>
</svg>
