<svg width="20" height="20" viewBox="0 0 20 20" fill="none" xmlns="http://www.w3.org/2000/svg">
<g id="ic_calendar ">
<path id="Vector (Stroke)" fill-rule="evenodd" clip-rule="evenodd" d="M6.5 1.75C6.91421 1.75 7.25 2.08579 7.25 2.5V3.25H12.75V2.5C12.75 2.08579 13.0858 1.75 13.5 1.75C13.9142 1.75 14.25 2.08579 14.25 2.5V3.25H15C16.5188 3.25 17.75 4.48122 17.75 6V14C17.75 15.5188 16.5188 16.75 15 16.75H5C3.48122 16.75 2.25 15.5188 2.25 14V6C2.25 4.48122 3.48122 3.25 5 3.25H5.75V2.5C5.75 2.08579 6.08579 1.75 6.5 1.75ZM5.75 4.75H5C4.30964 4.75 3.75 5.30964 3.75 6V8.25H16.25V6C16.25 5.30964 15.6904 4.75 15 4.75H14.25V5.5C14.25 5.91421 13.9142 6.25 13.5 6.25C13.0858 6.25 12.75 5.91421 12.75 5.5V4.75H7.25V5.5C7.25 5.91421 6.91421 6.25 6.5 6.25C6.08579 6.25 5.75 5.91421 5.75 5.5V4.75ZM16.25 9.75H3.75V14C3.75 14.6904 4.30964 15.25 5 15.25H15C15.6904 15.25 16.25 14.6904 16.25 14V9.75Z" fill="#528116"/>
</g>
</svg>
