<svg width="46" height="40" viewBox="0 0 46 40" fill="none" xmlns="http://www.w3.org/2000/svg">
<g id="Union">
<mask id="path-1-outside-1_655_4867" maskUnits="userSpaceOnUse" x="-0.907005" y="-0.907005" width="47.3645" height="41.318" fill="black">
<rect fill="white" x="-0.907005" y="-0.907005" width="47.3645" height="41.318"/>
<path d="M34.2552 0.100751C35.7296 0.100751 37.0666 0.968779 37.6662 2.31703L40.6 8.91862H44.9843C45.4224 8.91886 45.7775 9.27467 45.7775 9.71282C45.7773 10.1508 45.4222 10.5058 44.9843 10.506H41.3056L42.5771 13.3659C44.3864 13.6244 45.7774 15.1797 45.7775 17.0604V28.8179C45.7775 30.6072 44.5183 32.1013 42.8379 32.4651V37.6357C42.8378 38.8858 41.8254 39.899 40.5754 39.8992H36.1664C34.9162 39.8992 33.9029 38.886 33.9029 37.6357V32.5507H11.9753V37.6357C11.9753 38.8859 10.9629 39.8991 9.71282 39.8992H5.30388C4.05363 39.8992 3.04041 38.886 3.04037 37.6357V32.4651C1.36005 32.1012 0.100784 30.6071 0.100751 28.8179V17.0604C0.100878 15.1801 1.49146 13.6249 3.30018 13.3659L4.57169 10.506H0.89495C0.456783 10.506 0.100964 10.1509 0.100751 9.71282C0.100751 9.27452 0.456652 8.91862 0.89495 8.91862H5.27731L8.21201 2.31703C8.81164 0.968757 10.1487 0.10077 11.623 0.100751H34.2552ZM4.62778 37.6357C4.62782 38.0094 4.93023 38.3118 5.30388 38.3118H9.71282C10.0864 38.3117 10.3889 38.0093 10.3889 37.6357V32.5507H4.62778V37.6357ZM35.4903 37.6357C35.4904 38.0094 35.7928 38.3118 36.1664 38.3118H40.5754C40.9488 38.3116 41.2504 38.0092 41.2505 37.6357V32.5507H35.4903V37.6357ZM3.83358 14.915C2.64876 14.9151 1.6883 15.8756 1.68816 17.0604V28.8179C1.6882 30.0028 2.64869 30.9632 3.83358 30.9633H42.0447C43.2296 30.9632 44.19 30.0028 44.1901 28.8179V17.0604C44.1899 15.8755 43.2296 14.915 42.0447 14.915H3.83358ZM9.71183 19.2068C11.7735 19.2068 13.4447 20.878 13.4447 22.9396C13.4445 25.0011 11.7734 26.6724 9.71183 26.6724C7.65041 26.6723 5.97917 25.001 5.979 22.9396C5.979 20.8781 7.65031 19.2069 9.71183 19.2068ZM36.1654 19.2068C38.2271 19.2068 39.8992 20.878 39.8992 22.9396C39.8991 25.0011 38.227 26.6724 36.1654 26.6724C34.1041 26.6722 32.4328 25.001 32.4326 22.9396C32.4326 20.8781 34.104 19.207 36.1654 19.2068ZM9.71183 20.7932C8.52691 20.7933 7.56641 21.7547 7.56641 22.9396C7.56658 24.1244 8.52701 25.0849 9.71183 25.085C10.8968 25.085 11.8571 24.1245 11.8573 22.9396C11.8573 21.7546 10.8969 20.7932 9.71183 20.7932ZM36.1654 20.7932C34.9806 20.7934 34.02 21.7547 34.02 22.9396C34.0202 24.1244 34.9807 25.0848 36.1654 25.085C37.3504 25.085 38.3117 24.1245 38.3118 22.9396C38.3118 21.7546 37.3505 20.7932 36.1654 20.7932ZM11.623 1.68816C10.7755 1.68818 10.0073 2.18751 9.66263 2.96262L5.0549 13.3276H40.8234L36.2166 2.96262C35.8719 2.18749 35.1027 1.68816 34.2552 1.68816H11.623Z"/>
</mask>
<path d="M34.2552 0.100751C35.7296 0.100751 37.0666 0.968779 37.6662 2.31703L40.6 8.91862H44.9843C45.4224 8.91886 45.7775 9.27467 45.7775 9.71282C45.7773 10.1508 45.4222 10.5058 44.9843 10.506H41.3056L42.5771 13.3659C44.3864 13.6244 45.7774 15.1797 45.7775 17.0604V28.8179C45.7775 30.6072 44.5183 32.1013 42.8379 32.4651V37.6357C42.8378 38.8858 41.8254 39.899 40.5754 39.8992H36.1664C34.9162 39.8992 33.9029 38.886 33.9029 37.6357V32.5507H11.9753V37.6357C11.9753 38.8859 10.9629 39.8991 9.71282 39.8992H5.30388C4.05363 39.8992 3.04041 38.886 3.04037 37.6357V32.4651C1.36005 32.1012 0.100784 30.6071 0.100751 28.8179V17.0604C0.100878 15.1801 1.49146 13.6249 3.30018 13.3659L4.57169 10.506H0.89495C0.456783 10.506 0.100964 10.1509 0.100751 9.71282C0.100751 9.27452 0.456652 8.91862 0.89495 8.91862H5.27731L8.21201 2.31703C8.81164 0.968757 10.1487 0.10077 11.623 0.100751H34.2552ZM4.62778 37.6357C4.62782 38.0094 4.93023 38.3118 5.30388 38.3118H9.71282C10.0864 38.3117 10.3889 38.0093 10.3889 37.6357V32.5507H4.62778V37.6357ZM35.4903 37.6357C35.4904 38.0094 35.7928 38.3118 36.1664 38.3118H40.5754C40.9488 38.3116 41.2504 38.0092 41.2505 37.6357V32.5507H35.4903V37.6357ZM3.83358 14.915C2.64876 14.9151 1.6883 15.8756 1.68816 17.0604V28.8179C1.6882 30.0028 2.64869 30.9632 3.83358 30.9633H42.0447C43.2296 30.9632 44.19 30.0028 44.1901 28.8179V17.0604C44.1899 15.8755 43.2296 14.915 42.0447 14.915H3.83358ZM9.71183 19.2068C11.7735 19.2068 13.4447 20.878 13.4447 22.9396C13.4445 25.0011 11.7734 26.6724 9.71183 26.6724C7.65041 26.6723 5.97917 25.001 5.979 22.9396C5.979 20.8781 7.65031 19.2069 9.71183 19.2068ZM36.1654 19.2068C38.2271 19.2068 39.8992 20.878 39.8992 22.9396C39.8991 25.0011 38.227 26.6724 36.1654 26.6724C34.1041 26.6722 32.4328 25.001 32.4326 22.9396C32.4326 20.8781 34.104 19.207 36.1654 19.2068ZM9.71183 20.7932C8.52691 20.7933 7.56641 21.7547 7.56641 22.9396C7.56658 24.1244 8.52701 25.0849 9.71183 25.085C10.8968 25.085 11.8571 24.1245 11.8573 22.9396C11.8573 21.7546 10.8969 20.7932 9.71183 20.7932ZM36.1654 20.7932C34.9806 20.7934 34.02 21.7547 34.02 22.9396C34.0202 24.1244 34.9807 25.0848 36.1654 25.085C37.3504 25.085 38.3117 24.1245 38.3118 22.9396C38.3118 21.7546 37.3505 20.7932 36.1654 20.7932ZM11.623 1.68816C10.7755 1.68818 10.0073 2.18751 9.66263 2.96262L5.0549 13.3276H40.8234L36.2166 2.96262C35.8719 2.18749 35.1027 1.68816 34.2552 1.68816H11.623Z" fill="#528116"/>
<path d="M37.6662 2.31703L37.7583 2.2761L37.7583 2.27607L37.6662 2.31703ZM40.6 8.91862L40.5079 8.95954C40.524 8.99594 40.5601 9.01939 40.6 9.01939V8.91862ZM44.9843 8.91862L44.9843 8.81784H44.9843V8.91862ZM45.7775 9.71282L45.8783 9.71287V9.71282H45.7775ZM44.9843 10.506V10.6068H44.9843L44.9843 10.506ZM41.3056 10.506V10.4053C41.2715 10.4053 41.2397 10.4225 41.2211 10.4511C41.2025 10.4797 41.1996 10.5158 41.2135 10.547L41.3056 10.506ZM42.5771 13.3659L42.485 13.4069C42.4991 13.4386 42.5285 13.4608 42.5628 13.4657L42.5771 13.3659ZM45.7775 17.0604H45.8783V17.0604L45.7775 17.0604ZM45.7775 28.8179L45.8783 28.8179V28.8179H45.7775ZM42.8379 32.4651L42.8166 32.3666C42.7702 32.3766 42.7371 32.4176 42.7371 32.4651H42.8379ZM42.8379 37.6357L42.9387 37.6357V37.6357H42.8379ZM40.5754 39.8992V40H40.5754L40.5754 39.8992ZM33.9029 37.6357H33.8021V37.6357L33.9029 37.6357ZM33.9029 32.5507H34.0037C34.0037 32.495 33.9586 32.4499 33.9029 32.4499V32.5507ZM11.9753 32.5507V32.4499C11.9197 32.4499 11.8746 32.495 11.8746 32.5507H11.9753ZM11.9753 37.6357L12.0761 37.6357V37.6357H11.9753ZM9.71282 39.8992V40H9.71283L9.71282 39.8992ZM3.04037 37.6357H2.93959V37.6357L3.04037 37.6357ZM3.04037 32.4651H3.14114C3.14114 32.4176 3.10806 32.3766 3.06169 32.3666L3.04037 32.4651ZM0.100751 28.8179H-2.46049e-05V28.8179L0.100751 28.8179ZM0.100751 17.0604L-2.46049e-05 17.0604V17.0604H0.100751ZM3.30018 13.3659L3.31446 13.4657C3.34879 13.4608 3.37818 13.4386 3.39227 13.4069L3.30018 13.3659ZM4.57169 10.506L4.66377 10.547C4.67763 10.5158 4.67478 10.4797 4.65619 10.4511C4.6376 10.4225 4.6058 10.4053 4.57169 10.4053V10.506ZM0.100751 9.71282H-2.46199e-05L-2.45899e-05 9.71287L0.100751 9.71282ZM5.27731 8.91862V9.01939C5.31713 9.01939 5.35322 8.99594 5.3694 8.95955L5.27731 8.91862ZM8.21201 2.31703L8.11993 2.27608L8.11992 2.27609L8.21201 2.31703ZM11.623 0.100751V-2.46049e-05H11.623L11.623 0.100751ZM4.62778 37.6357H4.52701V37.6357L4.62778 37.6357ZM9.71282 38.3118V38.4126H9.71285L9.71282 38.3118ZM10.3889 37.6357L10.4897 37.6357V37.6357H10.3889ZM10.3889 32.5507H10.4897C10.4897 32.495 10.4446 32.4499 10.3889 32.4499V32.5507ZM4.62778 32.5507V32.4499C4.57212 32.4499 4.52701 32.495 4.52701 32.5507H4.62778ZM35.4903 37.6357H35.3895V37.6357L35.4903 37.6357ZM40.5754 38.3118V38.4126H40.5754L40.5754 38.3118ZM41.2505 37.6357L41.3512 37.6357V37.6357H41.2505ZM41.2505 32.5507H41.3512C41.3512 32.495 41.3061 32.4499 41.2505 32.4499V32.5507ZM35.4903 32.5507V32.4499C35.4347 32.4499 35.3895 32.495 35.3895 32.5507H35.4903ZM3.83358 14.915V14.8142H3.83357L3.83358 14.915ZM1.68816 17.0604L1.58739 17.0604V17.0604H1.68816ZM1.68816 28.8179H1.58739V28.8179L1.68816 28.8179ZM3.83358 30.9633L3.83357 31.0641H3.83358V30.9633ZM42.0447 30.9633V31.0641H42.0447L42.0447 30.9633ZM44.1901 28.8179L44.2909 28.8179V28.8179H44.1901ZM44.1901 17.0604H44.2909V17.0604L44.1901 17.0604ZM42.0447 14.915L42.0447 14.8142H42.0447V14.915ZM9.71183 19.2068V19.106H9.71183L9.71183 19.2068ZM13.4447 22.9396L13.5454 22.9396V22.9396H13.4447ZM9.71183 26.6724L9.71183 26.7732H9.71183V26.6724ZM5.979 22.9396H5.87823V22.9396L5.979 22.9396ZM36.1654 19.2068V19.106H36.1654L36.1654 19.2068ZM39.8992 22.9396L40 22.9396V22.9396H39.8992ZM36.1654 26.6724L36.1654 26.7732H36.1654V26.6724ZM32.4326 22.9396H32.3318V22.9396L32.4326 22.9396ZM9.71183 20.7932V20.6924H9.71182L9.71183 20.7932ZM7.56641 22.9396H7.46564V22.9396L7.56641 22.9396ZM9.71183 25.085L9.71182 25.1858H9.71183V25.085ZM11.8573 22.9396L11.958 22.9396V22.9396H11.8573ZM36.1654 20.7932V20.6924H36.1654L36.1654 20.7932ZM34.02 22.9396H33.9192V22.9396L34.02 22.9396ZM36.1654 25.085L36.1654 25.1858H36.1654V25.085ZM38.3118 22.9396L38.4126 22.9396V22.9396H38.3118ZM11.623 1.68816V1.58739H11.623L11.623 1.68816ZM9.66263 2.96262L9.57054 2.92167L9.57054 2.92168L9.66263 2.96262ZM5.0549 13.3276L4.96281 13.2866C4.94895 13.3178 4.95181 13.3539 4.97039 13.3825C4.98898 13.4111 5.02078 13.4283 5.0549 13.4283V13.3276ZM40.8234 13.3276V13.4283C40.8575 13.4283 40.8893 13.4111 40.9079 13.3825C40.9264 13.3539 40.9293 13.3178 40.9154 13.2866L40.8234 13.3276ZM36.2166 2.96262L36.3087 2.92169L36.3087 2.92167L36.2166 2.96262ZM34.2552 0.100751V0.201527C35.6898 0.201527 36.9907 1.04612 37.5742 2.35798L37.6662 2.31703L37.7583 2.27607C37.1425 0.891436 35.7694 -2.46049e-05 34.2552 -2.46049e-05V0.100751ZM37.6662 2.31703L37.5742 2.35795L40.5079 8.95954L40.6 8.91862L40.692 8.87769L37.7583 2.2761L37.6662 2.31703ZM40.6 8.91862V9.01939H44.9843V8.91862V8.81784H40.6V8.91862ZM44.9843 8.91862L44.9842 9.01939C45.3666 9.01961 45.6767 9.33022 45.6767 9.71282H45.7775H45.8783C45.8783 9.21912 45.4782 8.81811 44.9843 8.81784L44.9843 8.91862ZM45.7775 9.71282L45.6767 9.71277C45.6765 10.0951 45.3666 10.405 44.9842 10.4053L44.9843 10.506L44.9843 10.6068C45.4779 10.6065 45.878 10.2065 45.8783 9.71287L45.7775 9.71282ZM44.9843 10.506V10.4053H41.3056V10.506V10.6068H44.9843V10.506ZM41.3056 10.506L41.2135 10.547L42.485 13.4069L42.5771 13.3659L42.6692 13.325L41.3977 10.4651L41.3056 10.506ZM42.5771 13.3659L42.5628 13.4657C44.3232 13.7172 45.6766 15.2306 45.6767 17.0604L45.7775 17.0604L45.8783 17.0604C45.8781 15.1288 44.4495 13.5316 42.5913 13.2662L42.5771 13.3659ZM45.7775 17.0604H45.6767V28.8179H45.7775H45.8783V17.0604H45.7775ZM45.7775 28.8179L45.6767 28.8179C45.6767 30.5587 44.4516 32.0126 42.8166 32.3666L42.8379 32.4651L42.8592 32.5636C44.585 32.19 45.8782 30.6556 45.8783 28.8179L45.7775 28.8179ZM42.8379 32.4651H42.7371V37.6357H42.8379H42.9387V32.4651H42.8379ZM42.8379 37.6357L42.7371 37.6357C42.7371 38.8302 41.7697 39.7982 40.5753 39.7985L40.5754 39.8992L40.5754 40C41.8811 39.9998 42.9386 38.9414 42.9387 37.6357L42.8379 37.6357ZM40.5754 39.8992V39.7985H36.1664V39.8992V40H40.5754V39.8992ZM36.1664 39.8992V39.7985C34.9718 39.7985 34.0037 38.8303 34.0037 37.6357L33.9029 37.6357L33.8021 37.6357C33.8022 38.9416 34.8605 40 36.1664 40V39.8992ZM33.9029 37.6357H34.0037V32.5507H33.9029H33.8021V37.6357H33.9029ZM33.9029 32.5507V32.4499H11.9753V32.5507V32.6515H33.9029V32.5507ZM11.9753 32.5507H11.8746V37.6357H11.9753H12.0761V32.5507H11.9753ZM11.9753 37.6357L11.8746 37.6357C11.8745 38.8303 10.9072 39.7983 9.71281 39.7985L9.71282 39.8992L9.71283 40C11.0187 39.9999 12.0761 38.9415 12.0761 37.6357L11.9753 37.6357ZM9.71282 39.8992V39.7985H5.30388V39.8992V40H9.71282V39.8992ZM5.30388 39.8992V39.7985C4.10929 39.7985 3.14118 38.8303 3.14114 37.6357L3.04037 37.6357L2.93959 37.6357C2.93963 38.9416 3.99797 40 5.30388 40V39.8992ZM3.04037 37.6357H3.14114V32.4651H3.04037H2.93959V37.6357H3.04037ZM3.04037 32.4651L3.06169 32.3666C1.42671 32.0126 0.201558 30.5586 0.201527 28.8179L0.100751 28.8179L-2.46049e-05 28.8179C8.95748e-06 30.6556 1.29338 32.1899 3.01904 32.5636L3.04037 32.4651ZM0.100751 28.8179H0.201527V17.0604H0.100751H-2.46049e-05V28.8179H0.100751ZM0.100751 17.0604L0.201527 17.0604C0.20165 15.231 1.55464 13.7176 3.31446 13.4657L3.30018 13.3659L3.2859 13.2662C1.42827 13.5321 0.000105906 15.1292 -2.46049e-05 17.0604L0.100751 17.0604ZM3.30018 13.3659L3.39227 13.4069L4.66377 10.547L4.57169 10.506L4.4796 10.4651L3.2081 13.325L3.30018 13.3659ZM4.57169 10.506V10.4053H0.89495V10.506V10.6068H4.57169V10.506ZM0.89495 10.506V10.4053C0.512326 10.4053 0.201713 10.0952 0.201527 9.71277L0.100751 9.71282L-2.45899e-05 9.71287C0.000215558 10.2067 0.40124 10.6068 0.89495 10.6068V10.506ZM0.100751 9.71282H0.201527C0.201527 9.33018 0.512309 9.01939 0.89495 9.01939V8.91862V8.81784C0.400995 8.81784 -2.46049e-05 9.21886 -2.46049e-05 9.71282H0.100751ZM0.89495 8.91862V9.01939H5.27731V8.91862V8.81784H0.89495V8.91862ZM5.27731 8.91862L5.3694 8.95955L8.30409 2.35796L8.21201 2.31703L8.11992 2.27609L5.18522 8.87768L5.27731 8.91862ZM8.21201 2.31703L8.30409 2.35798C8.88753 1.0461 10.1885 0.201545 11.623 0.201527L11.623 0.100751L11.623 -2.46049e-05C10.1089 -4.85041e-06 8.73574 0.891413 8.11993 2.27608L8.21201 2.31703ZM11.623 0.100751V0.201527H34.2552V0.100751V-2.46049e-05H11.623V0.100751ZM4.62778 37.6357L4.52701 37.6357C4.52705 38.065 4.87456 38.4126 5.30388 38.4126V38.3118V38.2111C4.98589 38.2111 4.72859 37.9537 4.72856 37.6357L4.62778 37.6357ZM5.30388 38.3118V38.4126H9.71282V38.3118V38.2111H5.30388V38.3118ZM9.71282 38.3118L9.71285 38.4126C10.142 38.4124 10.4896 38.065 10.4897 37.6357L10.3889 37.6357L10.2881 37.6357C10.2881 37.9536 10.0307 38.2109 9.71278 38.2111L9.71282 38.3118ZM10.3889 37.6357H10.4897V32.5507H10.3889H10.2881V37.6357H10.3889ZM10.3889 32.5507V32.4499H4.62778V32.5507V32.6515H10.3889V32.5507ZM4.62778 32.5507H4.52701V37.6357H4.62778H4.72856V32.5507H4.62778ZM35.4903 37.6357L35.3895 37.6357C35.3896 38.065 35.7371 38.4126 36.1664 38.4126V38.3118V38.2111C35.8484 38.2111 35.5911 37.9537 35.5911 37.6357L35.4903 37.6357ZM36.1664 38.3118V38.4126H40.5754V38.3118V38.2111H36.1664V38.3118ZM40.5754 38.3118L40.5754 38.4126C41.0046 38.4123 41.3512 38.0647 41.3512 37.6357L41.2505 37.6357L41.1497 37.6357C41.1497 37.9537 40.893 38.2108 40.5753 38.2111L40.5754 38.3118ZM41.2505 37.6357H41.3512V32.5507H41.2505H41.1497V37.6357H41.2505ZM41.2505 32.5507V32.4499H35.4903V32.5507V32.6515H41.2505V32.5507ZM35.4903 32.5507H35.3895V37.6357H35.4903H35.5911V32.5507H35.4903ZM3.83358 14.915L3.83357 14.8142C2.5931 14.8143 1.58753 15.8199 1.58739 17.0604L1.68816 17.0604L1.78894 17.0604C1.78907 15.9312 2.70442 15.0159 3.83359 15.0157L3.83358 14.915ZM1.68816 17.0604H1.58739V28.8179H1.68816H1.78894V17.0604H1.68816ZM1.68816 28.8179L1.58739 28.8179C1.58743 30.0584 2.59304 31.0639 3.83357 31.0641L3.83358 30.9633L3.83359 30.8625C2.70434 30.8624 1.78898 29.9471 1.78894 28.8179L1.68816 28.8179ZM3.83358 30.9633V31.0641H42.0447V30.9633V30.8625H3.83358V30.9633ZM42.0447 30.9633L42.0447 31.0641C43.2853 31.064 44.2908 30.0585 44.2909 28.8179L44.1901 28.8179L44.0893 28.8179C44.0893 29.9472 43.174 30.8625 42.0447 30.8625L42.0447 30.9633ZM44.1901 28.8179H44.2909V17.0604H44.1901H44.0893V28.8179H44.1901ZM44.1901 17.0604L44.2909 17.0604C44.2907 15.8198 43.2852 14.8142 42.0447 14.8142L42.0447 14.915L42.0447 15.0157C43.1739 15.0158 44.0892 15.9312 44.0893 17.0604L44.1901 17.0604ZM42.0447 14.915V14.8142H3.83358V14.915V15.0157H42.0447V14.915ZM9.71183 19.2068V19.3076C11.7178 19.3076 13.3439 20.9337 13.3439 22.9396H13.4447H13.5454C13.5454 20.8223 11.8291 19.106 9.71183 19.106V19.2068ZM13.4447 22.9396L13.3439 22.9396C13.3437 24.9454 11.7177 26.5717 9.71183 26.5717V26.6724V26.7732C11.829 26.7732 13.5453 25.0567 13.5454 22.9396L13.4447 22.9396ZM9.71183 26.6724L9.71184 26.5717C7.70607 26.5716 6.07994 24.9454 6.07978 22.9396L5.979 22.9396L5.87823 22.9396C5.8784 25.0567 7.59475 26.7731 9.71183 26.7732L9.71183 26.6724ZM5.979 22.9396H6.07978C6.07978 20.9337 7.70596 19.3077 9.71184 19.3076L9.71183 19.2068L9.71183 19.106C7.59466 19.1061 5.87823 20.8224 5.87823 22.9396H5.979ZM36.1654 19.2068V19.3076C38.1714 19.3076 39.7985 20.9337 39.7985 22.9396H39.8992H40C40 20.8223 38.2827 19.106 36.1654 19.106V19.2068ZM39.8992 22.9396L39.7985 22.9396C39.7983 24.9454 38.1713 26.5717 36.1654 26.5717V26.6724V26.7732C38.2826 26.7732 39.9999 25.0568 40 22.9396L39.8992 22.9396ZM36.1654 26.6724L36.1654 26.5717C34.1598 26.5714 32.5335 24.9453 32.5334 22.9396L32.4326 22.9396L32.3318 22.9396C32.332 25.0566 34.0485 26.773 36.1654 26.7732L36.1654 26.6724ZM32.4326 22.9396H32.5334C32.5334 20.9338 34.1597 19.3078 36.1654 19.3076L36.1654 19.2068L36.1654 19.106C34.0484 19.1063 32.3318 20.8225 32.3318 22.9396H32.4326ZM9.71183 20.7932L9.71182 20.6924C8.4712 20.6926 7.46564 21.6991 7.46564 22.9396H7.56641H7.66719C7.66719 21.8103 8.58262 20.8941 9.71184 20.894L9.71183 20.7932ZM7.56641 22.9396L7.46564 22.9396C7.46581 24.1801 8.47135 25.1857 9.71182 25.1858L9.71183 25.085L9.71184 24.9843C8.58267 24.9841 7.66735 24.0688 7.66719 22.9396L7.56641 22.9396ZM9.71183 25.085V25.1858C10.9524 25.1858 11.9579 24.1801 11.958 22.9396L11.8573 22.9396L11.7565 22.9396C11.7563 24.0689 10.8411 24.9843 9.71183 24.9843V25.085ZM11.8573 22.9396H11.958C11.958 21.699 10.9526 20.6924 9.71183 20.6924V20.7932V20.894C10.8411 20.894 11.7565 21.8102 11.7565 22.9396H11.8573ZM36.1654 20.7932L36.1654 20.6924C34.9249 20.6927 33.9192 21.6991 33.9192 22.9396H34.02H34.1208C34.1208 21.8104 35.0363 20.8942 36.1655 20.894L36.1654 20.7932ZM34.02 22.9396L33.9192 22.9396C33.9194 24.18 34.9251 25.1856 36.1654 25.1858L36.1654 25.085L36.1655 24.9843C35.0364 24.984 34.121 24.0687 34.1208 22.9396L34.02 22.9396ZM36.1654 25.085V25.1858C37.406 25.1858 38.4124 24.1802 38.4126 22.9396L38.3118 22.9396L38.2111 22.9396C38.2109 24.0688 37.2947 24.9843 36.1654 24.9843V25.085ZM38.3118 22.9396H38.4126C38.4126 21.6989 37.4061 20.6924 36.1654 20.6924V20.7932V20.894C37.2948 20.894 38.2111 21.8102 38.2111 22.9396H38.3118ZM11.623 1.68816L11.623 1.58739C10.7357 1.58741 9.9314 2.11021 9.57054 2.92167L9.66263 2.96262L9.75471 3.00357C10.0832 2.2648 10.8154 1.78896 11.623 1.78894L11.623 1.68816ZM9.66263 2.96262L9.57054 2.92168L4.96281 13.2866L5.0549 13.3276L5.14698 13.3685L9.75471 3.00356L9.66263 2.96262ZM5.0549 13.3276V13.4283H40.8234V13.3276V13.2268H5.0549V13.3276ZM40.8234 13.3276L40.9154 13.2866L36.3087 2.92169L36.2166 2.96262L36.1245 3.00355L40.7313 13.3685L40.8234 13.3276ZM36.2166 2.96262L36.3087 2.92167C35.9478 2.11015 35.1425 1.58739 34.2552 1.58739V1.68816V1.78894C35.0629 1.78894 35.796 2.26483 36.1245 3.00357L36.2166 2.96262ZM34.2552 1.68816V1.58739H11.623V1.68816V1.78894H34.2552V1.68816Z" fill="#528116" mask="url(#path-1-outside-1_655_4867)"/>
</g>
</svg>
