<svg width="56" height="56" viewBox="0 0 56 56" fill="none" xmlns="http://www.w3.org/2000/svg">
<circle cx="16" cy="16" r="16" fill="#B9DD8B" fill-opacity="0.3"/>
<mask id="mask0_1031_14523" style="mask-type:alpha" maskUnits="userSpaceOnUse" x="0" y="0" width="56" height="56">
<rect width="56" height="56" fill="#D9D9D9"/>
</mask>
<g mask="url(#mask0_1031_14523)">
<path d="M28 49C24.2367 49 21.1571 48.5394 18.7612 47.6181C16.3648 46.6968 15.1667 45.527 15.1667 44.1087C15.1667 43.373 15.5429 42.6632 16.2954 41.9796C17.0475 41.2963 18.0923 40.7227 19.4297 40.2588C19.6478 40.1841 19.8683 40.2051 20.0912 40.3217C20.314 40.4384 20.4629 40.606 20.538 40.8246C20.6127 41.0427 20.5917 41.2632 20.475 41.4861C20.3583 41.7089 20.1907 41.8429 19.9722 41.888C19.3021 42.1812 18.6741 42.5215 18.088 42.9088C17.5016 43.2962 17.1066 43.6812 16.9032 44.0638C17.2653 44.9015 18.494 45.6346 20.5893 46.263C22.6851 46.8911 25.1553 47.2051 28 47.2051C30.8447 47.2051 33.3149 46.8911 35.4107 46.263C37.506 45.6346 38.7347 44.9015 39.0967 44.0638C38.8934 43.6812 38.4984 43.2962 37.912 42.9088C37.3259 42.5215 36.7127 42.1812 36.0722 41.888C35.8241 41.8429 35.6417 41.7089 35.525 41.4861C35.4083 41.2632 35.3873 41.0427 35.462 40.8246C35.5371 40.606 35.686 40.4384 35.9088 40.3217C36.1317 40.2051 36.3522 40.1841 36.5703 40.2588C37.9077 40.7227 38.9525 41.2963 39.7046 41.9796C40.4571 42.6632 40.8333 43.373 40.8333 44.1087C40.8333 45.527 39.6352 46.6968 37.2388 47.6181C34.8429 48.5394 31.7633 49 28 49ZM28.0583 39.7337C32.1475 36.5837 35.1943 33.4771 37.1986 30.4138C39.2029 27.3509 40.2051 24.4493 40.2051 21.7088C40.2051 17.443 38.8918 14.2244 36.2653 12.0528C33.6387 9.88089 30.8836 8.79492 28 8.79492C25.1553 8.79492 22.4099 9.88089 19.7639 12.0528C17.1179 14.2244 15.7949 17.443 15.7949 21.7088C15.7949 24.5177 16.8121 27.4136 18.8463 30.3963C20.8802 33.3787 23.9509 36.4912 28.0583 39.7337ZM28 41.1833C27.6799 41.1833 27.3523 41.125 27.0171 41.0083C26.6823 40.8917 26.3743 40.7316 26.0931 40.5282C22.0576 37.2347 19.0332 34.0256 17.0199 30.9009C15.0066 27.7762 14 24.7121 14 21.7088C14 19.277 14.4286 17.1479 15.2857 15.3213C16.1428 13.495 17.2391 11.9642 18.5745 10.7287C19.9103 9.49317 21.4062 8.56295 23.0621 7.938C24.7176 7.31267 26.3636 7 28 7C29.6364 7 31.2847 7.31267 32.9449 7.938C34.6051 8.56295 36.1083 9.49317 37.4547 10.7287C38.8006 11.9642 39.8947 13.495 40.7371 15.3213C41.579 17.1479 42 19.277 42 21.7088C42 24.7121 41.0009 27.7762 39.0028 30.9009C37.0043 34.0256 33.9529 37.2347 29.8486 40.5282C29.5974 40.7316 29.3065 40.8917 28.9759 41.0083C28.6454 41.125 28.3201 41.1833 28 41.1833ZM28 25.1732C29.0442 25.1732 29.9334 24.8134 30.6676 24.094C31.4022 23.3746 31.7695 22.4778 31.7695 21.4037C31.7695 20.3599 31.4022 19.4707 30.6676 18.7361C29.9334 18.0019 29.0442 17.6348 28 17.6348C26.9858 17.6348 26.104 18.0019 25.3546 18.7361C24.6052 19.4707 24.2305 20.3599 24.2305 21.4037C24.2305 22.4778 24.6052 23.3746 25.3546 24.094C26.104 24.8134 26.9858 25.1732 28 25.1732Z" fill="#528116"/>
</g>
</svg>
