<svg width="56" height="56" viewBox="0 0 56 56" fill="none" xmlns="http://www.w3.org/2000/svg">
<circle cx="16" cy="16" r="16" fill="#B9DD8B" fill-opacity="0.3"/>
<mask id="mask0_1031_14938" style="mask-type:alpha" maskUnits="userSpaceOnUse" x="0" y="0" width="56" height="56">
<rect width="56" height="56" fill="#D9D9D9"/>
</mask>
<g mask="url(#mask0_1031_14938)">
<path d="M7.28333 39.2181L6 37.9347L17.7425 26.1917C18.8376 25.1269 20.1524 24.5869 21.687 24.5717C23.2216 24.557 24.5362 25.0969 25.6309 26.1917L28.3143 28.875C29.0473 29.638 29.9396 30.0119 30.9912 29.9968C32.0427 29.982 32.9348 29.6081 33.6675 28.875L46.7925 15.7949H38.7559V14H49.8842V25.1282H48.0893V17.0917L34.9508 30.1718C33.8561 31.2369 32.5339 31.7769 30.9842 31.7917C29.4348 31.8064 28.1276 31.2814 27.0624 30.2167L24.3208 27.475C23.597 26.7213 22.7146 26.3519 21.6736 26.3667C20.6325 26.3814 19.7499 26.7509 19.0258 27.475L7.28333 39.2181Z" fill="#528116"/>
</g>
</svg>
