<svg width="56" height="56" viewBox="0 0 56 56" fill="none" xmlns="http://www.w3.org/2000/svg">
<circle cx="40" cy="16" r="16" fill="#B9DD8B" fill-opacity="0.3"/>
<mask id="mask0_655_4856" style="mask-type:alpha" maskUnits="userSpaceOnUse" x="0" y="0" width="56" height="56">
<rect width="56" height="56" fill="#D9D9D9"/>
</mask>
<g mask="url(#mask0_655_4856)">
<path d="M28 35.7L23.0913 40.6221C22.9205 40.7929 22.714 40.8856 22.4718 40.9004C22.2295 40.9155 22.0082 40.8228 21.8079 40.6221C21.6073 40.4219 21.5069 40.2058 21.5069 39.974C21.5069 39.7423 21.6073 39.526 21.8079 39.3254L26.7167 34.4166L21.7945 29.5079C21.6238 29.3372 21.531 29.1307 21.5163 28.8884C21.5011 28.6461 21.5938 28.4248 21.7945 28.2245C21.9948 28.0239 22.2108 27.9235 22.4426 27.9235C22.6744 27.9235 22.8906 28.0239 23.0913 28.2245L28 33.1333L32.9088 28.2111C33.0795 28.0404 33.286 27.9477 33.5283 27.9329C33.7705 27.9177 33.9918 28.0105 34.1921 28.2111C34.3928 28.4114 34.4931 28.6274 34.4931 28.8592C34.4931 29.091 34.3928 29.3072 34.1921 29.5079L29.2833 34.4166L34.2055 39.3254C34.3762 39.4961 34.469 39.7026 34.4838 39.9449C34.4989 40.1872 34.4062 40.4084 34.2055 40.6087C34.0052 40.8094 33.7892 40.9097 33.5574 40.9097C33.3257 40.9097 33.1094 40.8094 32.9088 40.6087L28 35.7ZM12.5638 49C11.6675 49 10.9048 48.6857 10.276 48.0573C9.64757 47.4285 9.33334 46.6659 9.33334 45.7695V14.3587C9.33334 13.4623 9.64757 12.6997 10.276 12.0709C10.9048 11.4424 11.6675 11.1282 12.5638 11.1282H17.388V7.5203C17.388 7.23096 17.4833 6.98207 17.6738 6.77363C17.8644 6.56557 18.1057 6.46155 18.3978 6.46155C18.7065 6.46155 18.9632 6.56557 19.1678 6.77363C19.3723 6.98207 19.4746 7.23096 19.4746 7.5203V11.1282H36.7051V7.4433C36.7051 7.14541 36.7959 6.90721 36.9775 6.72871C37.1595 6.5506 37.386 6.46155 37.6571 6.46155C37.9449 6.46155 38.1835 6.5541 38.3728 6.73922C38.5622 6.92394 38.6569 7.15435 38.6569 7.43046V11.1282H43.4362C44.3326 11.1282 45.0952 11.4424 45.724 12.0709C46.3525 12.6997 46.6667 13.4623 46.6667 14.3587V45.7695C46.6667 46.6659 46.3525 47.4285 45.724 48.0573C45.0952 48.6857 44.3326 49 43.4362 49H12.5638ZM12.5638 47.205H43.4362C43.7951 47.205 44.1241 47.0555 44.4232 46.7565C44.7222 46.4574 44.8718 46.1284 44.8718 45.7695V24.5H11.1283V45.7695C11.1283 46.1284 11.2778 46.4574 11.5768 46.7565C11.8759 47.0555 12.2049 47.205 12.5638 47.205ZM11.1283 22.705H44.8718V14.3587C44.8718 13.9998 44.7222 13.6708 44.4232 13.3717C44.1241 13.0727 43.7951 12.9231 43.4362 12.9231H12.5638C12.2049 12.9231 11.8759 13.0727 11.5768 13.3717C11.2778 13.6708 11.1283 13.9998 11.1283 14.3587V22.705Z" fill="#528116"/>
</g>
</svg>
