<svg width="24" height="15" viewBox="0 0 24 15" fill="none" xmlns="http://www.w3.org/2000/svg">
<g id="Group">
<path id="Vector" d="M0 0V14.6907H24V0H0ZM6.21046 9.79559L5.6583 5.83809L6.99832 6.67986L4.74289 4.89508H6.91066L7.12997 7.2229C7.15755 7.49936 7.17978 7.7709 7.20073 8.0503C7.31345 7.78285 7.44469 7.49035 7.59653 7.16778L8.67037 4.89508H10.096L7.56779 9.79554L6.21046 9.79559ZM9.79311 9.79559L10.7242 4.89514H12L11.0702 9.79559H9.79311ZM13.226 9.86513C12.6439 9.86513 12.1177 9.73141 11.819 9.50718L11.7313 9.44052L12.1625 8.37701L12.3069 8.46341C12.5966 8.63661 12.9664 8.73784 13.3219 8.73784C13.5934 8.73784 13.9123 8.63251 13.9123 8.33875C13.9123 8.18528 13.823 8.05035 13.3667 7.81458C12.8829 7.55331 12.3304 7.16414 12.3304 6.46267C12.3304 5.49623 13.1384 4.82068 14.2949 4.82068C14.7681 4.82068 15.147 4.90339 15.4514 5.07122L15.5592 5.13049L15.1515 6.22281L15.0058 6.14299C14.9491 6.1113 14.6409 5.95536 14.2414 5.95536C13.8308 5.95536 13.6564 6.13393 13.6564 6.29888C13.6564 6.47578 13.8823 6.61608 14.2558 6.82466C14.9203 7.17355 15.2444 7.61379 15.2444 8.16878C15.2445 9.1834 14.434 9.86513 13.226 9.86513ZM18.2249 9.79559L18.1294 8.59875H17.024L16.4755 9.79559H15.108L17.4934 4.89514H18.9762L19.5505 9.79559H18.2249Z" fill="white"/>
</g>
</svg>
