<svg width="20" height="20" viewBox="0 0 20 20" fill="none" xmlns="http://www.w3.org/2000/svg">
<g id="linkedin">
<path id="linkedin_2" d="M2 3.14614C2 2.51331 2.52601 2 3.17491 2H16.8251C17.474 2 18 2.51331 18 3.14614V16.8539C18 17.4869 17.474 18 16.8251 18L3.17491 18C2.52601 18 2 17.4869 2 16.8539V3.14614ZM6.94338 15.3937V8.16876H4.54196V15.3937H6.94338ZM5.74266 7.18232C6.58008 7.18232 7.10131 6.62753 7.10131 5.9342C7.0857 5.22527 6.58008 4.68587 5.75854 4.68587C4.93709 4.68587 4.4 5.22527 4.4 5.9342C4.4 6.62753 4.92112 7.18232 5.72701 7.18232H5.74266ZM10.6514 15.3937V11.359C10.6514 11.143 10.667 10.9273 10.7304 10.773C10.904 10.3415 11.2991 9.89471 11.9625 9.89471C12.8315 9.89471 13.1791 10.5572 13.1791 11.5285V15.3937H15.5803V11.251C15.5803 9.03184 14.3956 7.99922 12.8156 7.99922C11.5418 7.99922 10.9706 8.69937 10.6515 9.19167V9.21656H10.6354C10.6407 9.20832 10.646 9.20003 10.6515 9.19167V8.16876H8.25007C8.28158 8.8467 8.25007 15.3937 8.25007 15.3937H10.6514Z" fill="#212529"/>
</g>
</svg>
