<svg width="20" height="20" viewBox="0 0 20 20" fill="none" xmlns="http://www.w3.org/2000/svg">
<g id="ic_instagram">
<g id="Vector (Stroke)">
<path fill-rule="evenodd" clip-rule="evenodd" d="M10 6.40533C8.01576 6.40533 6.40696 8.01413 6.40696 9.99837C6.40696 11.9826 8.01576 13.5914 10 13.5914C11.9842 13.5914 13.593 11.9826 13.593 9.99837C13.593 8.01413 11.9842 6.40533 10 6.40533ZM10 12.3317C8.7123 12.3317 7.66666 11.2877 7.66666 9.99837C7.66666 8.70903 8.71065 7.66504 10 7.66504C11.2893 7.66504 12.3333 8.70903 12.3333 9.99837C12.3333 11.2877 11.2893 12.3317 10 12.3317Z" fill="black"/>
<path d="M14.5761 6.26204C14.5761 6.72585 14.2001 7.10185 13.7363 7.10185C13.2725 7.10185 12.8965 6.72585 12.8965 6.26204C12.8965 5.79823 13.2725 5.42224 13.7363 5.42224C14.2001 5.42224 14.5761 5.79823 14.5761 6.26204Z" fill="black"/>
<path fill-rule="evenodd" clip-rule="evenodd" d="M10 3C8.09974 3 7.86097 3.00823 7.11503 3.04281C6.37074 3.07739 5.86192 3.19431 5.41567 3.36885C4.95625 3.54834 4.56598 3.78711 4.17572 4.17572C3.78711 4.56434 3.54669 4.9546 3.36885 5.41567C3.19595 5.86027 3.07739 6.36909 3.04281 7.11503C3.00823 7.86097 3 8.09974 3 10C3 11.9003 3.00823 12.139 3.04281 12.885C3.07739 13.6293 3.19431 14.1381 3.36885 14.5843C3.54834 15.0438 3.78711 15.434 4.17572 15.8243C4.56434 16.2129 4.9546 16.4533 5.41567 16.6311C5.86027 16.804 6.36909 16.9226 7.11503 16.9572C7.86097 16.9918 8.09974 17 10 17C11.9003 17 12.139 16.9918 12.885 16.9572C13.6293 16.9226 14.1381 16.8057 14.5843 16.6311C15.0438 16.4517 15.434 16.2129 15.8243 15.8243C16.2129 15.4357 16.4533 15.0454 16.6311 14.5843C16.804 14.1397 16.9226 13.6309 16.9572 12.885C16.9918 12.139 17 11.9003 17 10C17 8.09974 16.9918 7.86097 16.9572 7.11503C16.9226 6.37074 16.8057 5.86191 16.6311 5.41567C16.4517 4.95625 16.2129 4.56598 15.8243 4.17572C15.4357 3.78711 15.0454 3.54669 14.5843 3.36885C14.1397 3.19595 13.6309 3.07739 12.885 3.04281C12.139 3.00823 11.9003 3 10 3ZM10 4.26135C11.869 4.26135 12.0896 4.26794 12.8273 4.30252C13.5091 4.3338 13.8796 4.44742 14.1266 4.54293C14.4526 4.66972 14.6864 4.82122 14.9318 5.06657C15.1771 5.31193 15.3286 5.54411 15.4554 5.8718C15.5509 6.1188 15.6646 6.4893 15.6958 7.17102C15.7288 7.90873 15.737 8.13103 15.737 9.99835C15.737 11.8657 15.7304 12.088 15.6958 12.8257C15.6646 13.5074 15.5509 13.8779 15.4554 14.1249C15.3286 14.451 15.1771 14.6848 14.9318 14.9301C14.6864 15.1755 14.4542 15.327 14.1266 15.4538C13.8796 15.5493 13.5091 15.6629 12.8273 15.6942C12.0896 15.7271 11.869 15.7354 10 15.7354C8.13103 15.7354 7.91037 15.7288 7.17267 15.6942C6.49094 15.6629 6.12044 15.5493 5.87344 15.4538C5.5474 15.327 5.31357 15.1755 5.06822 14.9301C4.82287 14.6848 4.67137 14.4526 4.54458 14.1249C4.44907 13.8779 4.33545 13.5074 4.30416 12.8257C4.27123 12.088 4.263 11.8657 4.263 9.99835C4.263 8.13103 4.26958 7.90873 4.30416 7.17102C4.33545 6.4893 4.44907 6.1188 4.54458 5.8718C4.67137 5.54575 4.82287 5.31193 5.06822 5.06657C5.31357 4.82122 5.54575 4.66972 5.87344 4.54293C6.12044 4.44742 6.49094 4.3338 7.17267 4.30252C7.91037 4.26958 8.13268 4.26135 10 4.26135Z" fill="black"/>
</g>
</g>
</svg>
