<svg width="21" height="28" viewBox="0 0 21 28" fill="none" xmlns="http://www.w3.org/2000/svg">
<g id="Group">
<path id="Vector" d="M5.71492 18.5619L2.57467 26.8031C2.82607 27.1421 3.10033 27.3945 3.37458 27.5674L6.316 19.8448C6.13316 19.7243 6.04403 19.5537 5.94804 19.3103C5.91375 19.2147 5.83148 18.9509 5.71263 18.5619H5.71492Z" fill="#78BE20"/>
<path id="Vector_2" d="M1.65514 24.5469L2.02768 25.8093C2.0391 25.8389 2.05282 25.8594 2.06425 25.8867L5.33477 17.3042C5.21364 16.8971 5.0788 16.4376 4.93253 15.9462L1.65743 24.5469H1.65514Z" fill="#78BE20"/>
<path id="Vector_3" d="M0.831569 21.7696L1.27953 23.2845L4.5569 14.6839C4.4152 14.1994 4.26436 13.6876 4.11124 13.1667L0.833854 21.7719L0.831569 21.7696Z" fill="#78BE20"/>
<path id="Vector_4" d="M0 18.9352L0.463952 20.5048L3.74362 11.895C3.59049 11.3741 3.43736 10.8464 3.28195 10.3187L0 18.9352Z" fill="#78BE20"/>
<path id="Vector_5" d="M20.7756 0.598878C20.4328 -0.00846697 18.8238 0.107543 18.8238 0.107543C18.8238 0.107543 10.1641 -0.0334883 9.03051 0.0074563C8.16431 0.0393021 7.38497 0.13029 6.7656 0.494242C6.15309 0.853644 5.65943 1.87271 5.23662 2.75529C4.99664 3.25573 4.28814 4.19063 5.93368 4.19063C6.17137 4.19063 11.1469 4.14286 12.0519 4.18608C12.3422 4.19973 13.0027 4.47041 12.6964 5.1733C12.6964 5.1733 7.91063 18.105 7.54724 18.9443C7.48096 19.0967 7.41011 19.2651 7.3324 19.4266L4.10987 27.8862C4.35899 27.9499 4.58525 27.9726 4.76581 27.9726L7.75979 27.9999C7.75979 27.9999 9.21792 27.9726 9.82586 27.3948C10.5115 26.7443 10.7263 26.1278 10.836 25.8571L20.4556 1.92275C20.4556 1.92275 20.931 0.880941 20.7756 0.601153V0.598878Z" fill="#78BE20"/>
</g>
</svg>
