<svg width="36" height="28" viewBox="0 0 36 28" fill="none" xmlns="http://www.w3.org/2000/svg">
<g id="Group">
<path id="Vector" d="M31.7847 9.0647L35.0166 0.578502C34.9781 0.540235 34.9487 0.497467 34.9035 0.463702C34.5032 0.15982 34.0599 0 33.4719 0H29.2426C28.7066 0 28.5279 0.101294 28.1185 0.375913C27.7069 0.650533 27.4581 1.21778 27.3518 1.62521L23.1158 17.767C22.8489 18.7259 22.6408 19.7366 21.9736 19.7141C21.4308 19.6961 21.4308 19.2594 20.8858 17.9718C20.533 17.1367 15.632 3.95047 15.632 3.95047C15.4035 3.3337 14.7431 1.83455 14.232 1.25605C13.748 0.709059 12.8004 0.0630273 11.3574 0.0472704L4.39155 0.0202589C4.39155 0.0202589 3.19287 0.0247609 2.60032 0.285875C2.04848 0.528981 1.46045 1.28081 1.46045 1.28081C1.46045 1.28081 0.691486 2.09341 0.27308 2.59988C-0.326257 3.3292 0.0604855 3.97073 1.43783 3.97073C2.94861 3.97073 6.44965 3.98424 6.44965 3.98424C6.44965 3.98424 7.99662 3.92346 8.43764 4.30162C8.67059 4.49971 8.96687 4.54248 9.27219 5.2763C11.1923 9.89081 18.07 25.3123 18.4183 26.0799C19.1172 27.615 20.5827 27.642 20.5827 27.642L23.5545 27.615C24.4637 27.615 25.8524 27.2256 26.3409 25.9403L30.9592 9.45412C31.1039 8.99492 31.511 8.85761 31.7892 9.0647H31.7847Z" fill="#EEF2F4"/>
<path id="Vector_2" d="M35.4957 1.55085L32.2276 10.1293L32.7364 11.8558L36 3.28861C35.6969 2.24865 35.507 1.59137 35.507 1.59137C35.5024 1.57786 35.4979 1.56435 35.4957 1.55085Z" fill="#EEF2F4"/>
</g>
</svg>
