<svg width="95" height="8" viewBox="0 0 95 8" fill="none" xmlns="http://www.w3.org/2000/svg">
<g id="Group">
<path id="Vector" d="M7.50606 7.74267H6.40024C6.27612 7.74267 6.17456 7.71123 6.09557 7.65058C6.01433 7.58993 5.95791 7.51132 5.9218 7.42147L5.34632 5.86041H2.15974L1.58652 7.42147C1.55718 7.50233 1.50076 7.57646 1.41952 7.64384C1.33602 7.71123 1.23446 7.74492 1.1126 7.74492H0L3.02183 0.087837H4.48423L7.50606 7.74492V7.74267ZM2.52534 4.84965H4.97846L4.0419 2.30253C3.99902 2.19022 3.95163 2.0577 3.89972 1.90272C3.84782 1.74998 3.79817 1.58152 3.74852 1.40183C3.69887 1.58152 3.64922 1.74998 3.60183 1.90496C3.55444 2.05994 3.50704 2.19696 3.46191 2.31376L2.52534 4.84965Z" fill="#78BE20"/>
<path id="Vector_2" d="M14.0665 0.0853697V0.60872C14.0665 0.770442 14.0191 0.918686 13.9289 1.05345L9.98175 6.60366H13.9717V7.74245H8.12441V7.18092C8.12441 7.11129 8.13795 7.04166 8.16052 6.97652C8.18535 6.91138 8.21694 6.85074 8.25757 6.79458L12.216 1.21967H8.37492V0.087618H14.0665V0.0853697Z" fill="#78BE20"/>
<path id="Vector_3" d="M21.7113 3.91277C21.7113 4.4743 21.6165 4.99316 21.4292 5.47159C21.2396 5.95002 20.9756 6.36331 20.6371 6.7137C20.2963 7.0641 19.8855 7.33588 19.4071 7.5313C18.9287 7.72671 18.3983 7.82554 17.8161 7.82554C17.2338 7.82554 16.7035 7.72896 16.2228 7.5313C15.7421 7.33588 15.3314 7.06185 14.9883 6.7137C14.6453 6.36331 14.3812 5.95002 14.1939 5.47159C14.0066 4.99316 13.9118 4.4743 13.9118 3.91277C13.9118 3.35124 14.0066 2.83238 14.1939 2.35395C14.3812 1.87552 14.6475 1.46223 14.9883 1.11184C15.3314 0.76144 15.7421 0.489657 16.2228 0.294243C16.7035 0.0988295 17.2338 0 17.8161 0C18.3983 0 18.9287 0.0988282 19.4071 0.296488C19.8855 0.494148 20.2963 0.765931 20.6371 1.11408C20.9778 1.46223 21.2419 1.87552 21.4292 2.35395C21.6165 2.83238 21.7113 3.35124 21.7113 3.91277ZM20.2421 3.91277C20.2421 3.49274 20.1857 3.11539 20.0751 2.78296C19.9645 2.44829 19.8043 2.16527 19.5944 1.93168C19.3845 1.69808 19.1318 1.52063 18.8316 1.3971C18.5337 1.27356 18.1952 1.21291 17.8183 1.21291C17.4414 1.21291 17.1029 1.27581 16.8028 1.3971C16.5004 1.52063 16.2453 1.69808 16.0332 1.93168C15.8233 2.16527 15.6608 2.44829 15.5457 2.78296C15.4329 3.11539 15.3765 3.49274 15.3765 3.91277C15.3765 4.3328 15.4329 4.71015 15.5457 5.04258C15.6586 5.375 15.8211 5.65802 16.0332 5.88937C16.2453 6.12072 16.5004 6.29817 16.8028 6.4217C17.1029 6.54524 17.4437 6.60813 17.8183 6.60813C18.1929 6.60813 18.5337 6.54524 18.8316 6.4217C19.1318 6.29817 19.3868 6.12072 19.5944 5.88937C19.8043 5.65802 19.9645 5.375 20.0751 5.04258C20.1879 4.7079 20.2421 4.3328 20.2421 3.91277Z" fill="#78BE20"/>
<path id="Vector_4" d="M24.154 4.74813V7.73998H22.7232V0.0829023H25.0702C25.5961 0.0829023 26.0452 0.13681 26.4175 0.244624C26.7921 0.352439 27.0991 0.502931 27.336 0.698345C27.5752 0.893759 27.7513 1.12511 27.8619 1.39465C27.9747 1.66418 28.0289 1.96292 28.0289 2.28636C28.0289 2.54467 27.9905 2.78725 27.9138 3.01636C27.837 3.24546 27.7265 3.45435 27.5843 3.64078C27.4398 3.82721 27.2616 3.99118 27.0517 4.13269C26.8418 4.27419 26.6003 4.3865 26.3295 4.47185C26.51 4.57517 26.6658 4.72118 26.7967 4.9121L28.724 7.73998H27.4376C27.3135 7.73998 27.2074 7.71527 27.1194 7.66586C27.0336 7.61644 26.9591 7.54681 26.8982 7.45472L25.2801 5.00194C25.2192 4.90985 25.1537 4.84471 25.0815 4.80653C25.0093 4.76834 24.901 4.74813 24.7588 4.74813H24.1472H24.154ZM24.154 3.72838H25.0477C25.3162 3.72838 25.5509 3.69469 25.7518 3.62731C25.9526 3.55992 26.1174 3.46783 26.246 3.34878C26.3746 3.22974 26.4717 3.09048 26.5371 2.92651C26.6003 2.76479 26.6319 2.5851 26.6319 2.39193C26.6319 2.00335 26.5033 1.70461 26.246 1.49797C25.9887 1.28908 25.596 1.18576 25.068 1.18576H24.1517V3.72838H24.154Z" fill="#78BE20"/>
<path id="Vector_5" d="M34.089 0.0831734V1.21522H30.679V3.33783H33.3646V4.43394H30.679V6.59922H34.089V7.73801H29.2369V0.0809285H34.089V0.0831734Z" fill="#78BE20"/>
<path id="Vector_6" d="M39.0902 1.47796C39.0518 1.55657 39.0067 1.61048 38.9547 1.64193C38.9028 1.67337 38.8419 1.68909 38.7719 1.68909C38.702 1.68909 38.6207 1.66214 38.5327 1.60823C38.4447 1.55432 38.3386 1.49368 38.219 1.42629C38.0972 1.35891 37.9572 1.29827 37.7948 1.24436C37.6323 1.19045 37.4427 1.16125 37.2238 1.16125C37.0252 1.16125 36.8514 1.18596 36.7047 1.23313C36.558 1.2803 36.4339 1.34768 36.3324 1.43079C36.2308 1.51614 36.1563 1.61722 36.1067 1.73626C36.057 1.85531 36.0322 1.98334 36.0322 2.12484C36.0322 2.30453 36.0841 2.45503 36.1834 2.57407C36.285 2.69312 36.4181 2.79644 36.5851 2.88179C36.7499 2.96715 36.9417 3.04351 37.1538 3.1109C37.366 3.17828 37.5849 3.25016 37.806 3.32428C38.0272 3.40065 38.2439 3.48825 38.4583 3.58933C38.6704 3.6904 38.86 3.81843 39.027 3.97117C39.194 4.12391 39.3271 4.31258 39.4287 4.53495C39.5302 4.75732 39.5799 5.02685 39.5799 5.3458C39.5799 5.69171 39.5212 6.01515 39.4016 6.31614C39.282 6.61712 39.1082 6.88216 38.8803 7.10453C38.6501 7.32914 38.3725 7.50434 38.043 7.63462C37.7135 7.76265 37.3344 7.82778 36.9101 7.82778C36.6664 7.82778 36.4249 7.80308 36.1879 7.75591C35.951 7.70874 35.723 7.64136 35.5041 7.55151C35.2852 7.46391 35.0821 7.3561 34.8925 7.23481C34.703 7.11127 34.5337 6.97425 34.3848 6.82152L34.8 6.13869C34.8384 6.08928 34.8858 6.0466 34.9399 6.01291C34.9963 5.97921 35.0573 5.96349 35.1227 5.96349C35.213 5.96349 35.3078 5.99943 35.4116 6.07131C35.5132 6.14318 35.635 6.22404 35.7749 6.31164C35.9149 6.39924 36.0796 6.4801 36.2692 6.55198C36.4587 6.62386 36.6867 6.65979 36.953 6.65979C37.3615 6.65979 37.6751 6.56321 37.9008 6.37229C38.1242 6.17912 38.2348 5.90285 38.2348 5.54346C38.2348 5.34356 38.1852 5.17734 38.0836 5.05156C37.9843 4.92353 37.8489 4.81796 37.6819 4.73036C37.5149 4.64501 37.3253 4.57089 37.1132 4.51024C36.9011 4.4496 36.6844 4.38446 36.4633 4.31483C36.2443 4.2452 36.0277 4.15985 35.8133 4.06102C35.6012 3.96219 35.4116 3.83416 35.2446 3.67468C35.0776 3.5152 34.9444 3.31754 34.8429 3.07945C34.7436 2.84136 34.6917 2.54712 34.6917 2.19672C34.6917 1.9182 34.7481 1.64642 34.8587 1.38137C34.9693 1.11633 35.134 0.882729 35.3484 0.678331C35.5628 0.473932 35.8268 0.309967 36.1383 0.18643C36.4497 0.0628922 36.8063 0 37.208 0C37.6616 0 38.0814 0.0718757 38.4628 0.213382C38.8464 0.354889 39.1714 0.552549 39.4422 0.806362L39.0902 1.47796Z" fill="#78BE20"/>
<path id="Vector_7" d="M45.9376 4.76434V7.74048H44.5068V4.76434L41.7039 0.0833958H42.9654C43.0895 0.0833958 43.1888 0.112594 43.261 0.17324C43.3332 0.233886 43.3942 0.310255 43.4461 0.402347L44.8566 2.9607C44.9378 3.11119 45.01 3.25494 45.0687 3.39195C45.1297 3.52672 45.1838 3.66149 45.2335 3.79177C45.2786 3.657 45.3328 3.52223 45.3914 3.38746C45.4501 3.2527 45.5201 3.10894 45.6013 2.9607L47.0005 0.402347C47.0389 0.323732 47.0976 0.251855 47.1766 0.184471C47.2555 0.117087 47.3548 0.0833958 47.4744 0.0833958H48.7405L45.9421 4.76434H45.9376Z" fill="#78BE20"/>
<path id="Vector_8" d="M56.0249 3.91277C56.0249 4.4743 55.9302 4.99316 55.7428 5.47159C55.5533 5.95002 55.2892 6.36331 54.9507 6.7137C54.6099 7.0641 54.1992 7.33588 53.7208 7.5313C53.2423 7.72671 52.712 7.82554 52.1297 7.82554C51.5475 7.82554 51.0171 7.72896 50.5364 7.5313C50.0558 7.33588 49.645 7.06185 49.302 6.7137C48.959 6.36331 48.6949 5.95002 48.5076 5.47159C48.3203 4.99316 48.2255 4.4743 48.2255 3.91277C48.2255 3.35124 48.3203 2.83238 48.5076 2.35395C48.6949 1.87552 48.9612 1.46223 49.302 1.11184C49.645 0.76144 50.0558 0.489657 50.5364 0.294243C51.0171 0.0988295 51.5475 0 52.1297 0C52.712 0 53.2423 0.0988282 53.7208 0.296488C54.1992 0.494148 54.6099 0.765931 54.9507 1.11408C55.2915 1.46223 55.5555 1.87552 55.7428 2.35395C55.9302 2.83238 56.0249 3.35124 56.0249 3.91277ZM54.558 3.91277C54.558 3.49274 54.5016 3.11539 54.391 2.78296C54.2805 2.44829 54.1202 2.16527 53.9103 1.93168C53.7005 1.69808 53.4477 1.52063 53.1475 1.3971C52.8497 1.27356 52.5111 1.21291 52.1343 1.21291C51.7574 1.21291 51.4189 1.27581 51.1187 1.3971C50.8163 1.52063 50.5613 1.69808 50.3491 1.93168C50.1393 2.16527 49.9768 2.44829 49.8617 2.78296C49.7488 3.11539 49.6924 3.49274 49.6924 3.91277C49.6924 4.3328 49.7488 4.71015 49.8617 5.04258C49.9745 5.375 50.137 5.65802 50.3491 5.88937C50.5613 6.12072 50.8163 6.29817 51.1187 6.4217C51.4189 6.54524 51.7596 6.60813 52.1343 6.60813C52.5089 6.60813 52.8497 6.54524 53.1475 6.4217C53.4477 6.29817 53.7027 6.12072 53.9103 5.88937C54.1202 5.65802 54.2805 5.375 54.391 5.04258C54.5039 4.7079 54.558 4.3328 54.558 3.91277Z" fill="#78BE20"/>
<path id="Vector_9" d="M59.9808 6.59243C60.2584 6.59243 60.5066 6.54751 60.7233 6.45541C60.9399 6.36332 61.125 6.23529 61.2762 6.06908C61.4274 5.90286 61.5425 5.70296 61.6215 5.46487C61.7005 5.22903 61.7411 4.96398 61.7411 4.66974V0.0853697H63.1719V4.66974C63.1719 5.1257 63.0997 5.54573 62.9507 5.93206C62.8018 6.3184 62.5919 6.65307 62.3143 6.93384C62.039 7.21461 61.7027 7.43248 61.3078 7.58971C60.9151 7.74694 60.4705 7.82556 59.9785 7.82556C59.4866 7.82556 59.042 7.74694 58.6493 7.58971C58.2543 7.43248 57.9226 7.21461 57.6473 6.93384C57.3719 6.65307 57.1598 6.3184 57.0131 5.93206C56.8664 5.54573 56.792 5.1257 56.792 4.66974V0.0853697H58.2228V4.66524C58.2228 4.95949 58.2634 5.22229 58.3424 5.46038C58.4214 5.69622 58.5364 5.89837 58.6854 6.06683C58.8343 6.23529 59.0171 6.36332 59.236 6.45541C59.455 6.54751 59.7009 6.59243 59.9785 6.59243H59.9808Z" fill="#78BE20"/>
<path id="Vector_10" d="M65.6367 4.74813V7.73998H64.2059V0.0829023H66.553C67.0788 0.0829023 67.5279 0.13681 67.9003 0.244624C68.2749 0.352439 68.5818 0.502931 68.821 0.698345C69.0603 0.893759 69.2363 1.12511 69.3469 1.39465C69.4597 1.66418 69.5139 1.96292 69.5139 2.28636C69.5139 2.54467 69.4755 2.78725 69.3988 3.01636C69.322 3.24546 69.2115 3.45435 69.0693 3.64078C68.9249 3.82721 68.7466 3.99118 68.5367 4.13269C68.3268 4.27419 68.0853 4.3865 67.8145 4.47185C67.9951 4.57517 68.1508 4.72118 68.2817 4.9121L70.209 7.73998H68.9226C68.7985 7.73998 68.6924 7.71527 68.6044 7.66586C68.5186 7.61644 68.4442 7.54681 68.3832 7.45472L66.7651 5.00194C66.7042 4.90985 66.6387 4.84471 66.5665 4.80653C66.4943 4.76834 66.386 4.74813 66.2438 4.74813H65.6322H65.6367ZM65.6367 3.72838H66.5304C66.799 3.72838 67.0337 3.69469 67.2345 3.62731C67.4354 3.55992 67.6001 3.46783 67.7288 3.34878C67.8574 3.22974 67.9544 3.09048 68.0199 2.92651C68.0831 2.76479 68.1147 2.5851 68.1147 2.39193C68.1147 2.00335 67.986 1.70461 67.7288 1.49797C67.4715 1.28908 67.0788 1.18576 66.5507 1.18576H65.6345V3.72838H65.6367Z" fill="#78BE20"/>
<path id="Vector_11" d="M72.3224 0.128301H73.5253C73.6494 0.128301 73.7533 0.157501 73.8368 0.2159C73.9203 0.2743 73.9767 0.352915 74.0038 0.451745L75.3127 5.03162C75.3443 5.14392 75.3736 5.26746 75.4007 5.39998C75.4278 5.53251 75.4526 5.67177 75.4774 5.82001C75.5068 5.67177 75.5384 5.53251 75.5722 5.39998C75.6061 5.26746 75.6422 5.14392 75.6805 5.03162L77.1926 0.451745C77.2219 0.370885 77.2761 0.296761 77.3596 0.229377C77.4431 0.161993 77.5446 0.128301 77.6665 0.128301H78.0863C78.2104 0.128301 78.3142 0.157501 78.3954 0.2159C78.4767 0.2743 78.5331 0.352915 78.5647 0.451745L80.0655 5.03162C80.1445 5.25848 80.2099 5.5078 80.2663 5.78408C80.2912 5.64706 80.3182 5.51454 80.3431 5.38651C80.3701 5.25848 80.3972 5.14168 80.4266 5.03162L81.7355 0.451745C81.7603 0.364146 81.8167 0.287779 81.9002 0.224887C81.986 0.161995 82.0875 0.13055 82.2072 0.13055H83.3288L80.9411 7.78763H79.648L77.9667 2.55637C77.9441 2.48899 77.9238 2.41711 77.9012 2.3385C77.8786 2.25988 77.8561 2.17678 77.8358 2.08918C77.8132 2.17678 77.7929 2.25988 77.7703 2.3385C77.7478 2.41711 77.7252 2.48899 77.7049 2.55637L76.0078 7.78763H74.7146L72.327 0.13055L72.3224 0.128301Z" fill="#78BE20"/>
<path id="Vector_12" d="M89.8557 7.73774H88.7499C88.6258 7.73774 88.5242 7.70629 88.4453 7.64564C88.364 7.585 88.3076 7.50638 88.2715 7.41654L87.696 5.85547H84.5094L83.9362 7.41654C83.9069 7.4974 83.8504 7.57152 83.7692 7.63891C83.6857 7.70629 83.5841 7.73998 83.4623 7.73998H82.3497L85.3715 0.0829023H86.8339L89.8557 7.73998V7.73774ZM84.8773 4.84696H87.3304L86.3938 2.29984C86.351 2.18753 86.3036 2.05501 86.2517 1.90003C86.1998 1.74729 86.1501 1.57883 86.1005 1.39914C86.0508 1.57883 86.0034 1.74729 85.9538 1.90227C85.9064 2.05726 85.859 2.19427 85.8138 2.31107L84.8773 4.84696Z" fill="#78BE20"/>
<path id="Vector_13" d="M92.1971 4.76632V7.74245H90.7663V4.76632L87.9634 0.0853697H89.2249C89.349 0.0853697 89.4483 0.114572 89.5205 0.175217C89.5927 0.235863 89.6537 0.312229 89.7056 0.404321L91.1161 2.96267C91.1973 3.11316 91.2695 3.25692 91.3282 3.39393C91.3891 3.5287 91.4433 3.66347 91.493 3.79374C91.5381 3.65898 91.5923 3.52421 91.6509 3.38944C91.7096 3.25467 91.7796 3.11092 91.8608 2.96267L93.26 0.404321C93.2984 0.325706 93.3593 0.253833 93.4361 0.186449C93.515 0.119064 93.6143 0.0853697 93.734 0.0853697H95L92.2016 4.76632H92.1971Z" fill="#78BE20"/>
</g>
</svg>
