<svg width="123" height="28" viewBox="0 0 123 28" fill="none" xmlns="http://www.w3.org/2000/svg">
<g id="Group">
<path id="Vector" d="M27.68 27.5272H22.7599C22.21 27.5272 21.7544 27.3976 21.3975 27.1407C21.0406 26.8838 20.7937 26.5532 20.6568 26.1511L19.0429 21.357H8.6371L7.02325 26.1511C6.89756 26.5041 6.65514 26.8213 6.29152 27.105C5.9279 27.3887 5.48348 27.5294 4.95826 27.5294H0L10.5921 0.0314109H17.0879L27.68 27.5294V27.5272ZM10.1028 17.0141H17.575L15.0588 9.48337C14.895 9.0053 14.7042 8.44234 14.4864 7.79449C14.2665 7.14663 14.0488 6.44516 13.8378 5.69008C13.6358 6.45857 13.4315 7.16897 13.2183 7.82353C13.005 8.47808 12.8053 9.04328 12.6167 9.52135L10.1006 17.0141H10.1028Z" fill="#EEF2F4"/>
<path id="Vector_2" d="M38.2315 17.059V27.476H31.848V17.059L21.8776 0.0807608H27.5048C28.0592 0.0807608 28.4991 0.210332 28.8268 0.465005C29.1523 0.721913 29.4171 1.05254 29.6191 1.45242L33.509 9.42549C33.8232 10.0644 34.1128 10.6542 34.3776 11.1926C34.6425 11.7332 34.8737 12.2649 35.0757 12.7921C35.2665 12.2537 35.4932 11.7131 35.7558 11.1747C36.0206 10.6363 36.3035 10.0532 36.6042 9.42549L40.4559 1.45242C40.5322 1.28934 40.6377 1.12626 40.7679 0.963182C40.9003 0.800102 41.053 0.65266 41.2213 0.520855C41.3896 0.38905 41.5872 0.284053 41.8071 0.201396C42.0271 0.118739 42.2695 0.0785272 42.5344 0.0785272H48.1997L38.2293 17.0568L38.2315 17.059Z" fill="#EEF2F4"/>
<path id="Vector_3" d="M70.65 0.0426992V2.3437C70.65 2.66986 70.5961 2.99155 70.4884 3.30654C70.3806 3.62153 70.2325 3.91642 70.044 4.19343L57.0861 22.6238H70.2325V27.5296H48.9383V25.0767C48.9383 24.7885 48.9899 24.5003 49.0909 24.2188C49.1919 23.9351 49.3311 23.6737 49.5084 23.4369L62.5045 4.94852H50.0022V0.0449328H70.65V0.0426992Z" fill="#EEF2F4"/>
<path id="Vector_4" d="M98.9784 13.8194C98.9784 15.7764 98.6395 17.597 97.9616 19.2792C97.2837 20.9637 96.3298 22.4291 95.0975 23.6735C93.8653 24.9178 92.3839 25.8918 90.6488 26.5977C88.9138 27.3037 86.9902 27.6567 84.8758 27.6567C82.7614 27.6567 80.8356 27.3037 79.096 26.5977C77.3542 25.8918 75.8638 24.9178 74.6271 23.6735C73.3903 22.4291 72.4319 20.9637 71.7541 19.2792C71.0762 17.597 70.7373 15.7764 70.7373 13.8194C70.7373 11.8624 71.0762 10.044 71.7541 8.35955C72.4319 6.67513 73.3881 5.21411 74.6271 3.97648C75.8661 2.73886 77.3542 1.76708 79.096 1.05891C80.8356 0.352968 82.7636 0 84.8758 0C86.9879 0 88.9138 0.357436 90.6488 1.06784C92.3839 1.78048 93.8653 2.75449 95.0975 3.99212C96.3276 5.23198 97.2837 6.693 97.9616 8.37518C98.6395 10.0596 98.9784 11.8736 98.9784 13.8172V13.8194ZM92.5253 13.8194C92.5253 12.4835 92.3502 11.2771 92.0023 10.207C91.6544 9.13697 91.1538 8.22997 90.5007 7.48606C89.8475 6.74438 89.0484 6.17472 88.1035 5.77707C87.1585 5.38165 86.0834 5.18283 84.8758 5.18283C83.6682 5.18283 82.5729 5.38165 81.6212 5.77707C80.6695 6.17248 79.8682 6.74214 79.215 7.48606C78.5618 8.22997 78.0613 9.13697 77.7134 10.207C77.3655 11.2771 77.1926 12.4835 77.1926 13.8194C77.1926 15.1553 77.3655 16.3795 77.7134 17.4518C78.0613 18.5219 78.5618 19.4289 79.215 20.1728C79.8682 20.9145 80.6695 21.4819 81.6212 21.8729C82.5729 22.2638 83.6592 22.4582 84.8758 22.4582C86.0923 22.4582 87.1585 22.2638 88.1035 21.8729C89.0484 21.4819 89.8475 20.9167 90.5007 20.1728C91.1538 19.4311 91.6544 18.5241 92.0023 17.4518C92.3502 16.3818 92.5253 15.1709 92.5253 13.8194Z" fill="#EEF2F4"/>
<path id="Vector_5" d="M106.796 17.3424V27.5248H100.381V0H109.373C111.371 0 113.077 0.205526 114.489 0.614344C115.898 1.02316 117.05 1.59506 117.941 2.32557C118.832 3.05608 119.481 3.9184 119.887 4.91252C120.291 5.90887 120.493 6.99012 120.493 8.16296C120.493 9.05878 120.372 9.90099 120.134 10.6941C119.894 11.4871 119.534 12.2221 119.061 12.8945C118.587 13.5692 118.006 14.1701 117.317 14.6996C116.628 15.229 115.833 15.6647 114.935 16.002C115.366 16.2164 115.768 16.4801 116.141 16.795C116.513 17.11 116.839 17.4943 117.117 17.9478L123 27.5271H117.193C116.118 27.5271 115.346 27.125 114.879 26.3185L110.287 18.3276C110.085 17.9746 109.847 17.7244 109.575 17.5725C109.304 17.4206 108.92 17.3446 108.428 17.3446H106.796V17.3424ZM106.796 12.9414H109.375C110.249 12.9414 110.992 12.832 111.607 12.6108C112.219 12.3896 112.722 12.0858 113.115 11.6949C113.505 11.3039 113.791 10.8482 113.968 10.3254C114.145 9.8027 114.235 9.23973 114.235 8.63433C114.235 7.42574 113.838 6.48077 113.048 5.79941C112.255 5.12028 111.032 4.77848 109.375 4.77848H106.796V12.9392V12.9414Z" fill="#EEF2F4"/>
</g>
</svg>
