<svg width="151" height="40" viewBox="0 0 151 40" fill="none" xmlns="http://www.w3.org/2000/svg">
<g id="Layer_1" clip-path="url(#clip0_0_140)">
<path id="Vector" d="M68.3932 24.1118H64.1026C63.6232 24.1118 63.2261 24.0004 62.9162 23.7728C62.6062 23.5452 62.3883 23.2595 62.2721 22.9059L60.8629 18.7073H51.7925L50.3833 22.9059C50.2719 23.2159 50.0637 23.4919 49.744 23.7389C49.4293 23.9859 49.0418 24.1118 48.5818 24.1118H44.2621L53.4971 0.0242163H59.1631L68.3981 24.1069L68.3932 24.1118ZM53.071 14.901H59.5844L57.3906 8.30522C57.2502 7.88391 57.0807 7.39479 56.8919 6.82336C56.6981 6.25676 56.5093 5.64174 56.3253 4.98313C56.1509 5.65627 55.9717 6.27613 55.7829 6.85241C55.5989 7.42385 55.4245 7.92265 55.2599 8.33912L53.0661 14.901H53.071Z" fill="white"/>
<path id="Vector_2" d="M77.5896 14.9397V24.0633H72.0253V14.9397L63.3327 0.0678057H68.2383C68.7226 0.0678057 69.1052 0.179188 69.3909 0.406794C69.6766 0.629558 69.9042 0.92012 70.0834 1.27364L73.4733 8.2568C73.7493 8.81855 74.0011 9.33188 74.2336 9.80646C74.466 10.281 74.6646 10.7459 74.8438 11.206C75.0084 10.7363 75.207 10.2617 75.4394 9.78709C75.667 9.31735 75.9188 8.80402 76.1803 8.2568L79.5363 1.27364C79.6041 1.1332 79.6961 0.987917 79.8075 0.847479C79.9237 0.707041 80.0545 0.576288 80.2046 0.460064C80.3499 0.343839 80.5242 0.251828 80.7131 0.179188C80.9068 0.106547 81.115 0.0726484 81.3475 0.0726484H86.287L77.5944 14.9446L77.5896 14.9397Z" fill="white"/>
<path id="Vector_3" d="M105.852 0.0387461V2.05331C105.852 2.33902 105.803 2.6199 105.711 2.89593C105.619 3.17197 105.488 3.42863 105.324 3.67077L94.0257 19.8115H105.488V24.1069H86.9263V21.9616C86.9263 21.7098 86.9699 21.458 87.057 21.211C87.1442 20.964 87.2653 20.7316 87.4202 20.5233L98.7473 4.32937H87.8512V0.0387461H105.852Z" fill="white"/>
<path id="Vector_4" d="M130.065 12.1019C130.065 13.8162 129.77 15.4094 129.179 16.8865C128.588 18.3635 127.755 19.642 126.685 20.7364C125.61 21.826 124.322 22.6783 122.806 23.2982C121.295 23.9181 119.614 24.228 117.774 24.228C115.934 24.228 114.254 23.9181 112.733 23.2982C111.212 22.6783 109.915 21.826 108.84 20.7364C107.76 19.6468 106.927 18.3635 106.336 16.8865C105.745 15.4143 105.45 13.8162 105.45 12.1019C105.45 10.3876 105.745 8.79433 106.336 7.31731C106.927 5.84029 107.76 4.56182 108.84 3.47705C109.919 2.39229 111.217 1.53998 112.733 0.924954C114.249 0.30509 115.929 0 117.774 0C119.619 0 121.295 0.309932 122.806 0.93464C124.317 1.55935 125.61 2.41166 126.685 3.49642C127.755 4.58119 128.588 5.85966 129.179 7.33668C129.77 8.8137 130.065 10.4021 130.065 12.1019ZM124.438 12.1019C124.438 10.93 124.283 9.87425 123.983 8.93961C123.678 8.00013 123.242 7.20593 122.675 6.557C122.108 5.90808 121.411 5.40929 120.588 5.06061C119.765 4.71194 118.825 4.54245 117.774 4.54245C116.723 4.54245 115.765 4.71678 114.936 5.06061C114.108 5.40929 113.406 5.90808 112.84 6.557C112.273 7.21077 111.832 8.00497 111.532 8.93961C111.227 9.87909 111.077 10.9348 111.077 12.1019C111.077 13.269 111.227 14.3441 111.532 15.2835C111.837 16.223 112.273 17.0172 112.84 17.6661C113.406 18.3151 114.108 18.8139 114.936 19.1528C115.765 19.4967 116.714 19.6662 117.774 19.6662C118.835 19.6662 119.765 19.4967 120.588 19.1528C121.411 18.809 122.108 18.3151 122.675 17.6661C123.247 17.0172 123.682 16.223 123.983 15.2835C124.288 14.3441 124.438 13.2835 124.438 12.1019Z" fill="white"/>
<path id="Vector_5" d="M136.879 15.1915V24.1118H131.285V0H139.126C140.869 0 142.356 0.17918 143.586 0.537539C144.816 0.895898 145.818 1.3947 146.593 2.03393C147.373 2.67317 147.934 3.42863 148.288 4.30031C148.642 5.172 148.816 6.12116 148.816 7.14781C148.816 7.93233 148.709 8.66842 148.501 9.36577C148.293 10.0583 147.978 10.7024 147.566 11.2932C147.155 11.884 146.646 12.4118 146.046 12.8719C145.445 13.3368 144.753 13.7145 143.968 14.0148C144.341 14.2036 144.695 14.4361 145.019 14.7073C145.344 14.9833 145.629 15.3174 145.872 15.7194L151 24.1069H145.939C145.005 24.1069 144.332 23.7534 143.925 23.0464L139.92 16.0487C139.746 15.7388 139.537 15.5208 139.3 15.3852C139.063 15.2545 138.729 15.1867 138.298 15.1867H136.874L136.879 15.1915ZM136.879 11.3367H139.126C139.886 11.3367 140.535 11.2399 141.068 11.0462C141.6 10.8525 142.041 10.5861 142.385 10.2423C142.724 9.89846 142.976 9.50136 143.126 9.04131C143.281 8.58609 143.358 8.0873 143.358 7.55944C143.358 6.49889 143.014 5.67079 142.322 5.07998C141.634 4.48433 140.564 4.18409 139.121 4.18409H136.874V11.3319L136.879 11.3367Z" fill="white"/>
<path id="Vector_6" d="M27.5985 7.9614L30.4072 0.585976C30.3733 0.552077 30.3491 0.513335 30.3104 0.484279C29.9617 0.222774 29.5791 0.0823355 29.0658 0.0823355H25.395C24.9301 0.0823355 24.7752 0.169504 24.4168 0.411639C24.0585 0.648931 23.8454 1.14289 23.7485 1.4964L20.0729 15.5257C19.8405 16.3586 19.6613 17.2352 19.0802 17.2206C18.6056 17.2061 18.6056 16.8235 18.1359 15.7049C17.8259 14.9785 13.574 3.5158 13.574 3.5158C13.3755 2.97827 12.804 1.67558 12.3585 1.17194C11.9372 0.697357 11.1139 0.135605 9.86454 0.121077L3.81601 0.0968636C3.81601 0.0968636 2.77483 0.0968636 2.26151 0.329313C1.78208 0.542391 1.2736 1.19615 1.2736 1.19615C1.2736 1.19615 0.605306 1.90319 0.242104 2.34387C-0.280906 2.97827 0.0580819 3.53518 1.25423 3.53518C2.5666 3.53518 5.60296 3.5497 5.60296 3.5497C5.60296 3.5497 6.94439 3.49643 7.33181 3.82574C7.5352 4.00007 7.79186 4.03397 8.05337 4.67321C9.71925 8.68296 15.6903 22.0875 15.9954 22.7558C16.6007 24.0924 17.8743 24.1166 17.8743 24.1166L20.4555 24.0924C21.2449 24.0924 22.4507 23.7534 22.872 22.6396L26.8818 8.31007C27.0077 7.91297 27.3612 7.7919 27.6033 7.97108" fill="white"/>
<path id="Vector_7" d="M30.8188 1.42858L27.981 8.88633L28.4217 10.3876L31.2546 2.9395C30.9931 2.03392 30.8285 1.46248 30.8285 1.46248C30.8285 1.45279 30.8236 1.43827 30.8188 1.42858Z" fill="#76BC21"/>
<path id="Vector_8" d="M28.7461 11.4772L29.1723 12.9251L32.0004 5.49644C31.8503 4.97343 31.705 4.48916 31.5742 4.03879L28.7461 11.4772Z" fill="#76BC21"/>
<path id="Vector_9" d="M29.492 14.0147L29.8504 15.2303L32.6736 7.81125C32.5526 7.39962 32.4364 6.98799 32.3201 6.59089L29.4968 14.0147H29.492Z" fill="#76BC21"/>
<path id="Vector_10" d="M35.0804 15.9906L32.383 23.0803C32.6009 23.3708 32.8334 23.5888 33.0706 23.7389L35.5985 17.0947C35.4436 16.993 35.3661 16.8429 35.2838 16.6346C35.2547 16.5523 35.1821 16.3247 35.0804 15.9906Z" fill="#76BC21"/>
<path id="Vector_11" d="M31.5937 21.1432L31.9134 22.2279C31.923 22.2521 31.9327 22.2715 31.9424 22.2957L34.7512 14.9155C34.6495 14.5668 34.5332 14.1697 34.4073 13.7484L31.5937 21.148V21.1432Z" fill="#76BC21"/>
<path id="Vector_12" d="M30.8915 18.7509L31.2741 20.0536L34.0877 12.654C33.9666 12.2375 33.8359 11.7968 33.7051 11.3464L30.8867 18.7509H30.8915Z" fill="#76BC21"/>
<path id="Vector_13" d="M30.1699 16.315L30.567 17.6662L33.3855 10.2617C33.2547 9.81131 33.1191 9.36094 32.9884 8.90573L30.1699 16.3199V16.315Z" fill="#76BC21"/>
<path id="Vector_14" d="M48.0201 0.542366C47.7247 0.0193555 46.3445 0.121052 46.3445 0.121052C46.3445 0.121052 38.9062 -1.51827e-05 37.9279 0.0338837C37.1822 0.0629398 36.5139 0.140423 35.9812 0.450355C35.4533 0.760288 35.032 1.63681 34.6688 2.39712C34.4606 2.82812 33.8552 3.632 35.2693 3.632C35.4727 3.632 39.7488 3.59326 40.5285 3.632C40.7803 3.64653 41.3469 3.87898 41.0805 4.47948C41.0805 4.47948 36.9691 15.6031 36.6592 16.3247C36.6011 16.4555 36.5429 16.6007 36.4751 16.7363L33.7051 24.0149C33.9182 24.0682 34.1119 24.0875 34.2669 24.0875L36.8383 24.1118C36.8383 24.1118 38.0926 24.0875 38.6108 23.5936C39.2016 23.0318 39.3856 22.504 39.4776 22.2715L47.7441 1.6804C47.7441 1.6804 48.1509 0.784501 48.0201 0.542366Z" fill="#76BC21"/>
<path id="Vector_15" d="M46.2477 36.0441V39.3275H44.6835V30.9254H47.2453C47.8167 30.9254 48.3107 30.9835 48.7175 31.0998C49.1243 31.2208 49.4632 31.3855 49.7247 31.5986C49.9863 31.8116 50.18 32.0683 50.301 32.3637C50.4221 32.6591 50.4851 32.9884 50.4851 33.3419C50.4851 33.6228 50.4415 33.894 50.3591 34.1458C50.2768 34.3976 50.1557 34.6252 50.0008 34.8335C49.8458 35.0369 49.6521 35.2209 49.4197 35.3759C49.1872 35.5308 48.9257 35.6567 48.6303 35.7487C48.8288 35.8601 48.9983 36.0248 49.1436 36.233L51.2454 39.3372H49.841C49.7054 39.3372 49.5892 39.3081 49.4971 39.2549C49.4003 39.2016 49.3228 39.1241 49.255 39.0224L47.4874 36.3299C47.4196 36.2282 47.347 36.1555 47.2695 36.1168C47.192 36.0732 47.071 36.0538 46.916 36.0538H46.2477V36.0441ZM46.2477 34.9255H47.2259C47.5213 34.9255 47.778 34.8867 47.9959 34.8141C48.2138 34.7415 48.393 34.6398 48.5383 34.509C48.6836 34.3783 48.7853 34.2233 48.8531 34.049C48.9257 33.8698 48.9596 33.6761 48.9596 33.463C48.9596 33.0368 48.8192 32.7075 48.5383 32.4799C48.2574 32.2523 47.8264 32.1361 47.2501 32.1361H46.2525V34.9255H46.2477Z" fill="#76BC21"/>
<path id="Vector_16" d="M57.1727 30.9254V32.17H53.4487V34.4993H56.3834V35.7003H53.4487V38.0781H57.1727V39.3275H51.8748V30.9254H57.1727Z" fill="#76BC21"/>
<path id="Vector_17" d="M59.1486 30.9351C59.197 30.94 59.2357 30.9545 59.2745 30.969C59.3132 30.9884 59.3471 31.0126 59.381 31.0465C59.4149 31.0804 59.4536 31.124 59.4972 31.1772L63.9089 36.7948C63.8944 36.6592 63.8847 36.5284 63.875 36.3977C63.8702 36.2669 63.8653 36.1458 63.8653 36.0345V30.9254H65.2407V39.3275H64.4319C64.306 39.3275 64.2043 39.3081 64.122 39.2694C64.0397 39.2306 63.9622 39.1628 63.8847 39.0611L59.4924 33.463C59.5021 33.5889 59.5118 33.71 59.5166 33.831C59.5214 33.9521 59.5263 34.0635 59.5263 34.1652V39.3275H58.151V30.9254H58.9694C59.0372 30.9254 59.0953 30.9254 59.1437 30.9351" fill="#76BC21"/>
<path id="Vector_18" d="M72.4902 30.9254V32.2087H69.9623V39.3275H68.3981V32.2087H65.8606V30.9254H72.4902Z" fill="#76BC21"/>
<path id="Vector_19" d="M82.3694 39.3275H81.1587C81.0231 39.3275 80.9117 39.2936 80.8245 39.2258C80.7374 39.158 80.6744 39.0757 80.6357 38.974L80.0061 37.2597H76.5242L75.8947 38.974C75.8656 39.0611 75.8027 39.1435 75.7107 39.2161C75.6186 39.2888 75.5073 39.3275 75.3765 39.3275H74.161L77.4637 30.9254H79.0618L82.3645 39.3275H82.3694ZM76.931 36.1555H79.609L78.5872 33.3613C78.5388 33.2354 78.4904 33.0901 78.4322 32.9206C78.3741 32.7511 78.3209 32.5671 78.2676 32.3734C78.2143 32.5719 78.1611 32.756 78.1078 32.9255C78.0545 33.0949 78.0061 33.2451 77.9528 33.371L76.931 36.1555Z" fill="#76BC21"/>
<path id="Vector_20" d="M90.5099 37.3468C90.5971 37.3468 90.6697 37.3807 90.7327 37.4437L91.3477 38.112C91.0039 38.5333 90.5874 38.8577 90.0886 39.0805C89.5898 39.3033 88.9942 39.4195 88.2968 39.4195C87.6721 39.4195 87.1104 39.313 86.6116 39.0999C86.1128 38.8868 85.6866 38.5914 85.3379 38.2088C84.9844 37.8311 84.7132 37.3759 84.5292 36.848C84.3403 36.3202 84.2483 35.7439 84.2483 35.124C84.2483 34.5042 84.3549 33.9134 84.5631 33.3903C84.7713 32.8673 85.0667 32.4121 85.4445 32.0344C85.8222 31.6567 86.2774 31.3613 86.8101 31.1482C87.338 30.9351 87.9239 30.8334 88.5632 30.8334C89.2024 30.8334 89.7302 30.9351 90.2 31.1336C90.6649 31.3322 91.0668 31.5985 91.401 31.9279L90.878 32.6543C90.8489 32.7027 90.8053 32.7414 90.7569 32.7753C90.7085 32.8092 90.6407 32.8286 90.5583 32.8286C90.476 32.8286 90.3792 32.7947 90.2872 32.7221C90.1951 32.6543 90.0741 32.5768 89.9336 32.4944C89.7884 32.4121 89.6092 32.3395 89.3913 32.2668C89.1733 32.199 88.8925 32.1603 88.5583 32.1603C88.1612 32.1603 87.798 32.2281 87.4687 32.3685C87.1394 32.5041 86.8537 32.7027 86.6164 32.9593C86.3791 33.216 86.1902 33.5259 86.0595 33.894C85.9239 34.262 85.8609 34.6737 85.8609 35.1289C85.8609 35.5841 85.9287 36.0199 86.0595 36.388C86.1951 36.756 86.3743 37.0659 86.6019 37.3178C86.8295 37.5696 87.1007 37.7633 87.4106 37.894C87.7205 38.0296 88.0547 38.0926 88.4082 38.0926C88.6213 38.0926 88.815 38.0829 88.9845 38.0587C89.1588 38.0345 89.3138 38.0006 89.4591 37.9473C89.6043 37.8989 89.7399 37.8311 89.8707 37.7536C90.0014 37.6761 90.1273 37.5744 90.2581 37.4582C90.2968 37.4243 90.3356 37.3952 90.3792 37.3759C90.4228 37.3565 90.4663 37.342 90.5196 37.342" fill="#76BC21"/>
<path id="Vector_21" d="M99.5415 39.3275H98.3308C98.1953 39.3275 98.0839 39.2936 97.9967 39.2258C97.9095 39.158 97.8466 39.0757 97.8078 38.974L97.1783 37.2597H93.6964L93.0668 38.974C93.0378 39.0611 92.9748 39.1435 92.8828 39.2161C92.7908 39.2888 92.6794 39.3275 92.5487 39.3275H91.3332L94.6359 30.9254H96.234L99.5367 39.3275H99.5415ZM94.1032 36.1555H96.7812L95.7594 33.3613C95.711 33.2354 95.6625 33.0901 95.6044 32.9206C95.5463 32.7511 95.493 32.5671 95.4398 32.3734C95.3865 32.5719 95.3332 32.756 95.28 32.9255C95.2267 33.0949 95.1783 33.2451 95.125 33.371L94.1032 36.1555Z" fill="#76BC21"/>
<path id="Vector_22" d="M101.653 36.0441V39.3275H100.089V30.9254H102.65C103.222 30.9254 103.716 30.9835 104.123 31.0998C104.529 31.2208 104.868 31.3855 105.13 31.5986C105.391 31.8116 105.585 32.0683 105.706 32.3637C105.827 32.6591 105.89 32.9884 105.89 33.3419C105.89 33.6228 105.847 33.894 105.764 34.1458C105.682 34.3976 105.561 34.6252 105.406 34.8335C105.251 35.0369 105.057 35.2209 104.825 35.3759C104.592 35.5308 104.331 35.6567 104.035 35.7487C104.234 35.8601 104.404 36.0248 104.549 36.233L106.651 39.3372H105.246C105.111 39.3372 104.994 39.3081 104.902 39.2549C104.805 39.2016 104.728 39.1241 104.66 39.0224L102.893 36.3299C102.825 36.2282 102.752 36.1555 102.675 36.1168C102.597 36.0732 102.476 36.0538 102.321 36.0538H101.653V36.0441ZM101.653 34.9255H102.631C102.927 34.9255 103.183 34.8867 103.401 34.8141C103.619 34.7415 103.798 34.6398 103.943 34.509C104.089 34.3783 104.19 34.2233 104.258 34.049C104.331 33.8698 104.365 33.6761 104.365 33.463C104.365 33.0368 104.224 32.7075 103.943 32.4799C103.663 32.2523 103.232 32.1361 102.655 32.1361H101.658V34.9255H101.653Z" fill="#76BC21"/>
</g>
<defs>
<clipPath id="clip0_0_140">
<rect width="150.33" height="39.2446" fill="white" transform="scale(1.00446)"/>
</clipPath>
</defs>
</svg>
