<svg width="20" height="20" viewBox="0 0 20 20" fill="none" xmlns="http://www.w3.org/2000/svg">
<g id="ic_share">
<path id="Vector (Stroke)" fill-rule="evenodd" clip-rule="evenodd" d="M12.5 4.75C12.0858 4.75 11.75 5.08579 11.75 5.5C11.75 5.91421 12.0858 6.25 12.5 6.25C12.9142 6.25 13.25 5.91421 13.25 5.5C13.25 5.08579 12.9142 4.75 12.5 4.75ZM10.25 5.5C10.25 4.25736 11.2574 3.25 12.5 3.25C13.7426 3.25 14.75 4.25736 14.75 5.5C14.75 6.74264 13.7426 7.75 12.5 7.75C12.1526 7.75 11.8237 7.67129 11.5299 7.53072L9.06066 10L11.5299 12.4693C11.8237 12.3287 12.1526 12.25 12.5 12.25C13.7426 12.25 14.75 13.2574 14.75 14.5C14.75 15.7426 13.7426 16.75 12.5 16.75C11.2574 16.75 10.25 15.7426 10.25 14.5C10.25 14.1526 10.3287 13.8237 10.4693 13.5299L8.29551 11.3562C7.88474 11.8992 7.23334 12.25 6.5 12.25C5.25736 12.25 4.25 11.2426 4.25 10C4.25 8.75736 5.25736 7.75 6.5 7.75C7.23334 7.75 7.88474 8.10084 8.29551 8.64383L10.4693 6.47006C10.3287 6.17634 10.25 5.84736 10.25 5.5ZM6.5 9.25C6.08579 9.25 5.75 9.58579 5.75 10C5.75 10.4142 6.08579 10.75 6.5 10.75C6.91421 10.75 7.25 10.4142 7.25 10C7.25 9.58579 6.91421 9.25 6.5 9.25ZM12.5 13.75C12.0858 13.75 11.75 14.0858 11.75 14.5C11.75 14.9142 12.0858 15.25 12.5 15.25C12.9142 15.25 13.25 14.9142 13.25 14.5C13.25 14.0858 12.9142 13.75 12.5 13.75Z" fill="#528116"/>
</g>
</svg>
