<svg width="32" height="33" viewBox="0 0 32 33" fill="none" xmlns="http://www.w3.org/2000/svg">
<path fill-rule="evenodd" clip-rule="evenodd" d="M16.0004 4.5C17.2744 4.5 18.6187 5.10991 19.327 6.40891L28.5858 23.3883C29.9297 25.8528 27.9012 28.5 25.2591 28.5H6.74159C4.09953 28.5 2.07108 25.8529 3.41497 23.3883L12.6737 6.40891C13.3821 5.10991 14.7263 4.5 16.0004 4.5ZM16.0004 6.5C15.3302 6.5 14.7302 6.8152 14.4297 7.3664L5.17088 24.3458C4.69448 25.2195 5.31336 26.5 6.74159 26.5H25.2591C26.6874 26.5 27.3063 25.2195 26.8299 24.3458L17.5711 7.36639C17.2705 6.81519 16.6705 6.5 16.0004 6.5ZM16.0004 12.5C16.5527 12.5 17.0004 12.9477 17.0004 13.5V18.5C17.0004 19.0523 16.5527 19.5 16.0004 19.5C15.4481 19.5 15.0004 19.0523 15.0004 18.5V13.5C15.0004 12.9477 15.4481 12.5 16.0004 12.5Z" fill="white"/>
<path d="M17.0004 22.5C17.0004 23.0523 16.5527 23.5 16.0004 23.5C15.4481 23.5 15.0004 23.0523 15.0004 22.5C15.0004 21.9477 15.4481 21.5 16.0004 21.5C16.5527 21.5 17.0004 21.9477 17.0004 22.5Z" fill="white"/>
</svg>
