<svg width="56" height="56" viewBox="0 0 56 56" fill="none" xmlns="http://www.w3.org/2000/svg">
<circle cx="40" cy="40" r="16" fill="#B9DD8B" fill-opacity="0.3"/>
<path d="M23.8735 43.7682L37.905 26.9636H28.0332L29.9092 12.1201L17.3046 30.3737H25.7944L23.8735 43.7682ZM23.7434 32.1687H16.2546C15.7688 32.1687 15.4043 31.9474 15.1608 31.5048C14.9178 31.0619 14.9502 30.6236 15.2582 30.19L29.456 9.57558C29.6473 9.32747 29.8865 9.15558 30.1735 9.05991C30.4609 8.96386 30.7481 8.9833 31.0351 9.11825C31.3224 9.22286 31.5499 9.4175 31.7176 9.70216C31.8848 9.98722 31.9445 10.2711 31.8966 10.5538L30.0708 25.1687H38.9911C39.5648 25.1687 39.9587 25.4094 40.173 25.8908C40.3873 26.3727 40.3209 26.8304 39.9741 27.264L24.255 46.1331C24.0465 46.3684 23.7932 46.5229 23.4949 46.5968C23.197 46.6703 22.924 46.6349 22.6759 46.4907C22.3974 46.3763 22.1917 46.1974 22.0587 45.954C21.9257 45.7106 21.8682 45.4305 21.8861 45.114L23.7434 32.1687Z" fill="#528116"/>
</svg>
