<svg width="17" height="16" viewBox="0 0 17 16" fill="none" xmlns="http://www.w3.org/2000/svg">
<path fill-rule="evenodd" clip-rule="evenodd" d="M3.75 14C3.75 13.5858 4.08579 13.25 4.5 13.25L12.5 13.25C12.9142 13.25 13.25 13.5858 13.25 14C13.25 14.4142 12.9142 14.75 12.5 14.75L4.5 14.75C4.08579 14.75 3.75 14.4142 3.75 14ZM4.46967 6.96967C4.76256 6.67678 5.23744 6.67678 5.53033 6.96967L7.75 9.18934L7.75 2C7.75 1.58579 8.08579 1.25 8.5 1.25C8.91421 1.25 9.25 1.58579 9.25 2L9.25 9.18934L11.4697 6.96967C11.7626 6.67678 12.2374 6.67678 12.5303 6.96967C12.8232 7.26256 12.8232 7.73744 12.5303 8.03033L9.03033 11.5303C8.73744 11.8232 8.26256 11.8232 7.96967 11.5303L4.46967 8.03033C4.17678 7.73744 4.17678 7.26256 4.46967 6.96967Z" fill="#528116"/>
</svg>
