<svg width="16" height="16" viewBox="0 0 16 16" fill="none" xmlns="http://www.w3.org/2000/svg">
<path fill-rule="evenodd" clip-rule="evenodd" d="M9.06445 1.58265C9.97202 0.675085 11.4435 0.675086 12.351 1.58265C13.2586 2.49022 13.2586 3.96168 12.351 4.86924L7.28398 9.93631C7.00099 10.2193 6.62956 10.3967 6.2316 10.4391L3.16895 10.7648L3.49464 7.7021C3.53696 7.30414 3.7144 6.93271 3.99739 6.64972L9.06445 1.58265ZM11.2904 2.64331C10.9686 2.32153 10.4469 2.32153 10.1251 2.64331L10.0465 2.72194L11.2118 3.88721L11.2904 3.80858C11.6122 3.4868 11.6122 2.96509 11.2904 2.64331ZM10.1511 4.94787L8.98583 3.7826L5.05805 7.71038C5.01762 7.75081 4.99227 7.80387 4.98623 7.86072L4.85691 9.07679L6.07298 8.94747C6.12983 8.94142 6.18289 8.91607 6.22332 8.87565L10.1511 4.94787ZM3.24996 14C3.24996 13.5858 3.58575 13.25 3.99996 13.25H10.5C10.9142 13.25 11.25 13.5858 11.25 14C11.25 14.4142 10.9142 14.75 10.5 14.75H3.99996C3.58575 14.75 3.24996 14.4142 3.24996 14Z" fill="#528116"/>
</svg>
