<svg width="20" height="20" viewBox="0 0 20 20" fill="none" xmlns="http://www.w3.org/2000/svg">
<path fill-rule="evenodd" clip-rule="evenodd" d="M6.5 4.75C5.5335 4.75 4.75 5.5335 4.75 6.5C4.75 7.4665 5.5335 8.25 6.5 8.25C7.4665 8.25 8.25 7.4665 8.25 6.5C8.25 5.5335 7.4665 4.75 6.5 4.75ZM3.25 6.5C3.25 4.70507 4.70507 3.25 6.5 3.25C8.03679 3.25 9.32445 4.31665 9.66303 5.75H16C16.4142 5.75 16.75 6.08579 16.75 6.5C16.75 6.91421 16.4142 7.25 16 7.25H9.66303C9.32445 8.68335 8.03679 9.75 6.5 9.75C4.70507 9.75 3.25 8.29493 3.25 6.5ZM13.5 11.75C12.5335 11.75 11.75 12.5335 11.75 13.5C11.75 14.4665 12.5335 15.25 13.5 15.25C14.4665 15.25 15.25 14.4665 15.25 13.5C15.25 12.5335 14.4665 11.75 13.5 11.75ZM10.337 12.75C10.6755 11.3167 11.9632 10.25 13.5 10.25C15.2949 10.25 16.75 11.7051 16.75 13.5C16.75 15.2949 15.2949 16.75 13.5 16.75C11.9632 16.75 10.6755 15.6834 10.337 14.25L4 14.25C3.58579 14.25 3.25 13.9142 3.25 13.5C3.25 13.0858 3.58579 12.75 4 12.75L10.337 12.75Z" fill="#528116"/>
</svg>
