<svg width="20" height="20" viewBox="0 0 20 20" fill="none" xmlns="http://www.w3.org/2000/svg">
<path fill-rule="evenodd" clip-rule="evenodd" d="M2.25 10C2.25 5.71979 5.71979 2.25 10 2.25C14.2802 2.25 17.75 5.71979 17.75 10C17.75 14.2802 14.2802 17.75 10 17.75C5.71979 17.75 2.25 14.2802 2.25 10ZM3.87707 8.73997C3.79375 9.14697 3.75 9.56837 3.75 10C3.75 10.4316 3.79375 10.853 3.87707 11.26C3.91707 11.2534 3.95813 11.25 4 11.25H6.52784C6.44599 10.4187 6.44599 9.58128 6.52784 8.75H4C3.95813 8.75 3.91707 8.74657 3.87707 8.73997ZM4.38595 7.25H6.76646C6.96202 6.36455 7.25319 5.49503 7.63997 4.657L7.89008 4.1151C6.35491 4.66558 5.09771 5.7997 4.38595 7.25ZM9.70469 3.75685C9.69763 3.77615 9.68973 3.79531 9.68097 3.81429L9.00191 5.28559C8.70786 5.92269 8.47644 6.58042 8.30765 7.25H11.6923C11.5236 6.58042 11.2921 5.92269 10.9981 5.28559L10.319 3.81429C10.3103 3.79531 10.3024 3.77615 10.2953 3.75685C10.1974 3.7523 10.099 3.75 10 3.75C9.90101 3.75 9.80256 3.7523 9.70469 3.75685ZM12.1099 4.1151L12.36 4.65701C12.7468 5.49503 13.038 6.36455 13.2335 7.25H15.6141C14.9023 5.7997 13.6451 4.66558 12.1099 4.1151ZM16.1229 8.73997C16.0829 8.74657 16.0419 8.75 16 8.75H13.4722C13.554 9.58128 13.554 10.4187 13.4722 11.25H16C16.0419 11.25 16.0829 11.2534 16.1229 11.26C16.2062 10.853 16.25 10.4316 16.25 10C16.25 9.56837 16.2062 9.14697 16.1229 8.73997ZM15.6141 12.75H13.2335C13.038 13.6354 12.7468 14.505 12.36 15.343L12.1099 15.8849C13.6451 15.3344 14.9023 14.2003 15.6141 12.75ZM10.2953 16.2431C10.3024 16.2239 10.3103 16.2047 10.319 16.1857L10.9981 14.7144C11.2921 14.0773 11.5236 13.4196 11.6923 12.75H8.30765C8.47644 13.4196 8.70786 14.0773 9.00191 14.7144L9.68097 16.1857C9.68973 16.2047 9.69763 16.2239 9.70469 16.2431C9.80255 16.2477 9.90101 16.25 10 16.25C10.099 16.25 10.1974 16.2477 10.2953 16.2431ZM7.89008 15.8849L7.63997 15.343C7.25319 14.505 6.96202 13.6354 6.76646 12.75H4.38595C5.09771 14.2003 6.35491 15.3344 7.89008 15.8849ZM8.03608 11.25H11.9639C12.0568 10.4193 12.0568 9.58069 11.9639 8.75H8.03608C7.94324 9.58069 7.94324 10.4193 8.03608 11.25Z" fill="white"/>
</svg>
