<svg width="20" height="21" viewBox="0 0 20 21" fill="none" xmlns="http://www.w3.org/2000/svg">
<path fill-rule="evenodd" clip-rule="evenodd" d="M2.25 10.5C2.25 6.21979 5.71979 2.75 10 2.75C14.2802 2.75 17.75 6.21979 17.75 10.5C17.75 14.7802 14.2802 18.25 10 18.25C5.71979 18.25 2.25 14.7802 2.25 10.5ZM3.87707 9.23997C3.79375 9.64697 3.75 10.0684 3.75 10.5C3.75 10.9316 3.79375 11.353 3.87707 11.76C3.91707 11.7534 3.95813 11.75 4 11.75H6.52784C6.44599 10.9187 6.44599 10.0813 6.52784 9.25H4C3.95813 9.25 3.91707 9.24657 3.87707 9.23997ZM4.38595 7.75H6.76646C6.96202 6.86455 7.25319 5.99503 7.63997 5.157L7.89008 4.6151C6.35491 5.16558 5.09771 6.2997 4.38595 7.75ZM9.70469 4.25685C9.69763 4.27615 9.68973 4.29531 9.68097 4.31429L9.00191 5.78559C8.70786 6.42269 8.47644 7.08042 8.30765 7.75H11.6923C11.5236 7.08042 11.2921 6.42269 10.9981 5.78559L10.319 4.31429C10.3103 4.29531 10.3024 4.27615 10.2953 4.25685C10.1974 4.2523 10.099 4.25 10 4.25C9.90101 4.25 9.80256 4.2523 9.70469 4.25685ZM12.1099 4.6151L12.36 5.15701C12.7468 5.99503 13.038 6.86455 13.2335 7.75H15.6141C14.9023 6.2997 13.6451 5.16558 12.1099 4.6151ZM16.1229 9.23997C16.0829 9.24657 16.0419 9.25 16 9.25H13.4722C13.554 10.0813 13.554 10.9187 13.4722 11.75H16C16.0419 11.75 16.0829 11.7534 16.1229 11.76C16.2062 11.353 16.25 10.9316 16.25 10.5C16.25 10.0684 16.2062 9.64697 16.1229 9.23997ZM15.6141 13.25H13.2335C13.038 14.1354 12.7468 15.005 12.36 15.843L12.1099 16.3849C13.6451 15.8344 14.9023 14.7003 15.6141 13.25ZM10.2953 16.7431C10.3024 16.7239 10.3103 16.7047 10.319 16.6857L10.9981 15.2144C11.2921 14.5773 11.5236 13.9196 11.6923 13.25H8.30765C8.47644 13.9196 8.70786 14.5773 9.00191 15.2144L9.68097 16.6857C9.68973 16.7047 9.69763 16.7239 9.70469 16.7431C9.80255 16.7477 9.90101 16.75 10 16.75C10.099 16.75 10.1974 16.7477 10.2953 16.7431ZM7.89008 16.3849L7.63997 15.843C7.25319 15.005 6.96202 14.1354 6.76646 13.25H4.38595C5.09771 14.7003 6.35491 15.8344 7.89008 16.3849ZM8.03608 11.75H11.9639C12.0568 10.9193 12.0568 10.0807 11.9639 9.25H8.03608C7.94324 10.0807 7.94324 10.9193 8.03608 11.75Z" fill="#528116"/>
</svg>
