<svg width="32" height="32" viewBox="0 0 32 32" fill="none" xmlns="http://www.w3.org/2000/svg">
<path d="M16.0128 7.05556C13.9532 7.05556 12.5736 7.94114 11.7247 8.84201C11.3077 9.28463 11.0222 9.72593 10.8395 10.0589C10.7477 10.2262 10.6805 10.3686 10.6347 10.4737C10.6117 10.5263 10.594 10.5698 10.5812 10.6026C10.5748 10.6191 10.5695 10.6329 10.5655 10.6438L10.5602 10.6582L10.5582 10.6637L10.5574 10.6661L10.557 10.6671C10.557 10.6671 10.5567 10.6681 11.5 11L10.5567 10.6681C10.3734 11.1891 10.6471 11.76 11.1681 11.9433C11.6868 12.1258 12.255 11.8553 12.4409 11.3388L12.4438 11.3312C12.4478 11.3209 12.4557 11.3012 12.4679 11.2733C12.4923 11.2173 12.5333 11.1297 12.5929 11.0209C12.7131 10.8018 12.9038 10.507 13.1804 10.2135C13.7187 9.64219 14.5955 9.05556 16.0128 9.05556C17.137 9.05556 17.89 9.35034 18.3785 9.72507C18.8683 10.1008 19.1564 10.6055 19.2733 11.1412C19.5287 12.3118 18.9686 13.3069 18.288 13.5468C16.838 14.0579 15.9318 14.7635 15.45 15.6975C15.0112 16.5482 15.0121 17.4513 15.0127 18.0959L15.0128 18.1667C15.0128 18.719 15.4605 19.1667 16.0128 19.1667C16.5651 19.1667 17.0128 18.719 17.0128 18.1667C17.0128 17.436 17.0307 16.996 17.2275 16.6144C17.3976 16.2845 17.7952 15.8411 18.9529 15.433C20.88 14.7537 21.6237 12.5316 21.2273 10.7148C21.0182 9.75685 20.4914 8.8253 19.5959 8.13826C18.699 7.45017 17.4963 7.05556 16.0128 7.05556Z" fill="white"/>
<path d="M16 21C15.4477 21 15 21.4477 15 22C15 22.5523 15.4477 23 16 23C16.5523 23 17 22.5523 17 22C17 21.4477 16.5523 21 16 21Z" fill="white"/>
<path fill-rule="evenodd" clip-rule="evenodd" d="M16 2C8.26801 2 2 8.26801 2 16C2 23.732 8.26801 30 16 30C23.732 30 30 23.732 30 16C30 8.26801 23.732 2 16 2ZM4 16C4 9.37258 9.37258 4 16 4C22.6274 4 28 9.37258 28 16C28 22.6274 22.6274 28 16 28C9.37258 28 4 22.6274 4 16Z" fill="white"/>
</svg>
