<svg width="16" height="17" viewBox="0 0 16 17" fill="none" xmlns="http://www.w3.org/2000/svg">
<path fill-rule="evenodd" clip-rule="evenodd" d="M1.25 8.5C1.25 4.77208 4.27208 1.75 8 1.75C11.7279 1.75 14.75 4.77208 14.75 8.5C14.75 12.2279 11.7279 15.25 8 15.25C4.27208 15.25 1.25 12.2279 1.25 8.5ZM8 3.25C5.10051 3.25 2.75 5.6005 2.75 8.5C2.75 11.3995 5.1005 13.75 8 13.75C10.8995 13.75 13.25 11.3995 13.25 8.5C13.25 5.60051 10.8995 3.25 8 3.25ZM5.89369 5.00081C6.33012 4.59972 7.01173 4.25 8.0059 4.25C8.74241 4.25 9.36236 4.44653 9.83522 4.8093C10.3071 5.17129 10.5846 5.66281 10.6944 6.16585C10.8977 7.09756 10.528 8.30015 9.45878 8.67704C8.91663 8.86814 8.81537 9.01474 8.79896 9.04201C8.77393 9.08361 8.7559 9.14059 8.7559 9.5C8.7559 9.91422 8.42012 10.25 8.0059 10.25C7.59169 10.25 7.2559 9.91422 7.2559 9.5C7.2559 9.48462 7.25585 9.46857 7.25579 9.45188C7.25481 9.16808 7.25319 8.70155 7.51373 8.2686C7.79821 7.79586 8.29872 7.49549 8.96011 7.26236C9.09446 7.215 9.32647 6.93274 9.22891 6.48566C9.18824 6.29931 9.08972 6.12795 8.92217 5.99941C8.75565 5.87165 8.47294 5.75 8.0059 5.75C7.39535 5.75 7.07401 5.95331 6.90868 6.10525C6.81923 6.18746 6.76213 6.26742 6.72959 6.32124C6.71346 6.34794 6.70398 6.36719 6.70009 6.37552C6.69968 6.37641 6.69933 6.37717 6.69905 6.37779C6.55197 6.75666 6.12829 6.9504 5.74427 6.81112C5.35488 6.66988 5.15371 6.23972 5.29495 5.85033L6 6.10606C5.29495 5.85033 5.29478 5.85078 5.29495 5.85033L5.29561 5.84851L5.29632 5.84658L5.29787 5.84239L5.30154 5.83274C5.30424 5.82575 5.30746 5.81764 5.31122 5.80849C5.31874 5.7902 5.32847 5.76768 5.34065 5.74155C5.36498 5.68939 5.39937 5.62223 5.44592 5.54524C5.53875 5.39167 5.68225 5.19512 5.89369 5.00081Z" fill="#528116"/>
<path d="M8.75 11.75C8.75 12.1642 8.41421 12.5 8 12.5C7.58579 12.5 7.25 12.1642 7.25 11.75C7.25 11.3358 7.58579 11 8 11C8.41421 11 8.75 11.3358 8.75 11.75Z" fill="#528116"/>
</svg>
