<svg width="20" height="21" viewBox="0 0 20 21" fill="none" xmlns="http://www.w3.org/2000/svg">
<path fill-rule="evenodd" clip-rule="evenodd" d="M10 6.7901C8.01576 6.7901 6.40696 8.3989 6.40696 10.3831C6.40696 12.3674 8.01576 13.9762 10 13.9762C11.9842 13.9762 13.593 12.3674 13.593 10.3831C13.593 8.3989 11.9842 6.7901 10 6.7901ZM10 12.7165C8.7123 12.7165 7.66666 11.6725 7.66666 10.3831C7.66666 9.09379 8.71065 8.0498 10 8.0498C11.2893 8.0498 12.3333 9.09379 12.3333 10.3831C12.3333 11.6725 11.2893 12.7165 10 12.7165Z" fill="black"/>
<path d="M14.5761 6.64681C14.5761 7.11062 14.2001 7.48661 13.7363 7.48661C13.2725 7.48661 12.8965 7.11062 12.8965 6.64681C12.8965 6.183 13.2725 5.80701 13.7363 5.80701C14.2001 5.80701 14.5761 6.183 14.5761 6.64681Z" fill="black"/>
<path fill-rule="evenodd" clip-rule="evenodd" d="M10 3.38477C8.09974 3.38477 7.86097 3.393 7.11503 3.42758C6.37074 3.46216 5.86192 3.57907 5.41567 3.75362C4.95625 3.93311 4.56598 4.17187 4.17572 4.56049C3.78711 4.9491 3.54669 5.33936 3.36885 5.80043C3.19595 6.24503 3.07739 6.75386 3.04281 7.4998C3.00823 8.24574 3 8.48451 3 10.3848C3 12.285 3.00823 12.5238 3.04281 13.2697C3.07739 14.014 3.19431 14.5229 3.36885 14.9691C3.54834 15.4285 3.78711 15.8188 4.17572 16.209C4.56434 16.5977 4.9546 16.8381 5.41567 17.0159C5.86027 17.1888 6.36909 17.3074 7.11503 17.342C7.86097 17.3765 8.09974 17.3848 10 17.3848C11.9003 17.3848 12.139 17.3765 12.885 17.342C13.6293 17.3074 14.1381 17.1905 14.5843 17.0159C15.0438 16.8364 15.434 16.5977 15.8243 16.209C16.2129 15.8204 16.4533 15.4302 16.6311 14.9691C16.804 14.5245 16.9226 14.0157 16.9572 13.2697C16.9918 12.5238 17 12.285 17 10.3848C17 8.48451 16.9918 8.24574 16.9572 7.4998C16.9226 6.7555 16.8057 6.24668 16.6311 5.80043C16.4517 5.34101 16.2129 4.95075 15.8243 4.56049C15.4357 4.17187 15.0454 3.93146 14.5843 3.75362C14.1397 3.58072 13.6309 3.46216 12.885 3.42758C12.139 3.393 11.9003 3.38477 10 3.38477ZM10 4.64612C11.869 4.64612 12.0896 4.6527 12.8273 4.68728C13.5091 4.71857 13.8796 4.83219 14.1266 4.9277C14.4526 5.05449 14.6864 5.20598 14.9318 5.45134C15.1771 5.69669 15.3286 5.92887 15.4554 6.25656C15.5509 6.50356 15.6646 6.87406 15.6958 7.55578C15.7288 8.29349 15.737 8.51579 15.737 10.3831C15.737 12.2504 15.7304 12.4727 15.6958 13.2105C15.6646 13.8922 15.5509 14.2627 15.4554 14.5097C15.3286 14.8357 15.1771 15.0695 14.9318 15.3149C14.6864 15.5603 14.4542 15.7117 14.1266 15.8385C13.8796 15.934 13.5091 16.0477 12.8273 16.079C12.0896 16.1119 11.869 16.1201 10 16.1201C8.13103 16.1201 7.91037 16.1135 7.17267 16.079C6.49094 16.0477 6.12044 15.934 5.87344 15.8385C5.5474 15.7117 5.31357 15.5603 5.06822 15.3149C4.82287 15.0695 4.67137 14.8374 4.54458 14.5097C4.44907 14.2627 4.33545 13.8922 4.30416 13.2105C4.27123 12.4727 4.263 12.2504 4.263 10.3831C4.263 8.51579 4.26958 8.29349 4.30416 7.55578C4.33545 6.87406 4.44907 6.50356 4.54458 6.25656C4.67137 5.93052 4.82287 5.69669 5.06822 5.45134C5.31357 5.20598 5.54575 5.05449 5.87344 4.9277C6.12044 4.83219 6.49094 4.71857 7.17267 4.68728C7.91037 4.65435 8.13268 4.64612 10 4.64612Z" fill="black"/>
</svg>
