<svg width="32" height="32" viewBox="0 0 32 32" fill="none" xmlns="http://www.w3.org/2000/svg">
<path fill-rule="evenodd" clip-rule="evenodd" d="M2 9C2 8.44772 2.44772 8 3 8H26C26.5523 8 27 8.44772 27 9C27 9.55228 26.5523 10 26 10H3C2.44772 10 2 9.55228 2 9ZM2 16C2 15.4477 2.44772 15 3 15H29C29.5523 15 30 15.4477 30 16C30 16.5523 29.5523 17 29 17H3C2.44772 17 2 16.5523 2 16ZM2 23C2 22.4477 2.44772 22 3 22H24C24.5523 22 25 22.4477 25 23C25 23.5523 24.5523 24 24 24H3C2.44772 24 2 23.5523 2 23Z" fill="#363F41"/>
</svg>
