<svg width="32" height="32" viewBox="0 0 32 32" fill="none" xmlns="http://www.w3.org/2000/svg">
<path fill-rule="evenodd" clip-rule="evenodd" d="M16 4C11.0294 4 7 8.02944 7 13C7 15.3651 8.24316 17.4192 9.64535 19.3897L15.6551 27.5401C15.7358 27.6496 15.8639 27.7143 16 27.7143C16.1361 27.7143 16.2641 27.6496 16.3449 27.5401L22.3545 19.3898C23.7568 17.4193 25 15.3652 25 13C25 8.02944 20.9706 4 16 4ZM5 13C5 6.92487 9.92487 2 16 2C22.0751 2 27 6.92487 27 13C27 16.0594 25.3889 18.576 23.9791 20.5564L23.9742 20.5632L17.9546 28.727C17.4969 29.3478 16.7714 29.7143 16 29.7143C15.2286 29.7143 14.5031 29.3478 14.0453 28.727L8.02569 20.5631L8.02085 20.5563C6.61113 18.576 5 16.0593 5 13Z" fill="white"/>
<path fill-rule="evenodd" clip-rule="evenodd" d="M16 16.7143C18.0513 16.7143 19.7143 15.0513 19.7143 13C19.7143 10.9486 18.0513 9.28571 16 9.28571C13.9487 9.28571 12.2857 10.9486 12.2857 13C12.2857 15.0513 13.9487 16.7143 16 16.7143ZM16 18.7143C19.1559 18.7143 21.7143 16.1559 21.7143 13C21.7143 9.84408 19.1559 7.28571 16 7.28571C12.8441 7.28571 10.2857 9.84408 10.2857 13C10.2857 16.1559 12.8441 18.7143 16 18.7143Z" fill="white"/>
</svg>
