<svg width="56" height="56" viewBox="0 0 56 56" fill="none" xmlns="http://www.w3.org/2000/svg">
<circle cx="40" cy="40" r="16" fill="#B9DD8B" fill-opacity="0.3"/>
<mask id="path-2-outside-1_655_4865" maskUnits="userSpaceOnUse" x="4.3374" y="6.96228" width="47" height="41" fill="black">
<rect fill="white" x="4.3374" y="6.96228" width="47" height="41"/>
<path d="M39.229 7.96228C40.692 7.96228 42.0187 8.82363 42.6138 10.1615L45.5249 16.7123H49.8755C50.3102 16.7125 50.6626 17.0656 50.6626 17.5004C50.6624 17.935 50.3101 18.2872 49.8755 18.2875H46.2251L47.4868 21.1254C49.2822 21.3818 50.6625 22.9252 50.6626 24.7914V36.4584C50.6626 38.2339 49.4131 39.7165 47.7456 40.0775V45.2084C47.7456 46.4488 46.7409 47.4542 45.5005 47.4545H41.1255C39.8849 47.4545 38.8794 46.449 38.8794 45.2084V40.1625H17.1206V45.2084C17.1206 46.4489 16.116 47.4543 14.8755 47.4545H10.5005C9.25986 47.4545 8.25443 46.449 8.25439 45.2084V40.0775C6.587 39.7165 5.33743 38.2338 5.3374 36.4584V24.7914C5.33753 22.9256 6.71741 21.3823 8.51221 21.1254L9.77393 18.2875H6.12549C5.69069 18.2875 5.33761 17.9351 5.3374 17.5004C5.3374 17.0654 5.69056 16.7123 6.12549 16.7123H10.4741L13.3862 10.1615C13.9812 8.82361 15.308 7.9623 16.771 7.96228H39.229ZM9.82959 45.2084C9.82963 45.5791 10.1297 45.8793 10.5005 45.8793H14.8755C15.2461 45.8791 15.5463 45.5791 15.5464 45.2084V40.1625H9.82959V45.2084ZM40.4546 45.2084C40.4546 45.5791 40.7547 45.8793 41.1255 45.8793H45.5005C45.871 45.879 46.1704 45.579 46.1704 45.2084V40.1625H40.4546V45.2084ZM9.0415 22.6625C7.8658 22.6626 6.91274 23.6157 6.9126 24.7914V36.4584C6.91263 37.6342 7.86573 38.5871 9.0415 38.5873H46.9585C48.1343 38.5872 49.0874 37.6342 49.0874 36.4584V24.7914C49.0873 23.6156 48.1343 22.6625 46.9585 22.6625H9.0415ZM14.8745 26.9213C16.9203 26.9213 18.5786 28.5796 18.5786 30.6254C18.5784 32.671 16.9202 34.3295 14.8745 34.3295C12.829 34.3293 11.1706 32.6709 11.1704 30.6254C11.1704 28.5797 12.8289 26.9214 14.8745 26.9213ZM41.1245 26.9213C43.1703 26.9213 44.8296 28.5796 44.8296 30.6254C44.8294 32.671 43.1702 34.3295 41.1245 34.3295C39.0791 34.3292 37.4206 32.6708 37.4204 30.6254C37.4204 28.5798 39.079 26.9215 41.1245 26.9213ZM14.8745 28.4955C13.6987 28.4956 12.7456 29.4495 12.7456 30.6254C12.7458 31.8011 13.6988 32.7542 14.8745 32.7543C16.0503 32.7543 17.0033 31.8011 17.0034 30.6254C17.0034 29.4495 16.0504 28.4955 14.8745 28.4955ZM41.1245 28.4955C39.9488 28.4957 38.9956 29.4496 38.9956 30.6254C38.9958 31.801 39.9489 32.754 41.1245 32.7543C42.3003 32.7543 43.2542 31.8011 43.2544 30.6254C43.2544 29.4495 42.3004 28.4955 41.1245 28.4955ZM16.771 9.53748C15.93 9.53749 15.1677 10.033 14.8257 10.8021L10.2534 21.0873H45.7466L41.1753 10.8021C40.8332 10.033 40.07 9.53748 39.229 9.53748H16.771Z"/>
</mask>
<path d="M39.229 7.96228C40.692 7.96228 42.0187 8.82363 42.6138 10.1615L45.5249 16.7123H49.8755C50.3102 16.7125 50.6626 17.0656 50.6626 17.5004C50.6624 17.935 50.3101 18.2872 49.8755 18.2875H46.2251L47.4868 21.1254C49.2822 21.3818 50.6625 22.9252 50.6626 24.7914V36.4584C50.6626 38.2339 49.4131 39.7165 47.7456 40.0775V45.2084C47.7456 46.4488 46.7409 47.4542 45.5005 47.4545H41.1255C39.8849 47.4545 38.8794 46.449 38.8794 45.2084V40.1625H17.1206V45.2084C17.1206 46.4489 16.116 47.4543 14.8755 47.4545H10.5005C9.25986 47.4545 8.25443 46.449 8.25439 45.2084V40.0775C6.587 39.7165 5.33743 38.2338 5.3374 36.4584V24.7914C5.33753 22.9256 6.71741 21.3823 8.51221 21.1254L9.77393 18.2875H6.12549C5.69069 18.2875 5.33761 17.9351 5.3374 17.5004C5.3374 17.0654 5.69056 16.7123 6.12549 16.7123H10.4741L13.3862 10.1615C13.9812 8.82361 15.308 7.9623 16.771 7.96228H39.229ZM9.82959 45.2084C9.82963 45.5791 10.1297 45.8793 10.5005 45.8793H14.8755C15.2461 45.8791 15.5463 45.5791 15.5464 45.2084V40.1625H9.82959V45.2084ZM40.4546 45.2084C40.4546 45.5791 40.7547 45.8793 41.1255 45.8793H45.5005C45.871 45.879 46.1704 45.579 46.1704 45.2084V40.1625H40.4546V45.2084ZM9.0415 22.6625C7.8658 22.6626 6.91274 23.6157 6.9126 24.7914V36.4584C6.91263 37.6342 7.86573 38.5871 9.0415 38.5873H46.9585C48.1343 38.5872 49.0874 37.6342 49.0874 36.4584V24.7914C49.0873 23.6156 48.1343 22.6625 46.9585 22.6625H9.0415ZM14.8745 26.9213C16.9203 26.9213 18.5786 28.5796 18.5786 30.6254C18.5784 32.671 16.9202 34.3295 14.8745 34.3295C12.829 34.3293 11.1706 32.6709 11.1704 30.6254C11.1704 28.5797 12.8289 26.9214 14.8745 26.9213ZM41.1245 26.9213C43.1703 26.9213 44.8296 28.5796 44.8296 30.6254C44.8294 32.671 43.1702 34.3295 41.1245 34.3295C39.0791 34.3292 37.4206 32.6708 37.4204 30.6254C37.4204 28.5798 39.079 26.9215 41.1245 26.9213ZM14.8745 28.4955C13.6987 28.4956 12.7456 29.4495 12.7456 30.6254C12.7458 31.8011 13.6988 32.7542 14.8745 32.7543C16.0503 32.7543 17.0033 31.8011 17.0034 30.6254C17.0034 29.4495 16.0504 28.4955 14.8745 28.4955ZM41.1245 28.4955C39.9488 28.4957 38.9956 29.4496 38.9956 30.6254C38.9958 31.801 39.9489 32.754 41.1245 32.7543C42.3003 32.7543 43.2542 31.8011 43.2544 30.6254C43.2544 29.4495 42.3004 28.4955 41.1245 28.4955ZM16.771 9.53748C15.93 9.53749 15.1677 10.033 14.8257 10.8021L10.2534 21.0873H45.7466L41.1753 10.8021C40.8332 10.033 40.07 9.53748 39.229 9.53748H16.771Z" fill="#528116"/>
<path d="M42.6138 10.1615L42.7052 10.1209L42.7051 10.1209L42.6138 10.1615ZM45.5249 16.7123L45.4335 16.7529C45.4496 16.789 45.4854 16.8123 45.5249 16.8123V16.7123ZM49.8755 16.7123L49.8755 16.6123H49.8755V16.7123ZM50.6626 17.5004L50.7626 17.5004V17.5004H50.6626ZM49.8755 18.2875V18.3875H49.8755L49.8755 18.2875ZM46.2251 18.2875V18.1875C46.1912 18.1875 46.1597 18.2046 46.1412 18.233C46.1228 18.2614 46.12 18.2972 46.1337 18.3281L46.2251 18.2875ZM47.4868 21.1254L47.3954 21.166C47.4094 21.1974 47.4386 21.2195 47.4727 21.2244L47.4868 21.1254ZM50.6626 24.7914H50.7626V24.7914L50.6626 24.7914ZM50.6626 36.4584L50.7626 36.4584V36.4584H50.6626ZM47.7456 40.0775L47.7244 39.9798C47.6784 39.9897 47.6456 40.0304 47.6456 40.0775H47.7456ZM47.7456 45.2084L47.8456 45.2084V45.2084H47.7456ZM45.5005 47.4545V47.5545H45.5005L45.5005 47.4545ZM38.8794 45.2084H38.7794V45.2084L38.8794 45.2084ZM38.8794 40.1625H38.9794C38.9794 40.1072 38.9346 40.0625 38.8794 40.0625V40.1625ZM17.1206 40.1625V40.0625C17.0654 40.0625 17.0206 40.1072 17.0206 40.1625H17.1206ZM17.1206 45.2084L17.2206 45.2084V45.2084H17.1206ZM14.8755 47.4545V47.5545H14.8755L14.8755 47.4545ZM8.25439 45.2084H8.15439V45.2084L8.25439 45.2084ZM8.25439 40.0775H8.35439C8.35439 40.0304 8.32156 39.9897 8.27556 39.9798L8.25439 40.0775ZM5.3374 36.4584H5.2374V36.4584L5.3374 36.4584ZM5.3374 24.7914L5.2374 24.7914V24.7914H5.3374ZM8.51221 21.1254L8.52638 21.2244C8.56044 21.2195 8.5896 21.1974 8.60358 21.166L8.51221 21.1254ZM9.77393 18.2875L9.8653 18.3281C9.87905 18.2972 9.87622 18.2614 9.85778 18.233C9.83933 18.2046 9.80778 18.1875 9.77393 18.1875V18.2875ZM5.3374 17.5004H5.2374L5.2374 17.5004L5.3374 17.5004ZM10.4741 16.7123V16.8123C10.5136 16.8123 10.5494 16.789 10.5655 16.7529L10.4741 16.7123ZM13.3862 10.1615L13.2949 10.1209L13.2949 10.1209L13.3862 10.1615ZM16.771 7.96228V7.86228H16.771L16.771 7.96228ZM9.82959 45.2084H9.72959V45.2084L9.82959 45.2084ZM14.8755 45.8793V45.9793H14.8755L14.8755 45.8793ZM15.5464 45.2084L15.6464 45.2084V45.2084H15.5464ZM15.5464 40.1625H15.6464C15.6464 40.1072 15.6016 40.0625 15.5464 40.0625V40.1625ZM9.82959 40.1625V40.0625C9.77436 40.0625 9.72959 40.1072 9.72959 40.1625H9.82959ZM40.4546 45.2084H40.3546V45.2084L40.4546 45.2084ZM45.5005 45.8793V45.9793H45.5006L45.5005 45.8793ZM46.1704 45.2084L46.2704 45.2084V45.2084H46.1704ZM46.1704 40.1625H46.2704C46.2704 40.1072 46.2256 40.0625 46.1704 40.0625V40.1625ZM40.4546 40.1625V40.0625C40.3994 40.0625 40.3546 40.1072 40.3546 40.1625H40.4546ZM9.0415 22.6625V22.5625H9.04149L9.0415 22.6625ZM6.9126 24.7914L6.8126 24.7914V24.7914H6.9126ZM6.9126 36.4584H6.8126V36.4584L6.9126 36.4584ZM9.0415 38.5873L9.04149 38.6873H9.0415V38.5873ZM46.9585 38.5873V38.6873H46.9585L46.9585 38.5873ZM49.0874 36.4584L49.1874 36.4584V36.4584H49.0874ZM49.0874 24.7914H49.1874V24.7914L49.0874 24.7914ZM46.9585 22.6625L46.9585 22.5625H46.9585V22.6625ZM14.8745 26.9213V26.8213H14.8745L14.8745 26.9213ZM18.5786 30.6254L18.6786 30.6254V30.6254H18.5786ZM14.8745 34.3295L14.8745 34.4295H14.8745V34.3295ZM11.1704 30.6254H11.0704V30.6254L11.1704 30.6254ZM41.1245 26.9213V26.8213H41.1245L41.1245 26.9213ZM44.8296 30.6254L44.9296 30.6254V30.6254H44.8296ZM41.1245 34.3295L41.1245 34.4295H41.1245V34.3295ZM37.4204 30.6254H37.3204V30.6254L37.4204 30.6254ZM14.8745 28.4955V28.3955H14.8745L14.8745 28.4955ZM12.7456 30.6254H12.6456V30.6254L12.7456 30.6254ZM14.8745 32.7543L14.8745 32.8543H14.8745V32.7543ZM17.0034 30.6254L17.1034 30.6254V30.6254H17.0034ZM41.1245 28.4955V28.3955H41.1245L41.1245 28.4955ZM38.9956 30.6254H38.8956V30.6254L38.9956 30.6254ZM41.1245 32.7543L41.1245 32.8543H41.1245V32.7543ZM43.2544 30.6254L43.3544 30.6254V30.6254H43.2544ZM16.771 9.53748V9.43748H16.771L16.771 9.53748ZM14.8257 10.8021L14.7343 10.7615L14.7343 10.7615L14.8257 10.8021ZM10.2534 21.0873L10.162 21.0467C10.1483 21.0776 10.1511 21.1134 10.1696 21.1418C10.188 21.1702 10.2196 21.1873 10.2534 21.1873V21.0873ZM45.7466 21.0873V21.1873C45.7804 21.1873 45.812 21.1702 45.8304 21.1418C45.8489 21.1134 45.8517 21.0776 45.838 21.0467L45.7466 21.0873ZM41.1753 10.8021L41.2667 10.7615L41.2667 10.7615L41.1753 10.8021ZM39.229 7.96228V8.06228C40.6525 8.06228 41.9434 8.90037 42.5224 10.2021L42.6138 10.1615L42.7051 10.1209C42.094 8.74688 40.7315 7.86228 39.229 7.86228V7.96228ZM42.6138 10.1615L42.5224 10.2021L45.4335 16.7529L45.5249 16.7123L45.6163 16.6717L42.7052 10.1209L42.6138 10.1615ZM45.5249 16.7123V16.8123H49.8755V16.7123V16.6123H45.5249V16.7123ZM49.8755 16.7123L49.8754 16.8123C50.2549 16.8125 50.5626 17.1207 50.5626 17.5004H50.6626H50.7626C50.7626 17.0105 50.3656 16.6126 49.8755 16.6123L49.8755 16.7123ZM50.6626 17.5004L50.5626 17.5003C50.5624 17.8797 50.2548 18.1873 49.8754 18.1875L49.8755 18.2875L49.8755 18.3875C50.3653 18.3872 50.7624 17.9902 50.7626 17.5004L50.6626 17.5004ZM49.8755 18.2875V18.1875H46.2251V18.2875V18.3875H49.8755V18.2875ZM46.2251 18.2875L46.1337 18.3281L47.3954 21.166L47.4868 21.1254L47.5782 21.0847L46.3165 18.2469L46.2251 18.2875ZM47.4868 21.1254L47.4727 21.2244C49.2195 21.4739 50.5625 22.9757 50.5626 24.7914L50.6626 24.7914L50.7626 24.7914C50.7625 22.8747 49.3448 21.2898 47.501 21.0264L47.4868 21.1254ZM50.6626 24.7914H50.5626V36.4584H50.6626H50.7626V24.7914H50.6626ZM50.6626 36.4584L50.5626 36.4584C50.5626 38.1858 49.3469 39.6285 47.7244 39.9798L47.7456 40.0775L47.7668 40.1753C49.4792 39.8045 50.7626 38.282 50.7626 36.4584L50.6626 36.4584ZM47.7456 40.0775H47.6456V45.2084H47.7456H47.8456V40.0775H47.7456ZM47.7456 45.2084L47.6456 45.2084C47.6456 46.3936 46.6856 47.3542 45.5005 47.3545L45.5005 47.4545L45.5005 47.5545C46.7962 47.5542 47.8456 46.504 47.8456 45.2084L47.7456 45.2084ZM45.5005 47.4545V47.3545H41.1255V47.4545V47.5545H45.5005V47.4545ZM41.1255 47.4545V47.3545C39.9401 47.3545 38.9794 46.3938 38.9794 45.2084L38.8794 45.2084L38.7794 45.2084C38.7794 46.5042 39.8296 47.5545 41.1255 47.5545V47.4545ZM38.8794 45.2084H38.9794V40.1625H38.8794H38.7794V45.2084H38.8794ZM38.8794 40.1625V40.0625H17.1206V40.1625V40.2625H38.8794V40.1625ZM17.1206 40.1625H17.0206V45.2084H17.1206H17.2206V40.1625H17.1206ZM17.1206 45.2084L17.0206 45.2084C17.0206 46.3937 16.0607 47.3543 14.8755 47.3545L14.8755 47.4545L14.8755 47.5545C16.1713 47.5543 17.2206 46.5041 17.2206 45.2084L17.1206 45.2084ZM14.8755 47.4545V47.3545H10.5005V47.4545V47.5545H14.8755V47.4545ZM10.5005 47.4545V47.3545C9.31509 47.3545 8.35443 46.3938 8.35439 45.2084L8.25439 45.2084L8.15439 45.2084C8.15444 46.5042 9.20463 47.5545 10.5005 47.5545V47.4545ZM8.25439 45.2084H8.35439V40.0775H8.25439H8.15439V45.2084H8.25439ZM8.25439 40.0775L8.27556 39.9798C6.65316 39.6285 5.43743 38.1857 5.4374 36.4584L5.3374 36.4584L5.2374 36.4584C5.23744 38.2819 6.52085 39.8045 8.23323 40.1753L8.25439 40.0775ZM5.3374 36.4584H5.4374V24.7914H5.3374H5.2374V36.4584H5.3374ZM5.3374 24.7914L5.4374 24.7914C5.43753 22.976 6.78011 21.4743 8.52638 21.2244L8.51221 21.1254L8.49804 21.0264C6.65471 21.2903 5.23753 22.8751 5.2374 24.7914L5.3374 24.7914ZM8.51221 21.1254L8.60358 21.166L9.8653 18.3281L9.77393 18.2875L9.68255 18.2469L8.42083 21.0847L8.51221 21.1254ZM9.77393 18.2875V18.1875H6.12549V18.2875V18.3875H9.77393V18.2875ZM6.12549 18.2875V18.1875C5.74581 18.1875 5.43759 17.8798 5.4374 17.5003L5.3374 17.5004L5.2374 17.5004C5.23764 17.9905 5.63558 18.3875 6.12549 18.3875V18.2875ZM5.3374 17.5004H5.4374C5.4374 17.1207 5.74579 16.8123 6.12549 16.8123V16.7123V16.6123C5.63534 16.6123 5.2374 17.0102 5.2374 17.5004H5.3374ZM6.12549 16.7123V16.8123H10.4741V16.7123V16.6123H6.12549V16.7123ZM10.4741 16.7123L10.5655 16.7529L13.4776 10.2021L13.3862 10.1615L13.2949 10.1209L10.3827 16.6717L10.4741 16.7123ZM13.3862 10.1615L13.4776 10.2021C14.0566 8.90036 15.3475 8.0623 16.771 8.06228L16.771 7.96228L16.771 7.86228C15.2685 7.8623 13.9059 8.74686 13.2949 10.1209L13.3862 10.1615ZM16.771 7.96228V8.06228H39.229V7.96228V7.86228H16.771V7.96228ZM9.82959 45.2084L9.72959 45.2084C9.72964 45.6344 10.0745 45.9793 10.5005 45.9793V45.8793V45.7793C10.1849 45.7793 9.92962 45.5239 9.92959 45.2084L9.82959 45.2084ZM10.5005 45.8793V45.9793H14.8755V45.8793V45.7793H10.5005V45.8793ZM14.8755 45.8793L14.8755 45.9793C15.3014 45.9791 15.6463 45.6343 15.6464 45.2084L15.5464 45.2084L15.4464 45.2084C15.4464 45.5238 15.1909 45.7792 14.8755 45.7793L14.8755 45.8793ZM15.5464 45.2084H15.6464V40.1625H15.5464H15.4464V45.2084H15.5464ZM15.5464 40.1625V40.0625H9.82959V40.1625V40.2625H15.5464V40.1625ZM9.82959 40.1625H9.72959V45.2084H9.82959H9.92959V40.1625H9.82959ZM40.4546 45.2084L40.3546 45.2084C40.3546 45.6344 40.6995 45.9793 41.1255 45.9793V45.8793V45.7793C40.8099 45.7793 40.5546 45.5239 40.5546 45.2084L40.4546 45.2084ZM41.1255 45.8793V45.9793H45.5005V45.8793V45.7793H41.1255V45.8793ZM45.5005 45.8793L45.5006 45.9793C45.9264 45.979 46.2704 45.6341 46.2704 45.2084L46.1704 45.2084L46.0704 45.2084C46.0704 45.5239 45.8157 45.7791 45.5004 45.7793L45.5005 45.8793ZM46.1704 45.2084H46.2704V40.1625H46.1704H46.0704V45.2084H46.1704ZM46.1704 40.1625V40.0625H40.4546V40.1625V40.2625H46.1704V40.1625ZM40.4546 40.1625H40.3546V45.2084H40.4546H40.5546V40.1625H40.4546ZM9.0415 22.6625L9.04149 22.5625C7.81057 22.5626 6.81274 23.5604 6.8126 24.7914L6.9126 24.7914L7.0126 24.7914C7.01273 23.6709 7.92103 22.7626 9.04152 22.7625L9.0415 22.6625ZM6.9126 24.7914H6.8126V36.4584H6.9126H7.0126V24.7914H6.9126ZM6.9126 36.4584L6.8126 36.4584C6.81264 37.6894 7.81051 38.6871 9.04149 38.6873L9.0415 38.5873L9.04152 38.4873C7.92096 38.4872 7.01263 37.5789 7.0126 36.4584L6.9126 36.4584ZM9.0415 38.5873V38.6873H46.9585V38.5873V38.4873H9.0415V38.5873ZM46.9585 38.5873L46.9585 38.6873C48.1896 38.6872 49.1874 37.6895 49.1874 36.4584L49.0874 36.4584L48.9874 36.4584C48.9874 37.579 48.0791 38.4872 46.9585 38.4873L46.9585 38.5873ZM49.0874 36.4584H49.1874V24.7914H49.0874H48.9874V36.4584H49.0874ZM49.0874 24.7914L49.1874 24.7914C49.1873 23.5604 48.1895 22.5625 46.9585 22.5625L46.9585 22.6625L46.9585 22.7625C48.079 22.7625 48.9873 23.6708 48.9874 24.7914L49.0874 24.7914ZM46.9585 22.6625V22.5625H9.0415V22.6625V22.7625H46.9585V22.6625ZM14.8745 26.9213V27.0213C16.865 27.0213 18.4786 28.6348 18.4786 30.6254H18.5786H18.6786C18.6786 28.5244 16.9755 26.8213 14.8745 26.8213V26.9213ZM18.5786 30.6254L18.4786 30.6254C18.4785 32.6158 16.8649 34.2295 14.8745 34.2295V34.3295V34.4295C16.9754 34.4295 18.6784 32.7262 18.6786 30.6254L18.5786 30.6254ZM14.8745 34.3295L14.8745 34.2295C12.8842 34.2294 11.2706 32.6157 11.2704 30.6254L11.1704 30.6254L11.0704 30.6254C11.0706 32.7261 12.7737 34.4293 14.8745 34.4295L14.8745 34.3295ZM11.1704 30.6254H11.2704C11.2704 28.6349 12.8841 27.0214 14.8745 27.0213L14.8745 26.9213L14.8745 26.8213C12.7736 26.8214 11.0704 28.5245 11.0704 30.6254H11.1704ZM41.1245 26.9213V27.0213C43.1151 27.0213 44.7296 28.6349 44.7296 30.6254H44.8296H44.9296C44.9296 28.5243 43.2255 26.8213 41.1245 26.8213V26.9213ZM44.8296 30.6254L44.7296 30.6254C44.7294 32.6157 43.115 34.2295 41.1245 34.2295V34.3295V34.4295C43.2254 34.4295 44.9294 32.7262 44.9296 30.6254L44.8296 30.6254ZM41.1245 34.3295L41.1245 34.2295C39.1343 34.2292 37.5206 32.6156 37.5204 30.6254L37.4204 30.6254L37.3204 30.6254C37.3206 32.7261 39.0238 34.4292 41.1245 34.4295L41.1245 34.3295ZM37.4204 30.6254H37.5204C37.5204 28.635 39.1342 27.0215 41.1245 27.0213L41.1245 26.9213L41.1245 26.8213C39.0237 26.8215 37.3204 28.5245 37.3204 30.6254H37.4204ZM14.8745 28.4955L14.8745 28.3955C13.6434 28.3956 12.6456 29.3944 12.6456 30.6254H12.7456H12.8456C12.8456 29.5047 13.754 28.5956 14.8745 28.5955L14.8745 28.4955ZM12.7456 30.6254L12.6456 30.6254C12.6458 31.8563 13.6436 32.8541 14.8745 32.8543L14.8745 32.7543L14.8745 32.6543C13.754 32.6542 12.8458 31.7458 12.8456 30.6254L12.7456 30.6254ZM14.8745 32.7543V32.8543C16.1056 32.8543 17.1032 31.8563 17.1034 30.6254L17.0034 30.6254L16.9034 30.6254C16.9033 31.7459 15.9951 32.6543 14.8745 32.6543V32.7543ZM17.0034 30.6254H17.1034C17.1034 29.3943 16.1057 28.3955 14.8745 28.3955V28.4955V28.5955C15.9951 28.5955 16.9034 29.5046 16.9034 30.6254H17.0034ZM41.1245 28.4955L41.1245 28.3955C39.8935 28.3957 38.8956 29.3944 38.8956 30.6254H38.9956H39.0956C39.0956 29.5048 40.0041 28.5957 41.1245 28.5955L41.1245 28.4955ZM38.9956 30.6254L38.8956 30.6254C38.8958 31.8562 39.8937 32.854 41.1245 32.8543L41.1245 32.7543L41.1245 32.6543C40.0041 32.6541 39.0958 31.7458 39.0956 30.6254L38.9956 30.6254ZM41.1245 32.7543V32.8543C42.3555 32.8543 43.3542 31.8564 43.3544 30.6254L43.2544 30.6254L43.1544 30.6254C43.1542 31.7459 42.2451 32.6543 41.1245 32.6543V32.7543ZM43.2544 30.6254H43.3544C43.3544 29.3942 42.3556 28.3955 41.1245 28.3955V28.4955V28.5955C42.2452 28.5955 43.1544 29.5047 43.1544 30.6254H43.2544ZM16.771 9.53748L16.771 9.43748C15.8905 9.4375 15.0924 9.95627 14.7343 10.7615L14.8257 10.8021L14.9171 10.8428C15.2431 10.1097 15.9696 9.63749 16.771 9.63748L16.771 9.53748ZM14.8257 10.8021L14.7343 10.7615L10.162 21.0467L10.2534 21.0873L10.3448 21.1279L14.9171 10.8427L14.8257 10.8021ZM10.2534 21.0873V21.1873H45.7466V21.0873V20.9873H10.2534V21.0873ZM45.7466 21.0873L45.838 21.0467L41.2667 10.7615L41.1753 10.8021L41.0839 10.8427L45.6552 21.1279L45.7466 21.0873ZM41.1753 10.8021L41.2667 10.7615C40.9086 9.95621 40.1095 9.43748 39.229 9.43748V9.53748V9.63748C40.0305 9.63748 40.7579 10.1097 41.0839 10.8428L41.1753 10.8021ZM39.229 9.53748V9.43748H16.771V9.53748V9.63748H39.229V9.53748Z" fill="#528116" mask="url(#path-2-outside-1_655_4865)"/>
</svg>
