<svg width="20" height="20" viewBox="0 0 20 20" fill="none" xmlns="http://www.w3.org/2000/svg">
<path fill-rule="evenodd" clip-rule="evenodd" d="M6.25 4.55556C6.25 3.28223 7.28223 2.25 8.55556 2.25H11.4444C12.7178 2.25 13.75 3.28223 13.75 4.55556V5.25H16C16.4142 5.25 16.75 5.58579 16.75 6C16.75 6.41421 16.4142 6.75 16 6.75H15.195C15.1957 6.79351 15.1946 6.83744 15.1916 6.8817L14.6465 14.8764C14.5362 16.4941 13.1918 17.75 11.5703 17.75H8.42966C6.80819 17.75 5.46377 16.4941 5.35347 14.8764L4.7994 6.75H4C3.58579 6.75 3.25 6.41421 3.25 6C3.25 5.58579 3.58579 5.25 4 5.25H6.25V4.55556ZM6.30288 6.75L6.84999 14.7744C6.90663 15.6051 7.59701 16.25 8.42966 16.25H11.5703C12.403 16.25 13.0934 15.6051 13.15 14.7744L13.6951 6.77967C13.6955 6.77395 13.6947 6.77078 13.6939 6.76856C13.6928 6.76571 13.6909 6.76222 13.6877 6.75882C13.6845 6.75541 13.6812 6.75321 13.6784 6.75198C13.6762 6.75102 13.6731 6.75 13.6674 6.75H6.30288ZM8.55556 3.75C8.11066 3.75 7.75 4.11066 7.75 4.55556V5.25L12.25 5.25V4.55556C12.25 4.11066 11.8893 3.75 11.4444 3.75H8.55556ZM10 8.25C10.4142 8.25 10.75 8.58579 10.75 9V13C10.75 13.4142 10.4142 13.75 10 13.75C9.58579 13.75 9.25 13.4142 9.25 13V9C9.25 8.58579 9.58579 8.25 10 8.25Z" fill="#528116"/>
</svg>
