<svg width="56" height="56" viewBox="0 0 56 56" fill="none" xmlns="http://www.w3.org/2000/svg">
<circle cx="40" cy="16" r="16" fill="#B9DD8B" fill-opacity="0.3"/>
<mask id="mask0_1031_14904" style="mask-type:alpha" maskUnits="userSpaceOnUse" x="0" y="0" width="56" height="56">
<rect width="56" height="56" fill="#D9D9D9"/>
</mask>
<g mask="url(#mask0_1031_14904)">
<path d="M12.7949 31.3972V49.4362C12.7949 49.6901 12.7076 49.9032 12.533 50.0755C12.3588 50.2474 12.1428 50.3333 11.8849 50.3333C11.6271 50.3333 11.4151 50.2474 11.2491 50.0755C11.083 49.9032 11 49.6901 11 49.4362V6.89717C11 6.64322 11.0873 6.43011 11.2619 6.25783C11.4361 6.08594 11.6522 6 11.91 6C12.1678 6 12.3798 6.08594 12.5458 6.25783C12.7119 6.43011 12.7949 6.64322 12.7949 6.89717V10.7653H43.0612C43.6181 10.7653 44.0579 11.0054 44.3807 11.4857C44.7034 11.9656 44.7631 12.4674 44.5598 12.9912L41.2301 21.0815L44.5598 29.1718C44.7631 29.7251 44.7034 30.2344 44.3807 30.6995C44.0579 31.1646 43.6181 31.3972 43.0612 31.3972H12.7949ZM27.3818 24.3838C28.2859 24.3838 29.0565 24.0647 29.6935 23.4265C30.3309 22.7883 30.6496 22.0026 30.6496 21.0693C30.6496 20.1359 30.3303 19.3541 29.6918 18.7237C29.0536 18.0937 28.2678 17.7787 27.3345 17.7787C26.4451 17.7787 25.6819 18.0979 25.0449 18.7365C24.4075 19.3747 24.0888 20.1604 24.0888 21.0937C24.0888 22.0271 24.4116 22.8088 25.0572 23.4388C25.7027 24.0688 26.4776 24.3838 27.3818 24.3838ZM12.7949 29.6028H42.7829L39.35 21.0815L42.7829 12.5602H12.7949V29.6028Z" fill="#528116"/>
</g>
</svg>
