<svg width="20" height="20" viewBox="0 0 20 20" fill="none" xmlns="http://www.w3.org/2000/svg">
<path fill-rule="evenodd" clip-rule="evenodd" d="M4.25 15C4.25 12.9289 5.92893 11.25 8 11.25H12C14.0711 11.25 15.75 12.9289 15.75 15V17C15.75 17.4142 15.4142 17.75 15 17.75C14.5858 17.75 14.25 17.4142 14.25 17V15C14.25 13.7574 13.2426 12.75 12 12.75H8C6.75736 12.75 5.75 13.7574 5.75 15V17C5.75 17.4142 5.41421 17.75 5 17.75C4.58579 17.75 4.25 17.4142 4.25 17V15Z" fill="#FFFFFF"/>
<path fill-rule="evenodd" clip-rule="evenodd" d="M10 3.75C8.75736 3.75 7.75 4.75736 7.75 6C7.75 7.24264 8.75736 8.25 10 8.25C11.2426 8.25 12.25 7.24264 12.25 6C12.25 4.75736 11.2426 3.75 10 3.75ZM6.25 6C6.25 3.92893 7.92893 2.25 10 2.25C12.0711 2.25 13.75 3.92893 13.75 6C13.75 8.07107 12.0711 9.75 10 9.75C7.92893 9.75 6.25 8.07107 6.25 6Z" fill="#FFFFFF"/>
</svg>
