<svg width="24" height="24" viewBox="0 0 24 24" fill="none" xmlns="http://www.w3.org/2000/svg">
<path fill-rule="evenodd" clip-rule="evenodd" d="M5.1001 18C5.1001 15.5147 7.11482 13.5 9.6001 13.5H14.4001C16.8854 13.5 18.9001 15.5147 18.9001 18V20.4C18.9001 20.8971 18.4972 21.3 18.0001 21.3C17.503 21.3 17.1001 20.8971 17.1001 20.4V18C17.1001 16.5088 15.8913 15.3 14.4001 15.3H9.6001C8.10893 15.3 6.9001 16.5088 6.9001 18V20.4C6.9001 20.8971 6.49715 21.3 6.0001 21.3C5.50304 21.3 5.1001 20.8971 5.1001 20.4V18Z" fill="#363F41"/>
<path fill-rule="evenodd" clip-rule="evenodd" d="M12.0001 4.5C10.5089 4.5 9.3001 5.70883 9.3001 7.2C9.3001 8.69117 10.5089 9.9 12.0001 9.9C13.4913 9.9 14.7001 8.69117 14.7001 7.2C14.7001 5.70883 13.4913 4.5 12.0001 4.5ZM7.5001 7.2C7.5001 4.71472 9.51482 2.7 12.0001 2.7C14.4854 2.7 16.5001 4.71472 16.5001 7.2C16.5001 9.68528 14.4854 11.7 12.0001 11.7C9.51482 11.7 7.5001 9.68528 7.5001 7.2Z" fill="#363F41"/>
</svg>
