<svg width="24" height="24" viewBox="0 0 24 24" fill="none" xmlns="http://www.w3.org/2000/svg">
<path fill-rule="evenodd" clip-rule="evenodd" d="M5.10001 18C5.10001 15.5147 7.11473 13.5 9.60001 13.5H14.4C16.8853 13.5 18.9 15.5147 18.9 18V20.4C18.9 20.8971 18.4971 21.3 18 21.3C17.503 21.3 17.1 20.8971 17.1 20.4V18C17.1 16.5088 15.8912 15.3 14.4 15.3H9.60001C8.10884 15.3 6.90001 16.5088 6.90001 18V20.4C6.90001 20.8971 6.49706 21.3 6.00001 21.3C5.50295 21.3 5.10001 20.8971 5.10001 20.4V18Z" fill="white"/>
<path fill-rule="evenodd" clip-rule="evenodd" d="M12 4.5C10.5088 4.5 9.30001 5.70883 9.30001 7.2C9.30001 8.69117 10.5088 9.9 12 9.9C13.4912 9.9 14.7 8.69117 14.7 7.2C14.7 5.70883 13.4912 4.5 12 4.5ZM7.50001 7.2C7.50001 4.71472 9.51472 2.7 12 2.7C14.4853 2.7 16.5 4.71472 16.5 7.2C16.5 9.68528 14.4853 11.7 12 11.7C9.51472 11.7 7.50001 9.68528 7.50001 7.2Z" fill="white"/>
</svg>
