<svg width="160" height="42" viewBox="0 0 160 42" fill="none" xmlns="http://www.w3.org/2000/svg">
<g clip-path="url(#clip0_1116_14797)">
<path d="M72.4757 25.5489H67.9293C67.4213 25.5489 67.0005 25.4308 66.6721 25.1897C66.3437 24.9485 66.1128 24.6458 65.9897 24.2712L64.4964 19.8223H54.8855L53.3923 24.2712C53.2742 24.5996 53.0536 24.8921 52.7149 25.1538C52.3814 25.4155 51.9709 25.5489 51.4834 25.5489H46.9062L56.6917 0.0256348H62.6954L72.4808 25.5437L72.4757 25.5489ZM56.2401 15.7891H63.1418L60.8173 8.80021C60.6685 8.35378 60.4889 7.83552 60.2888 7.23002C60.0835 6.62966 59.8834 5.97798 59.6884 5.28012C59.5037 5.99337 59.3138 6.65018 59.1137 7.26081C58.9187 7.86631 58.734 8.39483 58.5595 8.83613L56.235 15.7891H56.2401Z" fill="white"/>
<path d="M82.216 15.8302V25.4976H76.3201V15.8302L67.1094 0.0718994H72.3074C72.8205 0.0718994 73.2259 0.18992 73.5287 0.431093C73.8314 0.667134 74.0726 0.975014 74.2625 1.3496L77.8544 8.74898C78.1469 9.34421 78.4137 9.88813 78.66 10.391C78.9063 10.8939 79.1167 11.3865 79.3066 11.874C79.481 11.3762 79.6914 10.8734 79.9377 10.3705C80.1789 9.87274 80.4457 9.32882 80.7228 8.74898L84.2788 1.3496C84.3506 1.20079 84.4481 1.04685 84.5662 0.898044C84.6893 0.749235 84.8279 0.610689 84.9869 0.487537C85.1409 0.364385 85.3256 0.26689 85.5257 0.18992C85.731 0.11295 85.9516 0.0770307 86.1979 0.0770307H91.4319L82.2211 15.8353L82.216 15.8302Z" fill="white"/>
<path d="M112.163 0.0410156V2.17565C112.163 2.4784 112.111 2.77601 112.014 3.0685C111.916 3.36099 111.778 3.63295 111.603 3.88951L99.6319 20.9922H111.778V25.5437H92.1094V23.2705C92.1094 23.0037 92.1556 22.7369 92.2479 22.4752C92.3403 22.2135 92.4686 21.9672 92.6328 21.7465L104.635 4.58737H93.0895V0.0410156H112.163Z" fill="white"/>
<path d="M137.817 12.8232C137.817 14.6397 137.504 16.3279 136.878 17.8929C136.252 19.458 135.369 20.8127 134.235 21.9724C133.096 23.1269 131.731 24.03 130.125 24.6868C128.524 25.3436 126.744 25.672 124.794 25.672C122.844 25.672 121.063 25.3436 119.452 24.6868C117.841 24.03 116.465 23.1269 115.326 21.9724C114.182 20.8178 113.299 19.458 112.673 17.8929C112.047 16.333 111.734 14.6397 111.734 12.8232C111.734 11.0067 112.047 9.31849 112.673 7.75344C113.299 6.18838 114.182 4.83371 115.326 3.68429C116.471 2.53488 117.846 1.63176 119.452 0.980084C121.058 0.323274 122.839 0 124.794 0C126.749 0 128.524 0.328405 130.125 0.990347C131.726 1.65229 133.096 2.5554 134.235 3.70482C135.369 4.85424 136.252 6.20891 136.878 7.77396C137.504 9.33902 137.817 11.0221 137.817 12.8232ZM131.854 12.8232C131.854 11.5814 131.69 10.4628 131.372 9.47243C131.049 8.47696 130.587 7.63542 129.987 6.94782C129.386 6.26022 128.647 5.7317 127.775 5.36224C126.903 4.99278 125.907 4.81319 124.794 4.81319C123.68 4.81319 122.664 4.99792 121.787 5.36224C120.909 5.7317 120.165 6.26022 119.565 6.94782C118.964 7.64055 118.497 8.48209 118.179 9.47243C117.856 10.4679 117.697 11.5865 117.697 12.8232C117.697 14.0598 117.856 15.199 118.179 16.1945C118.503 17.19 118.964 18.0315 119.565 18.7191C120.165 19.4067 120.909 19.9352 121.787 20.2944C122.664 20.6587 123.67 20.8383 124.794 20.8383C125.917 20.8383 126.903 20.6587 127.775 20.2944C128.647 19.9301 129.386 19.4067 129.987 18.7191C130.592 18.0315 131.054 17.19 131.372 16.1945C131.695 15.199 131.854 14.0752 131.854 12.8232Z" fill="white"/>
<path d="M145.036 16.097V25.5489H139.109V0H147.417C149.264 0 150.84 0.189859 152.143 0.569578C153.446 0.949296 154.508 1.47782 155.33 2.15516C156.156 2.83249 156.751 3.63298 157.125 4.55662C157.5 5.48026 157.685 6.486 157.685 7.57384C157.685 8.40512 157.572 9.18508 157.351 9.92399C157.131 10.6578 156.797 11.3402 156.361 11.9663C155.925 12.5923 155.386 13.1516 154.75 13.6391C154.113 14.1317 153.38 14.5319 152.548 14.8501C152.943 15.0502 153.318 15.2965 153.662 15.5838C154.006 15.8763 154.308 16.2304 154.565 16.6563L159.999 25.5438H154.637C153.646 25.5438 152.933 25.1692 152.502 24.42L148.259 17.0052C148.074 16.6768 147.853 16.4459 147.602 16.3022C147.35 16.1637 146.996 16.0919 146.54 16.0919H145.031L145.036 16.097ZM145.036 12.0124H147.417C148.223 12.0124 148.91 11.9098 149.475 11.7046C150.039 11.4993 150.506 11.2171 150.87 10.8528C151.23 10.4884 151.496 10.0677 151.655 9.58019C151.82 9.09785 151.902 8.56932 151.902 8.01001C151.902 6.88624 151.537 6.00879 150.804 5.38276C150.075 4.75161 148.941 4.43347 147.412 4.43347H145.031V12.0073L145.036 12.0124Z" fill="white"/>
<path d="M29.247 8.43596L32.2232 0.620939C32.1873 0.585019 32.1616 0.543969 32.1206 0.513181C31.7511 0.236089 31.3457 0.0872803 30.8018 0.0872803H26.9123C26.4197 0.0872803 26.2555 0.179644 25.8757 0.436211C25.496 0.687646 25.2702 1.21104 25.1676 1.58563L21.2729 16.4511C21.0266 17.3337 20.8368 18.2625 20.221 18.2471C19.7181 18.2317 19.7181 17.8263 19.2204 16.641C18.892 15.8713 14.3867 3.72539 14.3867 3.72539C14.1763 3.15582 13.5708 1.77549 13.0987 1.24183C12.6523 0.738959 11.78 0.143725 10.4561 0.128331L4.04706 0.102674C4.04706 0.102674 2.94383 0.102674 2.39991 0.348978C1.8919 0.574757 1.35311 1.26749 1.35311 1.26749C1.35311 1.26749 0.644991 2.01666 0.260141 2.48361C-0.294043 3.15582 0.06515 3.74592 1.33259 3.74592C2.72318 3.74592 5.94052 3.76131 5.94052 3.76131C5.94052 3.76131 7.3619 3.70487 7.77241 4.0538C7.98792 4.23853 8.25988 4.27445 8.53698 4.95178C10.3022 9.20052 16.6291 23.404 16.9524 24.1122C17.5938 25.5284 18.9433 25.5541 18.9433 25.5541L21.6783 25.5284C22.5147 25.5284 23.7924 25.1692 24.2388 23.989L28.4876 8.80541C28.621 8.38464 28.9956 8.25636 29.2522 8.44622" fill="white"/>
<path d="M32.6554 1.51379L29.6484 9.41604L30.1154 11.0068L33.1172 3.11477C32.8401 2.15521 32.6657 1.54971 32.6657 1.54971C32.6657 1.53945 32.6605 1.52406 32.6554 1.51379Z" fill="white"/>
<path d="M30.4609 12.1613L30.9125 13.6955L33.9092 5.82407C33.7501 5.26989 33.5962 4.75675 33.4576 4.27954L30.4609 12.1613Z" fill="white"/>
<path d="M31.25 14.8501L31.6297 16.1381L34.6213 8.27686C34.493 7.8407 34.3698 7.40453 34.2467 6.98376L31.2551 14.8501H31.25Z" fill="white"/>
<path d="M37.1707 16.9436L34.3125 24.4559C34.5434 24.7638 34.7897 24.9947 35.0411 25.1537L37.7197 18.1135C37.5555 18.0058 37.4734 17.8467 37.3862 17.6261C37.3554 17.5388 37.2784 17.2977 37.1707 16.9436Z" fill="#76BC21"/>
<path d="M33.4766 22.4034L33.8152 23.5528C33.8255 23.5785 33.8358 23.599 33.846 23.6247L36.8222 15.8045C36.7144 15.4351 36.5913 15.0143 36.4579 14.5679L33.4766 22.4085V22.4034Z" fill="#76BC21"/>
<path d="M32.7317 19.8685L33.1371 21.2488L36.1184 13.4082C35.9901 12.9669 35.8515 12.4999 35.713 12.0227L32.7266 19.8685H32.7317Z" fill="#76BC21"/>
<path d="M31.9688 17.2875L32.3895 18.7191L35.376 10.8733C35.2374 10.3961 35.0937 9.91887 34.9552 9.43652L31.9688 17.2926V17.2875Z" fill="#76BC21"/>
<path d="M50.887 0.574677C50.574 0.0204928 49.1115 0.128251 49.1115 0.128251C49.1115 0.128251 41.2298 -3.24417e-05 40.1933 0.0358869C39.403 0.0666749 38.6949 0.148776 38.1305 0.477181C37.5712 0.805586 37.1247 1.73436 36.7399 2.53998C36.5192 2.99666 35.8778 3.84847 37.3762 3.84847C37.5917 3.84847 42.1227 3.80741 42.9488 3.84847C43.2156 3.86386 43.816 4.11016 43.5338 4.74645C43.5338 4.74645 39.1773 16.5331 38.8489 17.2977C38.7873 17.4362 38.7257 17.5902 38.6539 17.7338L35.7188 25.4462C35.9445 25.5027 36.1498 25.5232 36.314 25.5232L39.0387 25.5489C39.0387 25.5489 40.3677 25.5232 40.9168 24.9998C41.5428 24.4046 41.7378 23.8453 41.8353 23.599L50.5945 1.78054C50.5945 1.78054 51.0255 0.831243 50.887 0.574677Z" fill="#76BC21"/>
<path d="M49.009 38.1925V41.6715H47.3516V32.7687H50.066C50.6715 32.7687 51.1949 32.8303 51.626 32.9534C52.057 33.0817 52.4162 33.2562 52.6933 33.4819C52.9704 33.7077 53.1756 33.9797 53.3039 34.2927C53.4322 34.6057 53.4989 34.9546 53.4989 35.3292C53.4989 35.6268 53.4527 35.9142 53.3655 36.181C53.2782 36.4478 53.15 36.689 52.9858 36.9097C52.8216 37.1252 52.6163 37.3202 52.37 37.4844C52.1237 37.6486 51.8466 37.782 51.5336 37.8795C51.744 37.9975 51.9236 38.172 52.0775 38.3926L54.3045 41.6818H52.8164C52.6728 41.6818 52.5496 41.651 52.4521 41.5946C52.3495 41.5381 52.2674 41.456 52.1955 41.3483L50.3226 38.4952C50.2508 38.3875 50.1738 38.3105 50.0917 38.2695C50.0096 38.2233 49.8813 38.2028 49.7171 38.2028H49.009V38.1925ZM49.009 37.0072H50.0455C50.3585 37.0072 50.6305 36.9661 50.8614 36.8891C51.0923 36.8122 51.2822 36.7044 51.4361 36.5659C51.59 36.4273 51.6978 36.2631 51.7696 36.0784C51.8466 35.8885 51.8825 35.6833 51.8825 35.4575C51.8825 35.0059 51.7337 34.657 51.4361 34.4158C51.1385 34.1747 50.6818 34.0515 50.0712 34.0515H49.0141V37.0072H49.009Z" fill="#76BC21"/>
<path d="M60.5824 32.7687V34.0874H56.6364V36.5556H59.746V37.8282H56.6364V40.3476H60.5824V41.6715H54.9688V32.7687H60.5824Z" fill="#76BC21"/>
<path d="M62.6742 32.7789C62.7256 32.7841 62.7666 32.7995 62.8077 32.8149C62.8487 32.8354 62.8846 32.861 62.9205 32.897C62.9565 32.9329 62.9975 32.9791 63.0437 33.0355L67.7183 38.9879C67.7029 38.8442 67.6927 38.7056 67.6824 38.5671C67.6773 38.4285 67.6722 38.3003 67.6722 38.1822V32.7687H69.1295V41.6715H68.2725C68.1391 41.6715 68.0314 41.651 67.9441 41.61C67.8569 41.5689 67.7748 41.4971 67.6927 41.3893L63.0386 35.4575C63.0488 35.5909 63.0591 35.7192 63.0642 35.8475C63.0694 35.9758 63.0745 36.0938 63.0745 36.2015V41.6715H61.6172V32.7687H62.4844C62.5562 32.7687 62.6178 32.7687 62.6691 32.7789" fill="#76BC21"/>
<path d="M76.8139 32.7687V34.1285H74.1353V41.6715H72.4779V34.1285H69.7891V32.7687H76.8139Z" fill="#76BC21"/>
<path d="M87.2835 41.6715H86.0007C85.857 41.6715 85.739 41.6356 85.6466 41.5638C85.5543 41.4919 85.4876 41.4047 85.4465 41.2969L84.7795 39.4805H81.09L80.423 41.2969C80.3922 41.3893 80.3255 41.4765 80.228 41.5535C80.1305 41.6305 80.0124 41.6715 79.8739 41.6715H78.5859L82.0855 32.7687H83.7788L87.2784 41.6715H87.2835ZM81.5211 38.3105H84.3587L83.276 35.3497C83.2247 35.2163 83.1734 35.0624 83.1118 34.8828C83.0502 34.7032 82.9937 34.5082 82.9373 34.3029C82.8809 34.5133 82.8244 34.7083 82.768 34.8879C82.7115 35.0675 82.6602 35.2266 82.6038 35.36L81.5211 38.3105Z" fill="#76BC21"/>
<path d="M95.9082 39.5728C96.0006 39.5728 96.0776 39.6087 96.1443 39.6754L96.796 40.3835C96.4316 40.83 95.9903 41.1738 95.4618 41.4098C94.9333 41.6458 94.3021 41.769 93.5632 41.769C92.9013 41.769 92.3061 41.6561 91.7775 41.4303C91.249 41.2045 90.7974 40.8915 90.428 40.4862C90.0534 40.0859 89.766 39.6036 89.5711 39.0443C89.3709 38.4849 89.2734 37.8743 89.2734 37.2175C89.2734 36.5607 89.3863 35.9347 89.607 35.3805C89.8276 34.8263 90.1406 34.344 90.5409 33.9437C90.9411 33.5435 91.4235 33.2305 91.9879 33.0047C92.5472 32.7789 93.1681 32.6711 93.8455 32.6711C94.5228 32.6711 95.0821 32.7789 95.5798 32.9893C96.0724 33.1997 96.4984 33.4819 96.8524 33.8308L96.2982 34.6005C96.2674 34.6518 96.2213 34.6929 96.1699 34.7288C96.1186 34.7647 96.0468 34.7853 95.9596 34.7853C95.8723 34.7853 95.7697 34.7493 95.6722 34.6724C95.5747 34.6005 95.4464 34.5184 95.2976 34.4312C95.1437 34.344 94.9538 34.267 94.7229 34.19C94.492 34.1182 94.1944 34.0771 93.8403 34.0771C93.4195 34.0771 93.0347 34.149 92.6858 34.2978C92.3368 34.4415 92.0341 34.6518 91.7827 34.9238C91.5312 35.1958 91.3311 35.5242 91.1926 35.9141C91.0489 36.3041 90.9822 36.7403 90.9822 37.2226C90.9822 37.705 91.054 38.1668 91.1926 38.5568C91.3362 38.9468 91.5261 39.2752 91.7673 39.542C92.0084 39.8088 92.2958 40.0141 92.6242 40.1526C92.9526 40.2963 93.3067 40.363 93.6812 40.363C93.907 40.363 94.1123 40.3527 94.2919 40.3271C94.4766 40.3014 94.6408 40.2655 94.7947 40.2091C94.9487 40.1578 95.0924 40.0859 95.2309 40.0038C95.3695 39.9217 95.5029 39.814 95.6414 39.6908C95.6825 39.6549 95.7235 39.6241 95.7697 39.6036C95.8159 39.583 95.8621 39.5677 95.9185 39.5677" fill="#76BC21"/>
<path d="M105.479 41.6715H104.196C104.052 41.6715 103.934 41.6356 103.842 41.5638C103.75 41.4919 103.683 41.4047 103.642 41.2969L102.975 39.4805H99.2853L98.6183 41.2969C98.5875 41.3893 98.5208 41.4765 98.4233 41.5535C98.3258 41.6305 98.2078 41.6715 98.0692 41.6715H96.7812L100.281 32.7687H101.974L105.474 41.6715H105.479ZM99.7164 38.3105H102.554L101.471 35.3497C101.42 35.2163 101.369 35.0624 101.307 34.8828C101.246 34.7032 101.189 34.5082 101.133 34.3029C101.076 34.5133 101.02 34.7083 100.963 34.8879C100.907 35.0675 100.856 35.2266 100.799 35.36L99.7164 38.3105Z" fill="#76BC21"/>
<path d="M107.712 38.1925V41.6715H106.055V32.7687H108.769C109.375 32.7687 109.898 32.8303 110.329 32.9534C110.76 33.0817 111.119 33.2562 111.396 33.4819C111.673 33.7077 111.879 33.9797 112.007 34.2927C112.135 34.6057 112.202 34.9546 112.202 35.3292C112.202 35.6268 112.156 35.9142 112.069 36.181C111.981 36.4478 111.853 36.689 111.689 36.9097C111.525 37.1252 111.319 37.3202 111.073 37.4844C110.827 37.6486 110.55 37.782 110.237 37.8795C110.447 37.9975 110.627 38.172 110.781 38.3926L113.008 41.6818H111.52C111.376 41.6818 111.253 41.651 111.155 41.5946C111.053 41.5381 110.971 41.456 110.899 41.3483L109.026 38.4952C108.954 38.3875 108.877 38.3105 108.795 38.2695C108.713 38.2233 108.584 38.2028 108.42 38.2028H107.712V38.1925ZM107.712 37.0072H108.749C109.062 37.0072 109.334 36.9661 109.565 36.8891C109.795 36.8122 109.985 36.7044 110.139 36.5659C110.293 36.4273 110.401 36.2631 110.473 36.0784C110.55 35.8885 110.586 35.6833 110.586 35.4575C110.586 35.0059 110.437 34.657 110.139 34.4158C109.842 34.1747 109.385 34.0515 108.774 34.0515H107.717V37.0072H107.712Z" fill="#76BC21"/>
</g>
<defs>
<clipPath id="clip0_1116_14797">
<rect width="160" height="41.769" fill="white"/>
</clipPath>
</defs>
</svg>
