<svg width="49" height="24" viewBox="0 0 49 24" fill="none" xmlns="http://www.w3.org/2000/svg">
<g clip-path="url(#clip0_659_8744)">
<path d="M8.81277 19.4438L8.74208 19.9822C8.71012 20.2475 8.91928 20.4809 9.19041 20.4809H26.7017C26.9738 20.4809 27.183 20.2475 27.152 19.9822L27.0794 19.4438C27.0358 19.0245 27.3418 18.6411 27.7601 18.5975C28.1813 18.552 28.5532 18.8589 28.5967 19.2773L28.6645 19.8011C28.8011 20.9718 28.1368 22.0002 26.9535 22.0002H8.93962C7.75632 22.0002 7.09204 20.9728 7.22858 19.8011L7.29636 19.2773C7.3409 18.8589 7.71177 18.552 8.13106 18.5975C8.55035 18.642 8.85537 19.0245 8.81277 19.4438Z" fill="#D60510"/>
<path d="M25.0017 15.3847C25.8538 15.3866 26.5326 14.7659 26.5152 13.9486C26.4978 13.112 25.7367 12.5717 24.8874 12.5707H23.1735C22.7939 12.5707 22.4821 12.255 22.4821 11.8599C22.4821 11.4639 22.7929 11.1472 23.1735 11.1472H24.319C25.0908 11.1163 25.6863 10.6485 25.7231 9.91842C25.7619 9.13698 25.0898 8.55017 24.2677 8.55017H21.4886L21.477 15.3856H25.0017V15.3847ZM27.1088 9.91358C27.1088 10.6263 26.8561 11.0301 26.4377 11.5268L26.3961 11.5772L26.4542 11.613C27.2821 12.1175 27.8602 12.8806 27.9028 13.9515C27.9667 15.5473 26.615 16.8672 25.0095 16.8643H20.7779C20.3663 16.8643 20.0332 16.5215 20.0332 16.1003V7.89268C20.0332 7.46951 20.3663 7.12866 20.7759 7.12866L24.2697 7.13835C25.7928 7.13931 27.1088 8.2587 27.1088 9.91358Z" fill="black"/>
<path d="M13.4717 14.0501L13.4911 14.1082L13.5124 14.0501C13.709 13.5098 13.9453 12.9114 14.1961 12.2587C14.4546 11.5722 14.7122 10.9156 14.9697 10.2901C15.2302 9.65487 15.4762 9.0884 15.7115 8.59455C15.9458 8.09005 16.1405 7.74338 16.2906 7.55359C16.522 7.27665 16.828 7.13721 17.2085 7.13721H17.3838C17.6172 7.13721 17.7992 7.19821 17.9357 7.31441C18.0607 7.42383 18.1352 7.54972 18.1565 7.694L19.2498 16.1746C19.2498 16.3935 19.1868 16.562 19.0629 16.6879C18.9389 16.805 18.7617 16.8631 18.5303 16.8631C18.2989 16.8631 18.1149 16.8079 17.9803 16.7004C17.8312 16.593 17.746 16.4516 17.7247 16.2763C17.6879 15.9945 17.654 15.6808 17.6201 15.337C17.5717 14.9942 17.4012 13.5146 17.3528 13.1418C17.3083 12.7574 17.0003 10.3618 16.8958 9.49122L16.8861 9.41763L16.5355 10.1526C16.4164 10.4053 16.2876 10.7094 16.1463 11.0628C16.0068 11.4163 15.8635 11.79 15.7231 12.1842C15.5701 12.5666 14.8932 14.5014 14.8932 14.5014C14.8303 14.6766 14.7112 15.0301 14.6037 15.3554C14.4943 15.6789 14.3946 15.9713 14.3674 16.0275C14.2067 16.347 13.893 16.5581 13.494 16.561C13.0902 16.5591 12.7765 16.347 12.6177 16.0275C12.5886 15.9713 12.4889 15.6779 12.3795 15.3554C12.27 15.0301 12.1538 14.6766 12.088 14.5014C12.088 14.5014 11.4111 12.5666 11.2601 12.1842C11.1187 11.79 10.9773 11.4172 10.8359 11.0628C10.6946 10.7094 10.5658 10.4053 10.4496 10.1526L10.0971 9.41763L10.0894 9.49122C9.98284 10.3618 9.67782 12.7574 9.63134 13.1418C9.58292 13.5146 9.41249 14.9942 9.36601 15.337C9.33019 15.6808 9.29533 15.9945 9.25853 16.2763C9.23723 16.4516 9.15201 16.593 9.00483 16.7004C8.86829 16.8079 8.68528 16.8631 8.45288 16.8631C8.22145 16.8631 8.04618 16.805 7.92223 16.6879C7.79829 16.562 7.73534 16.3916 7.73438 16.1746L8.82762 7.694C8.85183 7.54972 8.92445 7.42383 9.04937 7.31441C9.18494 7.19821 9.36989 7.13721 9.59938 7.13721H9.77659C10.1581 7.13721 10.4631 7.27762 10.6936 7.55359C10.8447 7.74338 11.0374 8.08908 11.2727 8.59455C11.5089 9.0884 11.7549 9.65487 12.0144 10.2901C12.272 10.9156 12.5305 11.5722 12.79 12.2587C13.0389 12.9114 13.2752 13.5098 13.4717 14.0501Z" fill="black"/>
<path d="M11.3217 2.00024H24.6227C25.8757 2.00024 26.4993 2.94146 26.6455 4.18189L26.7017 4.57891C26.7462 5.00498 26.4335 5.3865 26.0152 5.43104C25.5959 5.47559 25.2192 5.16766 25.1756 4.74159L25.1224 4.362C25.0662 3.89043 24.8667 3.5273 24.3874 3.5273H11.557C11.0777 3.5273 10.8782 3.89043 10.822 4.362L10.7707 4.74159C10.7271 5.16766 10.3514 5.47655 9.92923 5.43104C9.50994 5.3865 9.19717 5.00498 9.24268 4.57891L9.29885 4.18189C9.447 2.94049 10.0696 2.00024 11.3217 2.00024Z" fill="#D60510"/>
<path d="M35.2492 10.9378C35.1572 11.2932 35.0623 11.6728 34.9626 12.0766C34.8629 12.4785 34.7631 12.8648 34.6653 13.2328C34.5685 13.6007 34.4775 13.9222 34.3884 14.2011C34.3012 14.479 34.2276 14.6688 34.1695 14.7715C34.0669 14.9535 33.8848 15.0436 33.6263 15.0436C33.5537 15.0436 33.4607 15.029 33.3435 14.999C33.2273 14.97 33.1315 14.8877 33.0521 14.7531C32.994 14.6504 32.9214 14.4509 32.8332 14.1527C32.7461 13.8554 32.6551 13.5146 32.5563 13.1263C32.4595 12.7389 32.3636 12.3284 32.2648 11.8955C32.168 11.4627 32.0799 11.0628 32.0024 10.689C31.9249 10.3191 31.8591 10.0005 31.8078 9.74001C31.7564 9.47759 31.7274 9.32363 31.7206 9.27037C31.7138 9.23842 31.7109 9.21615 31.7109 9.20259V9.16386C31.7109 9.05443 31.7516 8.96438 31.8368 8.8966C31.9201 8.82881 32.0247 8.79492 32.1477 8.79492C32.2648 8.79492 32.3588 8.82107 32.4304 8.86851C32.5011 8.91499 32.5524 9.00214 32.5844 9.12415C32.5844 9.13674 32.6037 9.23164 32.6376 9.40594C32.6744 9.57927 32.7199 9.80295 32.7742 10.0731C32.8303 10.3452 32.8913 10.6473 32.9591 10.9834C33.0269 11.3194 33.0976 11.6602 33.1731 12.0059C33.2467 12.3497 33.3222 12.6828 33.3968 13.0081C33.4704 13.3296 33.5401 13.6085 33.606 13.8399C33.6699 13.6211 33.7406 13.3703 33.82 13.0885C33.8974 12.8087 33.9759 12.5172 34.0533 12.2189C34.1308 11.9178 34.2044 11.6186 34.277 11.3184C34.3477 11.0172 34.4136 10.7384 34.4765 10.4808C34.5375 10.2222 34.5908 9.99372 34.6353 9.79424C34.6798 9.59283 34.7157 9.44467 34.7428 9.34687C34.7747 9.22486 34.8357 9.12803 34.9258 9.05734C35.0188 8.98665 35.1272 8.94985 35.257 8.94985C35.3983 8.94985 35.5155 8.98859 35.6075 9.06218C35.6956 9.13674 35.7557 9.23261 35.7808 9.34687C35.8535 9.66351 35.93 10.0179 36.0142 10.4082C36.0975 10.7974 36.1866 11.1935 36.2766 11.5934C36.3686 11.9933 36.4635 12.3865 36.5584 12.7709C36.6562 13.1553 36.7501 13.4962 36.8412 13.7925C36.9051 13.561 36.9758 13.2822 37.0503 12.9607C37.1239 12.6353 37.1994 12.3042 37.2769 11.9623C37.3553 11.6215 37.4299 11.2816 37.5006 10.9456C37.5732 10.6105 37.6371 10.3084 37.6972 10.0402C37.7553 9.77294 37.8017 9.55409 37.8376 9.38754C37.8734 9.21905 37.8908 9.1319 37.8908 9.12512C37.9228 9.00311 37.9741 8.91596 38.0467 8.86948C38.1174 8.82107 38.2123 8.79589 38.3285 8.79589C38.4505 8.79589 38.5551 8.82978 38.6384 8.89756C38.7236 8.96535 38.7652 9.0554 38.7652 9.16482V9.20356C38.7652 9.21614 38.7623 9.23939 38.7555 9.27134C38.7507 9.3246 38.7188 9.47856 38.6626 9.74098C38.6093 10.0015 38.5425 10.32 38.465 10.6899C38.3866 11.0628 38.2995 11.4617 38.2017 11.8916C38.1068 12.3206 38.0099 12.7293 37.917 13.1156C37.8221 13.5029 37.732 13.8448 37.6439 14.1382C37.5568 14.4306 37.4832 14.6301 37.4251 14.7327C37.3476 14.8683 37.2498 14.9545 37.1297 14.9903C37.0087 15.0261 36.9138 15.0436 36.8431 15.0436C36.816 15.0436 36.7792 15.0407 36.7259 15.0339C36.6746 15.0261 36.6194 15.0145 36.5603 14.9942C36.5022 14.9758 36.4441 14.9448 36.387 14.9032C36.327 14.8596 36.2824 14.8034 36.2505 14.7327C36.1924 14.6107 36.1217 14.4064 36.0413 14.1236C35.9609 13.839 35.8728 13.5194 35.7789 13.1602C35.6859 12.8009 35.592 12.4271 35.502 12.0359C35.4109 11.6457 35.3257 11.2787 35.2492 10.9378Z" fill="black"/>
<path d="M40.3286 13.2522C40.2308 13.563 40.1456 13.8487 40.071 14.113C39.9955 14.3774 39.9267 14.5953 39.8619 14.7628C39.7892 14.9506 39.6479 15.0446 39.4339 15.0446C39.2847 15.0446 39.1763 15.0078 39.1075 14.9332C39.0397 14.8577 39.0059 14.7628 39.0059 14.6466C39.0059 14.602 39.0126 14.5594 39.0252 14.5197C39.0378 14.4829 39.0785 14.3493 39.1472 14.1237C39.215 13.899 39.3031 13.6172 39.4145 13.2812C39.5239 12.9452 39.6459 12.5772 39.7776 12.1783C39.9112 11.7784 40.0478 11.3823 40.1911 10.9911C40.3325 10.5999 40.4729 10.2349 40.6094 9.89788C40.745 9.55896 40.8718 9.28492 40.9871 9.07963C41.0403 8.97021 41.1091 8.89468 41.1962 8.85595C41.2843 8.81722 41.4025 8.79785 41.5526 8.79785C41.6959 8.79785 41.816 8.82206 41.9157 8.86563C42.0174 8.91211 42.0861 8.98958 42.1249 9.099C42.2168 9.2917 42.3263 9.55218 42.4512 9.87754C42.5771 10.2039 42.7107 10.5563 42.8482 10.934C42.9886 11.3116 43.1251 11.698 43.2617 12.0902C43.3982 12.4843 43.5241 12.8513 43.6364 13.1902C43.7487 13.5282 43.8475 13.8177 43.9279 14.0569C44.0083 14.296 44.0596 14.451 44.0789 14.5197C44.0906 14.5604 44.0983 14.602 44.0983 14.6466C44.0983 14.7628 44.0596 14.8577 43.9811 14.9332C43.9037 15.0068 43.7894 15.0446 43.6413 15.0446C43.5309 15.0446 43.4486 15.0203 43.3924 14.97C43.3391 14.9235 43.2946 14.8528 43.2617 14.7628C43.1978 14.5953 43.1203 14.3774 43.0331 14.113C42.946 13.8496 42.853 13.563 42.7562 13.2522H40.3286ZM42.486 12.4088C42.3495 11.9895 42.2207 11.6031 42.0968 11.2526C41.9728 10.9001 41.8479 10.566 41.7172 10.2494C41.6852 10.1787 41.6513 10.0983 41.6155 10.0015C41.5797 9.9095 41.5593 9.85333 41.5526 9.83397C41.5458 9.83881 41.5235 9.89303 41.4896 9.99277C41.4528 10.0925 41.4189 10.1777 41.387 10.2484C41.2582 10.5651 41.1323 10.9001 41.0113 11.2516C40.8922 11.6021 40.7634 11.9885 40.6288 12.4078H42.486V12.4088Z" fill="black"/>
<path d="M45.7822 12.6024C45.7502 12.5714 45.7192 12.5346 45.6902 12.4959C45.6602 12.4591 45.6292 12.4126 45.5972 12.3613C45.5052 12.2325 45.4094 12.0766 45.3009 11.8917C45.1934 11.7086 45.0869 11.5121 44.9794 11.3068C44.8729 11.0996 44.7703 10.8904 44.6705 10.6812C44.5689 10.4721 44.4778 10.2775 44.3984 10.0973C44.3161 9.9153 44.2474 9.75843 44.1893 9.6277C44.1292 9.49407 44.0924 9.40111 44.0818 9.34979C44.0692 9.31784 44.0614 9.29363 44.0576 9.27717C44.0556 9.26071 44.0527 9.2365 44.0527 9.20454C44.0527 9.08834 44.0934 8.99054 44.1738 8.91501C44.2561 8.83658 44.3665 8.79784 44.5098 8.79784C44.6386 8.79784 44.7306 8.8298 44.7867 8.89468C44.841 8.96052 44.8836 9.0254 44.9078 9.08931C44.9204 9.1232 44.9523 9.19195 45.0007 9.30138C45.0491 9.41273 45.1082 9.54733 45.1789 9.70808C45.2496 9.86882 45.3319 10.047 45.422 10.2407C45.5149 10.4353 45.605 10.6251 45.6999 10.8129C45.7928 10.9998 45.8848 11.178 45.972 11.3504C46.0591 11.5208 46.1424 11.6612 46.2199 11.7716C46.3438 11.5837 46.4755 11.3484 46.6188 11.0637C46.7602 10.779 46.8967 10.4992 47.0255 10.2223C47.1553 9.94435 47.2666 9.69839 47.3615 9.48536C47.4545 9.27136 47.5106 9.13967 47.5319 9.08834C47.5581 9.02443 47.5978 8.95955 47.653 8.89371C47.7072 8.8298 47.8011 8.79688 47.9299 8.79688C48.0732 8.79688 48.1836 8.83561 48.2659 8.91404C48.3463 8.98957 48.387 9.08737 48.387 9.20357C48.387 9.23553 48.385 9.25974 48.3821 9.2762C48.3792 9.29266 48.3705 9.31687 48.3599 9.34882C48.3395 9.40015 48.3018 9.49311 48.2475 9.63061C48.1933 9.76521 48.1236 9.92498 48.0423 10.1051C47.9619 10.2852 47.8718 10.4818 47.7721 10.6909C47.6704 10.902 47.5678 11.1093 47.4613 11.3165C47.3538 11.5218 47.2473 11.7203 47.1398 11.9072C47.0333 12.094 46.9335 12.2529 46.8435 12.3816C46.7854 12.4649 46.7224 12.5404 46.6585 12.6034V14.6088C46.6585 14.7376 46.6188 14.8422 46.5365 14.9245C46.4561 15.0029 46.3516 15.0455 46.2208 15.0455C46.0901 15.0455 45.9865 15.0039 45.9052 14.9245C45.8228 14.8422 45.7831 14.7376 45.7831 14.6088V12.6024H45.7822Z" fill="black"/>
</g>
<defs>
<clipPath id="clip0_659_8744">
<rect width="49" height="24" fill="white"/>
</clipPath>
</defs>
</svg>
