<svg width="56" height="56" viewBox="0 0 56 56" fill="none" xmlns="http://www.w3.org/2000/svg">
<mask id="mask0_655_4881" style="mask-type:alpha" maskUnits="userSpaceOnUse" x="0" y="0" width="56" height="56">
<rect width="56" height="56" fill="#D9D9D9"/>
</mask>
<g mask="url(#mask0_655_4881)">
<circle cx="16" cy="40" r="16" fill="#B9DD8B" fill-opacity="0.3"/>
<path d="M19.1287 46.6667C18.2634 46.6667 17.5087 46.3445 16.8647 45.7001C16.2204 45.0561 15.8982 44.3015 15.8982 43.4362V12.5639C15.8982 11.6986 16.2204 10.944 16.8647 10.3C17.5087 9.65557 18.2634 9.33337 19.1287 9.33337H36.8847C37.75 9.33337 38.5048 9.65557 39.1492 10.3C39.7932 10.944 40.1152 11.6986 40.1152 12.5639V43.4362C40.1152 44.3015 39.7932 45.0561 39.1492 45.7001C38.5048 46.3445 37.75 46.6667 36.8847 46.6667H19.1287ZM38.3203 43.4362V12.5639C38.3203 12.1454 38.1858 11.8015 37.9167 11.532C37.6475 11.2628 37.3036 11.1283 36.8847 11.1283H19.1287C18.7398 11.1283 18.4034 11.2628 18.1195 11.532C17.8352 11.8015 17.6931 12.1454 17.6931 12.5639V43.4362C17.6931 43.8547 17.8352 44.1986 18.1195 44.4681C18.4034 44.7372 18.7398 44.8718 19.1287 44.8718H36.8847C37.3036 44.8718 37.6475 44.7372 37.9167 44.4681C38.1858 44.1986 38.3203 43.8547 38.3203 43.4362ZM3.41016 32.7787V23.1765C3.41016 22.9513 3.49746 22.7454 3.67207 22.5587C3.8463 22.372 4.06232 22.2787 4.32016 22.2787C4.57799 22.2787 4.78993 22.372 4.95599 22.5587C5.12205 22.7454 5.20507 22.9513 5.20507 23.1765V32.7787C5.20507 33.033 5.11796 33.2462 4.94374 33.418C4.76913 33.5903 4.55291 33.6765 4.29507 33.6765C4.03724 33.6765 3.8253 33.5903 3.65924 33.418C3.49318 33.2462 3.41016 33.033 3.41016 32.7787ZM9.87174 37.688V18.312C9.87174 18.0577 9.95904 17.8446 10.1337 17.6727C10.3079 17.5008 10.5239 17.4149 10.7817 17.4149C11.0396 17.4149 11.2515 17.5008 11.4176 17.6727C11.5836 17.8446 11.6667 18.0577 11.6667 18.312V37.688C11.6667 37.9424 11.5794 38.1555 11.4047 38.3274C11.2305 38.4993 11.0145 38.5852 10.7567 38.5852C10.4988 38.5852 10.2869 38.4993 10.1208 38.3274C9.95477 38.1555 9.87174 37.9424 9.87174 37.688ZM50.7949 32.7787V23.1765C50.7949 22.9513 50.882 22.7454 51.0562 22.5587C51.2309 22.372 51.4471 22.2787 51.7049 22.2787C51.9627 22.2787 52.1747 22.372 52.3407 22.5587C52.5068 22.7454 52.5898 22.9513 52.5898 23.1765V32.7787C52.5898 33.033 52.5025 33.2462 52.3279 33.418C52.1537 33.5903 51.9377 33.6765 51.6798 33.6765C51.422 33.6765 51.21 33.5903 51.044 33.418C50.8779 33.2462 50.7949 33.033 50.7949 32.7787ZM44.3333 37.688V18.312C44.3333 18.0577 44.4206 17.8446 44.5952 17.6727C44.7695 17.5008 44.9855 17.4149 45.2433 17.4149C45.5012 17.4149 45.7131 17.5008 45.8792 17.6727C46.0452 17.8446 46.1282 18.0577 46.1282 18.312V37.688C46.1282 37.9424 46.0409 38.1555 45.8663 38.3274C45.6921 38.4993 45.4761 38.5852 45.2182 38.5852C44.9604 38.5852 44.7485 38.4993 44.5824 38.3274C44.4164 38.1555 44.3333 37.9424 44.3333 37.688ZM17.6931 43.4362V44.8718V11.1283V43.4362Z" fill="#528116"/>
<path d="M26.3458 29.4579L32.8494 23.5C33.0138 23.3356 33.2056 23.2535 33.4247 23.2535C33.6439 23.2535 33.8356 23.3356 34 23.5C34.1644 23.6644 34.2465 23.8595 34.2465 24.0856C34.2465 24.3116 34.1644 24.5067 34 24.6711L26.9211 31.2249C26.7567 31.3892 26.565 31.4714 26.3458 31.4714C26.1267 31.4714 25.9349 31.3892 25.7705 31.2249L22.2367 27.691C22.0723 27.5266 21.9936 27.3315 22.0004 27.1055C22.0073 26.8795 22.0929 26.6843 22.2572 26.5199C22.4216 26.3555 22.6168 26.2734 22.8428 26.2734C23.0688 26.2734 23.264 26.3555 23.4283 26.5199L26.3458 29.4579Z" fill="#528116"/>
</g>
</svg>
