<svg width="56" height="56" viewBox="0 0 56 56" fill="none" xmlns="http://www.w3.org/2000/svg">
<mask id="mask0_1031_14921" style="mask-type:alpha" maskUnits="userSpaceOnUse" x="0" y="0" width="56" height="56">
<rect width="56" height="56" fill="#D9D9D9"/>
</mask>
<g mask="url(#mask0_1031_14921)">
<circle cx="16" cy="40" r="16" fill="#B9DD8B" fill-opacity="0.3"/>
<mask id="path-3-outside-1_1031_14921" maskUnits="userSpaceOnUse" x="4" y="7" width="47" height="41" fill="black">
<rect fill="white" x="4" y="7" width="47" height="41"/>
<path d="M38.8916 8C40.3546 8 41.6813 8.86135 42.2764 10.1992L45.1875 16.75H49.5381C49.9728 16.7502 50.3252 17.1033 50.3252 17.5381C50.325 17.9727 49.9727 18.325 49.5381 18.3252H45.8877L47.1494 21.1631C48.9448 21.4195 50.3251 22.9629 50.3252 24.8291V36.4961C50.3252 38.2716 49.0757 39.7543 47.4082 40.1152V45.2461C47.4082 46.4866 46.4035 47.4919 45.1631 47.4922H40.7881C39.5475 47.4922 38.542 46.4867 38.542 45.2461V40.2002H16.7832V45.2461C16.7832 46.4866 15.7786 47.492 14.5381 47.4922H10.1631C8.92246 47.4922 7.91703 46.4867 7.91699 45.2461V40.1152C6.2496 39.7542 5.00003 38.2716 5 36.4961V24.8291C5.00013 22.9633 6.38 21.42 8.1748 21.1631L9.43652 18.3252H5.78809C5.35329 18.3252 5.00021 17.9728 5 17.5381C5 17.1032 5.35316 16.75 5.78809 16.75H10.1367L13.0488 10.1992C13.6438 8.86133 14.9706 8.00002 16.4336 8H38.8916ZM9.49219 45.2461C9.49223 45.6169 9.79231 45.917 10.1631 45.917H14.5381C14.9087 45.9169 15.2089 45.6168 15.209 45.2461V40.2002H9.49219V45.2461ZM40.1172 45.2461C40.1172 45.6169 40.4173 45.917 40.7881 45.917H45.1631C45.5336 45.9167 45.833 45.6167 45.833 45.2461V40.2002H40.1172V45.2461ZM8.7041 22.7002C7.52839 22.7003 6.57533 23.6534 6.5752 24.8291V36.4961C6.57523 37.6719 7.52833 38.6249 8.7041 38.625H46.6211C47.7969 38.625 48.75 37.6719 48.75 36.4961V24.8291C48.7499 23.6533 47.7969 22.7002 46.6211 22.7002H8.7041ZM14.5371 26.959C16.5829 26.959 18.2412 28.6173 18.2412 30.6631C18.241 32.7087 16.5828 34.3672 14.5371 34.3672C12.4916 34.3671 10.8332 32.7086 10.833 30.6631C10.833 28.6174 12.4915 26.9591 14.5371 26.959ZM40.7871 26.959C42.8329 26.959 44.4922 28.6173 44.4922 30.6631C44.492 32.7087 42.8328 34.3672 40.7871 34.3672C38.7417 34.367 37.0832 32.7086 37.083 30.6631C37.083 28.6175 38.7416 26.9592 40.7871 26.959ZM14.5371 28.5332C13.3613 28.5333 12.4082 29.4873 12.4082 30.6631C12.4084 31.8388 13.3614 32.7919 14.5371 32.792C15.7129 32.792 16.6658 31.8389 16.666 30.6631C16.666 29.4872 15.713 28.5332 14.5371 28.5332ZM40.7871 28.5332C39.6114 28.5334 38.6582 29.4873 38.6582 30.6631C38.6584 31.8387 39.6115 32.7918 40.7871 32.792C41.9629 32.792 42.9168 31.8389 42.917 30.6631C42.917 29.4872 41.963 28.5332 40.7871 28.5332ZM16.4336 9.5752C15.5926 9.57521 14.8303 10.0707 14.4883 10.8398L9.91602 21.125H45.4092L40.8379 10.8398C40.4958 10.0707 39.7326 9.5752 38.8916 9.5752H16.4336Z"/>
</mask>
<path d="M38.8916 8C40.3546 8 41.6813 8.86135 42.2764 10.1992L45.1875 16.75H49.5381C49.9728 16.7502 50.3252 17.1033 50.3252 17.5381C50.325 17.9727 49.9727 18.325 49.5381 18.3252H45.8877L47.1494 21.1631C48.9448 21.4195 50.3251 22.9629 50.3252 24.8291V36.4961C50.3252 38.2716 49.0757 39.7543 47.4082 40.1152V45.2461C47.4082 46.4866 46.4035 47.4919 45.1631 47.4922H40.7881C39.5475 47.4922 38.542 46.4867 38.542 45.2461V40.2002H16.7832V45.2461C16.7832 46.4866 15.7786 47.492 14.5381 47.4922H10.1631C8.92246 47.4922 7.91703 46.4867 7.91699 45.2461V40.1152C6.2496 39.7542 5.00003 38.2716 5 36.4961V24.8291C5.00013 22.9633 6.38 21.42 8.1748 21.1631L9.43652 18.3252H5.78809C5.35329 18.3252 5.00021 17.9728 5 17.5381C5 17.1032 5.35316 16.75 5.78809 16.75H10.1367L13.0488 10.1992C13.6438 8.86133 14.9706 8.00002 16.4336 8H38.8916ZM9.49219 45.2461C9.49223 45.6169 9.79231 45.917 10.1631 45.917H14.5381C14.9087 45.9169 15.2089 45.6168 15.209 45.2461V40.2002H9.49219V45.2461ZM40.1172 45.2461C40.1172 45.6169 40.4173 45.917 40.7881 45.917H45.1631C45.5336 45.9167 45.833 45.6167 45.833 45.2461V40.2002H40.1172V45.2461ZM8.7041 22.7002C7.52839 22.7003 6.57533 23.6534 6.5752 24.8291V36.4961C6.57523 37.6719 7.52833 38.6249 8.7041 38.625H46.6211C47.7969 38.625 48.75 37.6719 48.75 36.4961V24.8291C48.7499 23.6533 47.7969 22.7002 46.6211 22.7002H8.7041ZM14.5371 26.959C16.5829 26.959 18.2412 28.6173 18.2412 30.6631C18.241 32.7087 16.5828 34.3672 14.5371 34.3672C12.4916 34.3671 10.8332 32.7086 10.833 30.6631C10.833 28.6174 12.4915 26.9591 14.5371 26.959ZM40.7871 26.959C42.8329 26.959 44.4922 28.6173 44.4922 30.6631C44.492 32.7087 42.8328 34.3672 40.7871 34.3672C38.7417 34.367 37.0832 32.7086 37.083 30.6631C37.083 28.6175 38.7416 26.9592 40.7871 26.959ZM14.5371 28.5332C13.3613 28.5333 12.4082 29.4873 12.4082 30.6631C12.4084 31.8388 13.3614 32.7919 14.5371 32.792C15.7129 32.792 16.6658 31.8389 16.666 30.6631C16.666 29.4872 15.713 28.5332 14.5371 28.5332ZM40.7871 28.5332C39.6114 28.5334 38.6582 29.4873 38.6582 30.6631C38.6584 31.8387 39.6115 32.7918 40.7871 32.792C41.9629 32.792 42.9168 31.8389 42.917 30.6631C42.917 29.4872 41.963 28.5332 40.7871 28.5332ZM16.4336 9.5752C15.5926 9.57521 14.8303 10.0707 14.4883 10.8398L9.91602 21.125H45.4092L40.8379 10.8398C40.4958 10.0707 39.7326 9.5752 38.8916 9.5752H16.4336Z" fill="#528116"/>
<path d="M42.2764 10.1992L42.3677 10.1586L42.3677 10.1586L42.2764 10.1992ZM45.1875 16.75L45.0961 16.7906C45.1122 16.8267 45.148 16.85 45.1875 16.85V16.75ZM49.5381 16.75L49.5381 16.65H49.5381V16.75ZM50.3252 17.5381L50.4252 17.5381V17.5381H50.3252ZM49.5381 18.3252V18.4252H49.5381L49.5381 18.3252ZM45.8877 18.3252V18.2252C45.8538 18.2252 45.8223 18.2423 45.8038 18.2707C45.7854 18.2991 45.7826 18.3349 45.7963 18.3658L45.8877 18.3252ZM47.1494 21.1631L47.058 21.2037C47.072 21.2352 47.1012 21.2572 47.1353 21.2621L47.1494 21.1631ZM50.3252 24.8291H50.4252V24.8291L50.3252 24.8291ZM50.3252 36.4961L50.4252 36.4961V36.4961H50.3252ZM47.4082 40.1152L47.387 40.0175C47.341 40.0275 47.3082 40.0682 47.3082 40.1152H47.4082ZM47.4082 45.2461L47.5082 45.2461V45.2461H47.4082ZM45.1631 47.4922V47.5922H45.1631L45.1631 47.4922ZM38.542 45.2461H38.442V45.2461L38.542 45.2461ZM38.542 40.2002H38.642C38.642 40.145 38.5972 40.1002 38.542 40.1002V40.2002ZM16.7832 40.2002V40.1002C16.728 40.1002 16.6832 40.145 16.6832 40.2002H16.7832ZM16.7832 45.2461L16.8832 45.2461V45.2461H16.7832ZM14.5381 47.4922V47.5922H14.5381L14.5381 47.4922ZM7.91699 45.2461H7.81699V45.2461L7.91699 45.2461ZM7.91699 40.1152H8.01699C8.01699 40.0682 7.98416 40.0275 7.93815 40.0175L7.91699 40.1152ZM5 36.4961H4.9V36.4961L5 36.4961ZM5 24.8291L4.9 24.8291V24.8291H5ZM8.1748 21.1631L8.18898 21.2621C8.22304 21.2572 8.2522 21.2352 8.26618 21.2037L8.1748 21.1631ZM9.43652 18.3252L9.5279 18.3658C9.54165 18.3349 9.53882 18.2991 9.52038 18.2707C9.50193 18.2423 9.47038 18.2252 9.43652 18.2252V18.3252ZM5 17.5381H4.9L4.9 17.5381L5 17.5381ZM10.1367 16.75V16.85C10.1762 16.85 10.212 16.8267 10.2281 16.7906L10.1367 16.75ZM13.0488 10.1992L12.9575 10.1586L12.9575 10.1586L13.0488 10.1992ZM16.4336 8V7.9H16.4336L16.4336 8ZM9.49219 45.2461H9.39219V45.2461L9.49219 45.2461ZM14.5381 45.917V46.017H14.5381L14.5381 45.917ZM15.209 45.2461L15.309 45.2461V45.2461H15.209ZM15.209 40.2002H15.309C15.309 40.145 15.2642 40.1002 15.209 40.1002V40.2002ZM9.49219 40.2002V40.1002C9.43696 40.1002 9.39219 40.145 9.39219 40.2002H9.49219ZM40.1172 45.2461H40.0172V45.2461L40.1172 45.2461ZM45.1631 45.917V46.017H45.1632L45.1631 45.917ZM45.833 45.2461L45.933 45.2461V45.2461H45.833ZM45.833 40.2002H45.933C45.933 40.145 45.8882 40.1002 45.833 40.1002V40.2002ZM40.1172 40.2002V40.1002C40.062 40.1002 40.0172 40.145 40.0172 40.2002H40.1172ZM8.7041 22.7002V22.6002H8.70409L8.7041 22.7002ZM6.5752 24.8291L6.4752 24.8291V24.8291H6.5752ZM6.5752 36.4961H6.4752V36.4961L6.5752 36.4961ZM8.7041 38.625L8.70409 38.725H8.7041V38.625ZM46.6211 38.625V38.725H46.6211L46.6211 38.625ZM48.75 36.4961L48.85 36.4961V36.4961H48.75ZM48.75 24.8291H48.85V24.8291L48.75 24.8291ZM46.6211 22.7002L46.6211 22.6002H46.6211V22.7002ZM14.5371 26.959V26.859H14.5371L14.5371 26.959ZM18.2412 30.6631L18.3412 30.6631V30.6631H18.2412ZM14.5371 34.3672L14.5371 34.4672H14.5371V34.3672ZM10.833 30.6631H10.733V30.6631L10.833 30.6631ZM40.7871 26.959V26.859H40.7871L40.7871 26.959ZM44.4922 30.6631L44.5922 30.6631V30.6631H44.4922ZM40.7871 34.3672L40.7871 34.4672H40.7871V34.3672ZM37.083 30.6631H36.983V30.6631L37.083 30.6631ZM14.5371 28.5332V28.4332H14.5371L14.5371 28.5332ZM12.4082 30.6631H12.3082V30.6631L12.4082 30.6631ZM14.5371 32.792L14.5371 32.892H14.5371V32.792ZM16.666 30.6631L16.766 30.6631V30.6631H16.666ZM40.7871 28.5332V28.4332H40.7871L40.7871 28.5332ZM38.6582 30.6631H38.5582V30.6631L38.6582 30.6631ZM40.7871 32.792L40.7871 32.892H40.7871V32.792ZM42.917 30.6631L43.017 30.6631V30.6631H42.917ZM16.4336 9.5752V9.4752H16.4336L16.4336 9.5752ZM14.4883 10.8398L14.3969 10.7992L14.3969 10.7992L14.4883 10.8398ZM9.91602 21.125L9.82464 21.0844C9.81089 21.1153 9.81372 21.1511 9.83216 21.1795C9.85061 21.2079 9.88216 21.225 9.91602 21.225V21.125ZM45.4092 21.125V21.225C45.443 21.225 45.4746 21.2079 45.493 21.1795C45.5115 21.1511 45.5143 21.1153 45.5006 21.0844L45.4092 21.125ZM40.8379 10.8398L40.9293 10.7992L40.9293 10.7992L40.8379 10.8398ZM38.8916 8V8.1C40.3151 8.1 41.606 8.93809 42.185 10.2399L42.2764 10.1992L42.3677 10.1586C41.7566 8.7846 40.3941 7.9 38.8916 7.9V8ZM42.2764 10.1992L42.185 10.2398L45.0961 16.7906L45.1875 16.75L45.2789 16.7094L42.3677 10.1586L42.2764 10.1992ZM45.1875 16.75V16.85H49.5381V16.75V16.65H45.1875V16.75ZM49.5381 16.75L49.538 16.85C49.9175 16.8502 50.2252 17.1584 50.2252 17.5381H50.3252H50.4252C50.4252 17.0482 50.0282 16.6503 49.5381 16.65L49.5381 16.75ZM50.3252 17.5381L50.2252 17.538C50.225 17.9174 49.9174 18.225 49.538 18.2252L49.5381 18.3252L49.5381 18.4252C50.0279 18.4249 50.425 18.0279 50.4252 17.5381L50.3252 17.5381ZM49.5381 18.3252V18.2252H45.8877V18.3252V18.4252H49.5381V18.3252ZM45.8877 18.3252L45.7963 18.3658L47.058 21.2037L47.1494 21.1631L47.2408 21.1225L45.9791 18.2846L45.8877 18.3252ZM47.1494 21.1631L47.1353 21.2621C48.8821 21.5116 50.2251 23.0134 50.2252 24.8291L50.3252 24.8291L50.4252 24.8291C50.4251 22.9124 49.0075 21.3275 47.1636 21.0641L47.1494 21.1631ZM50.3252 24.8291H50.2252V36.4961H50.3252H50.4252V24.8291H50.3252ZM50.3252 36.4961L50.2252 36.4961C50.2252 38.2235 49.0095 39.6663 47.387 40.0175L47.4082 40.1152L47.4294 40.213C49.1418 39.8423 50.4252 38.3197 50.4252 36.4961L50.3252 36.4961ZM47.4082 40.1152H47.3082V45.2461H47.4082H47.5082V40.1152H47.4082ZM47.4082 45.2461L47.3082 45.2461C47.3082 46.4314 46.3482 47.3919 45.1631 47.3922L45.1631 47.4922L45.1631 47.5922C46.4588 47.5919 47.5082 46.5417 47.5082 45.2461L47.4082 45.2461ZM45.1631 47.4922V47.3922H40.7881V47.4922V47.5922H45.1631V47.4922ZM40.7881 47.4922V47.3922C39.6027 47.3922 38.642 46.4315 38.642 45.2461L38.542 45.2461L38.442 45.2461C38.442 46.5419 39.4922 47.5922 40.7881 47.5922V47.4922ZM38.542 45.2461H38.642V40.2002H38.542H38.442V45.2461H38.542ZM38.542 40.2002V40.1002H16.7832V40.2002V40.3002H38.542V40.2002ZM16.7832 40.2002H16.6832V45.2461H16.7832H16.8832V40.2002H16.7832ZM16.7832 45.2461L16.6832 45.2461C16.6832 46.4314 15.7233 47.3921 14.5381 47.3922L14.5381 47.4922L14.5381 47.5922C15.8339 47.592 16.8832 46.5418 16.8832 45.2461L16.7832 45.2461ZM14.5381 47.4922V47.3922H10.1631V47.4922V47.5922H14.5381V47.4922ZM10.1631 47.4922V47.3922C8.97769 47.3922 8.01703 46.4315 8.01699 45.2461L7.91699 45.2461L7.81699 45.2461C7.81703 46.5419 8.86723 47.5922 10.1631 47.5922V47.4922ZM7.91699 45.2461H8.01699V40.1152H7.91699H7.81699V45.2461H7.91699ZM7.91699 40.1152L7.93815 40.0175C6.31575 39.6662 5.10003 38.2234 5.1 36.4961L5 36.4961L4.9 36.4961C4.90003 38.3197 6.18345 39.8422 7.89583 40.213L7.91699 40.1152ZM5 36.4961H5.1V24.8291H5H4.9V36.4961H5ZM5 24.8291L5.1 24.8291C5.10012 23.0138 6.4427 21.5121 8.18898 21.2621L8.1748 21.1631L8.16063 21.0641C6.31731 21.328 4.90013 22.9128 4.9 24.8291L5 24.8291ZM8.1748 21.1631L8.26618 21.2037L9.5279 18.3658L9.43652 18.3252L9.34515 18.2846L8.08343 21.1225L8.1748 21.1631ZM9.43652 18.3252V18.2252H5.78809V18.3252V18.4252H9.43652V18.3252ZM5.78809 18.3252V18.2252C5.40841 18.2252 5.10018 17.9175 5.1 17.538L5 17.5381L4.9 17.5381C4.90024 18.0282 5.29818 18.4252 5.78809 18.4252V18.3252ZM5 17.5381H5.1C5.1 17.1584 5.40839 16.85 5.78809 16.85V16.75V16.65C5.29793 16.65 4.9 17.0479 4.9 17.5381H5ZM5.78809 16.75V16.85H10.1367V16.75V16.65H5.78809V16.75ZM10.1367 16.75L10.2281 16.7906L13.1402 10.2398L13.0488 10.1992L12.9575 10.1586L10.0453 16.7094L10.1367 16.75ZM13.0488 10.1992L13.1402 10.2399C13.7192 8.93807 15.0101 8.10002 16.4336 8.1L16.4336 8L16.4336 7.9C14.9311 7.90002 13.5685 8.78458 12.9575 10.1586L13.0488 10.1992ZM16.4336 8V8.1H38.8916V8V7.9H16.4336V8ZM9.49219 45.2461L9.39219 45.2461C9.39223 45.6721 9.73707 46.017 10.1631 46.017V45.917V45.817C9.84754 45.817 9.59222 45.5616 9.59219 45.2461L9.49219 45.2461ZM10.1631 45.917V46.017H14.5381V45.917V45.817H10.1631V45.917ZM14.5381 45.917L14.5381 46.017C14.964 46.0168 15.3089 45.672 15.309 45.2461L15.209 45.2461L15.109 45.2461C15.109 45.5615 14.8535 45.8169 14.538 45.817L14.5381 45.917ZM15.209 45.2461H15.309V40.2002H15.209H15.109V45.2461H15.209ZM15.209 40.2002V40.1002H9.49219V40.2002V40.3002H15.209V40.2002ZM9.49219 40.2002H9.39219V45.2461H9.49219H9.59219V40.2002H9.49219ZM40.1172 45.2461L40.0172 45.2461C40.0172 45.6721 40.3621 46.017 40.7881 46.017V45.917V45.817C40.4725 45.817 40.2172 45.5616 40.2172 45.2461L40.1172 45.2461ZM40.7881 45.917V46.017H45.1631V45.917V45.817H40.7881V45.917ZM45.1631 45.917L45.1632 46.017C45.589 46.0167 45.933 45.6718 45.933 45.2461L45.833 45.2461L45.733 45.2461C45.733 45.5616 45.4783 45.8168 45.163 45.817L45.1631 45.917ZM45.833 45.2461H45.933V40.2002H45.833H45.733V45.2461H45.833ZM45.833 40.2002V40.1002H40.1172V40.2002V40.3002H45.833V40.2002ZM40.1172 40.2002H40.0172V45.2461H40.1172H40.2172V40.2002H40.1172ZM8.7041 22.7002L8.70409 22.6002C7.47316 22.6003 6.47534 23.5982 6.4752 24.8291L6.5752 24.8291L6.6752 24.8291C6.67533 23.7086 7.58363 22.8003 8.70411 22.8002L8.7041 22.7002ZM6.5752 24.8291H6.4752V36.4961H6.5752H6.6752V24.8291H6.5752ZM6.5752 36.4961L6.4752 36.4961C6.47523 37.7271 7.47311 38.7249 8.70409 38.725L8.7041 38.625L8.70411 38.525C7.58356 38.5249 6.67523 37.6166 6.6752 36.4961L6.5752 36.4961ZM8.7041 38.625V38.725H46.6211V38.625V38.525H8.7041V38.625ZM46.6211 38.625L46.6211 38.725C47.8522 38.725 48.85 37.7272 48.85 36.4961L48.75 36.4961L48.65 36.4961C48.65 37.6167 47.7417 38.525 46.6211 38.525L46.6211 38.625ZM48.75 36.4961H48.85V24.8291H48.75H48.65V36.4961H48.75ZM48.75 24.8291L48.85 24.8291C48.8499 23.5981 47.8521 22.6002 46.6211 22.6002L46.6211 22.7002L46.6211 22.8002C47.7416 22.8002 48.6499 23.7086 48.65 24.8291L48.75 24.8291ZM46.6211 22.7002V22.6002H8.7041V22.7002V22.8002H46.6211V22.7002ZM14.5371 26.959V27.059C16.5276 27.059 18.1412 28.6726 18.1412 30.6631H18.2412H18.3412C18.3412 28.5621 16.6381 26.859 14.5371 26.859V26.959ZM18.2412 30.6631L18.1412 30.6631C18.141 32.6535 16.5275 34.2672 14.5371 34.2672V34.3672V34.4672C16.638 34.4672 18.341 32.7639 18.3412 30.6631L18.2412 30.6631ZM14.5371 34.3672L14.5371 34.2672C12.5468 34.2671 10.9332 32.6534 10.933 30.6631L10.833 30.6631L10.733 30.6631C10.7332 32.7639 12.4363 34.4671 14.5371 34.4672L14.5371 34.3672ZM10.833 30.6631H10.933C10.933 28.6726 12.5467 27.0591 14.5371 27.059L14.5371 26.959L14.5371 26.859C12.4362 26.8591 10.733 28.5622 10.733 30.6631H10.833ZM40.7871 26.959V27.059C42.7777 27.059 44.3922 28.6726 44.3922 30.6631H44.4922H44.5922C44.5922 28.5621 42.8881 26.859 40.7871 26.859V26.959ZM44.4922 30.6631L44.3922 30.6631C44.392 32.6534 42.7776 34.2672 40.7871 34.2672V34.3672V34.4672C42.888 34.4672 44.592 32.764 44.5922 30.6631L44.4922 30.6631ZM40.7871 34.3672L40.7871 34.2672C38.7969 34.267 37.1832 32.6533 37.183 30.6631L37.083 30.6631L36.983 30.6631C36.9832 32.7638 38.6864 34.4669 40.7871 34.4672L40.7871 34.3672ZM37.083 30.6631H37.183C37.183 28.6727 38.7968 27.0592 40.7871 27.059L40.7871 26.959L40.7871 26.859C38.6863 26.8592 36.983 28.5622 36.983 30.6631H37.083ZM14.5371 28.5332L14.5371 28.4332C13.306 28.4333 12.3082 29.4321 12.3082 30.6631H12.4082H12.5082C12.5082 29.5424 13.4166 28.6333 14.5371 28.6332L14.5371 28.5332ZM12.4082 30.6631L12.3082 30.6631C12.3084 31.894 13.3062 32.8919 14.5371 32.892L14.5371 32.792L14.5371 32.692C13.4166 32.6919 12.5084 31.7836 12.5082 30.6631L12.4082 30.6631ZM14.5371 32.792V32.892C15.7682 32.892 16.7658 31.8941 16.766 30.6631L16.666 30.6631L16.566 30.6631C16.5659 31.7836 15.6577 32.692 14.5371 32.692V32.792ZM16.666 30.6631H16.766C16.766 29.432 15.7683 28.4332 14.5371 28.4332V28.5332V28.6332C15.6577 28.6332 16.566 29.5423 16.566 30.6631H16.666ZM40.7871 28.5332L40.7871 28.4332C39.5561 28.4334 38.5582 29.4321 38.5582 30.6631H38.6582H38.7582C38.7582 29.5425 39.6667 28.6334 40.7871 28.6332L40.7871 28.5332ZM38.6582 30.6631L38.5582 30.6631C38.5584 31.8939 39.5563 32.8917 40.7871 32.892L40.7871 32.792L40.7871 32.692C39.6667 32.6918 38.7584 31.7835 38.7582 30.6631L38.6582 30.6631ZM40.7871 32.792V32.892C42.0181 32.892 43.0168 31.8941 43.017 30.6631L42.917 30.6631L42.817 30.6631C42.8168 31.7836 41.9077 32.692 40.7871 32.692V32.792ZM42.917 30.6631H43.017C43.017 29.432 42.0182 28.4332 40.7871 28.4332V28.5332V28.6332C41.9078 28.6332 42.817 29.5424 42.817 30.6631H42.917ZM16.4336 9.5752L16.4336 9.4752C15.5531 9.47522 14.755 9.99399 14.3969 10.7992L14.4883 10.8398L14.5797 10.8805C14.9057 10.1474 15.6322 9.67521 16.4336 9.6752L16.4336 9.5752ZM14.4883 10.8398L14.3969 10.7992L9.82464 21.0844L9.91602 21.125L10.0074 21.1656L14.5797 10.8805L14.4883 10.8398ZM9.91602 21.125V21.225H45.4092V21.125V21.025H9.91602V21.125ZM45.4092 21.125L45.5006 21.0844L40.9293 10.7992L40.8379 10.8398L40.7465 10.8805L45.3178 21.1656L45.4092 21.125ZM40.8379 10.8398L40.9293 10.7992C40.5712 9.99393 39.7721 9.4752 38.8916 9.4752V9.5752V9.6752C39.6931 9.6752 40.4205 10.1474 40.7465 10.8805L40.8379 10.8398ZM38.8916 9.5752V9.4752H16.4336V9.5752V9.6752H38.8916V9.5752Z" fill="#528116" mask="url(#path-3-outside-1_1031_14921)"/>
</g>
</svg>
