<svg width="56" height="56" viewBox="0 0 56 56" fill="none" xmlns="http://www.w3.org/2000/svg">
<mask id="mask0_1031_14513" style="mask-type:alpha" maskUnits="userSpaceOnUse" x="0" y="0" width="56" height="56">
<rect width="56" height="56" fill="#D9D9D9"/>
</mask>
<g mask="url(#mask0_1031_14513)">
<circle cx="16" cy="40" r="16" fill="#B9DD8B" fill-opacity="0.3"/>
<path d="M19.1326 46.6666C18.2673 46.6666 17.5126 46.3445 16.8686 45.7001C16.2243 45.0561 15.9021 44.3014 15.9021 43.4361V12.5638C15.9021 11.6985 16.2243 10.9439 16.8686 10.2999C17.5126 9.65551 18.2673 9.33331 19.1326 9.33331H36.8886C37.7539 9.33331 38.5088 9.65551 39.1531 10.2999C39.7971 10.9439 40.1191 11.6985 40.1191 12.5638V43.4361C40.1191 44.3014 39.7971 45.0561 39.1531 45.7001C38.5088 46.3445 37.7539 46.6666 36.8886 46.6666H19.1326ZM38.3242 43.4361V12.5638C38.3242 12.1454 38.1897 11.8014 37.9206 11.5319C37.6515 11.2628 37.3075 11.1282 36.8886 11.1282H19.1326C18.7437 11.1282 18.4073 11.2628 18.1234 11.5319C17.8391 11.8014 17.697 12.1454 17.697 12.5638V43.4361C17.697 43.8546 17.8391 44.1986 18.1234 44.4681C18.4073 44.7372 18.7437 44.8717 19.1326 44.8717H36.8886C37.3075 44.8717 37.6515 44.7372 37.9206 44.4681C38.1897 44.1986 38.3242 43.8546 38.3242 43.4361ZM3.41406 32.7786V23.1764C3.41406 22.9512 3.50137 22.7453 3.67598 22.5586C3.8502 22.372 4.06623 22.2786 4.32406 22.2786C4.5819 22.2786 4.79384 22.372 4.9599 22.5586C5.12595 22.7453 5.20898 22.9512 5.20898 23.1764V32.7786C5.20898 33.033 5.12187 33.2461 4.94765 33.418C4.77303 33.5903 4.55681 33.6764 4.29898 33.6764C4.04115 33.6764 3.8292 33.5903 3.66315 33.418C3.49709 33.2461 3.41406 33.033 3.41406 32.7786ZM9.87565 37.688V18.312C9.87565 18.0576 9.96295 17.8445 10.1376 17.6726C10.3118 17.5008 10.5278 17.4148 10.7856 17.4148C11.0435 17.4148 11.2554 17.5008 11.4215 17.6726C11.5875 17.8445 11.6706 18.0576 11.6706 18.312V37.688C11.6706 37.9423 11.5833 38.1554 11.4086 38.3273C11.2344 38.4992 11.0184 38.5851 10.7606 38.5851C10.5027 38.5851 10.2908 38.4992 10.1247 38.3273C9.95867 38.1554 9.87565 37.9423 9.87565 37.688ZM50.7988 32.7786V23.1764C50.7988 22.9512 50.8859 22.7453 51.0601 22.5586C51.2348 22.372 51.451 22.2786 51.7088 22.2786C51.9666 22.2786 52.1786 22.372 52.3446 22.5586C52.5107 22.7453 52.5937 22.9512 52.5937 23.1764V32.7786C52.5937 33.033 52.5064 33.2461 52.3318 33.418C52.1576 33.5903 51.9416 33.6764 51.6837 33.6764C51.4259 33.6764 51.2139 33.5903 51.0479 33.418C50.8818 33.2461 50.7988 33.033 50.7988 32.7786ZM44.3372 37.688V18.312C44.3372 18.0576 44.4245 17.8445 44.5991 17.6726C44.7734 17.5008 44.9894 17.4148 45.2472 17.4148C45.5051 17.4148 45.717 17.5008 45.8831 17.6726C46.0491 17.8445 46.1321 18.0576 46.1321 18.312V37.688C46.1321 37.9423 46.0448 38.1554 45.8702 38.3273C45.696 38.4992 45.48 38.5851 45.2221 38.5851C44.9643 38.5851 44.7524 38.4992 44.5863 38.3273C44.4203 38.1554 44.3372 37.9423 44.3372 37.688ZM17.697 43.4361V44.8717V11.1282V43.4361Z" fill="#528116"/>
<path d="M26.3458 29.458L32.8494 23.5001C33.0138 23.3357 33.2056 23.2535 33.4247 23.2535C33.6439 23.2535 33.8356 23.3357 34 23.5001C34.1644 23.6644 34.2465 23.8596 34.2465 24.0856C34.2465 24.3116 34.1644 24.5068 34 24.6712L26.9211 31.2249C26.7567 31.3893 26.565 31.4715 26.3458 31.4715C26.1267 31.4715 25.9349 31.3893 25.7705 31.2249L22.2367 27.6911C22.0723 27.5267 21.9936 27.3315 22.0004 27.1055C22.0073 26.8795 22.0929 26.6843 22.2572 26.52C22.4216 26.3556 22.6168 26.2734 22.8428 26.2734C23.0688 26.2734 23.264 26.3556 23.4283 26.52L26.3458 29.458Z" fill="#528116"/>
</g>
</svg>
