<svg width="160" height="50" viewBox="0 0 160 50" fill="none" xmlns="http://www.w3.org/2000/svg">
<g clip-path="url(#clip0_2096_3714)">
<path d="M73.2587 30.7914H69.0913C68.6256 30.7914 68.2399 30.6832 67.9389 30.4622C67.6378 30.2411 67.4262 29.9636 67.3133 29.6202L65.9445 25.5422H57.1347L55.7659 29.6202C55.6577 29.9212 55.4555 30.1893 55.145 30.4292C54.8393 30.6691 54.463 30.7914 54.0162 30.7914H49.8206L58.7903 7.39563H64.2936L73.2634 30.7867L73.2587 30.7914ZM58.3764 21.8451H64.7028L62.5721 15.4388C62.4357 15.0296 62.271 14.5545 62.0876 13.9995C61.8994 13.4492 61.716 12.8518 61.5373 12.2121C61.3679 12.8659 61.1939 13.468 61.0105 14.0277C60.8317 14.5828 60.6624 15.0672 60.5025 15.4717L58.3717 21.8451H58.3764Z" fill="#4B384C"/>
<path d="M82.1909 21.8828V30.7444H76.7865V21.8828L68.3435 7.43799H73.1083C73.5786 7.43799 73.9502 7.54617 74.2277 7.76724C74.5052 7.98361 74.7263 8.26582 74.9003 8.60919L78.1929 15.3918C78.461 15.9374 78.7056 16.436 78.9313 16.897C79.1571 17.3579 79.35 17.8095 79.524 18.2563C79.6839 17.8001 79.8768 17.3391 80.1025 16.8781C80.3236 16.4219 80.5682 15.9233 80.8222 15.3918L84.0818 8.60919C84.1477 8.47278 84.237 8.33168 84.3452 8.19527C84.4581 8.05887 84.5851 7.93187 84.7309 7.81898C84.872 7.70609 85.0413 7.61673 85.2248 7.54617C85.4129 7.47562 85.6152 7.44269 85.841 7.44269H90.6386L82.1957 21.8875L82.1909 21.8828Z" fill="#4B384C"/>
<path d="M109.641 7.40973V9.36643C109.641 9.64395 109.594 9.91676 109.505 10.1849C109.415 10.453 109.288 10.7023 109.128 10.9374L98.1548 26.6146H109.288V30.7867H91.2593V28.703C91.2593 28.4584 91.3016 28.2138 91.3863 27.9739C91.4709 27.734 91.5885 27.5083 91.739 27.306L102.741 11.5771H92.1577V7.40973H109.641Z" fill="#4B384C"/>
<path d="M133.159 19.1265C133.159 20.7915 132.873 22.339 132.299 23.7736C131.725 25.2082 130.916 26.45 129.876 27.513C128.832 28.5713 127.581 29.3992 126.109 30.0012C124.641 30.6033 123.009 30.9043 121.222 30.9043C119.434 30.9043 117.802 30.6033 116.325 30.0012C114.848 29.3992 113.588 28.5713 112.544 27.513C111.495 26.4547 110.686 25.2082 110.112 23.7736C109.538 22.3437 109.251 20.7915 109.251 19.1265C109.251 17.4614 109.538 15.9139 110.112 14.4793C110.686 13.0447 111.495 11.8029 112.544 10.7493C113.592 9.69572 114.853 8.86788 116.325 8.27052C117.797 7.66846 119.43 7.37213 121.222 7.37213C123.014 7.37213 124.641 7.67316 126.109 8.27993C127.576 8.8867 128.832 9.71453 129.876 10.7681C130.916 11.8218 131.725 13.0635 132.299 14.4981C132.873 15.9327 133.159 17.4755 133.159 19.1265ZM127.694 19.1265C127.694 17.9882 127.543 16.9628 127.252 16.055C126.955 15.1425 126.532 14.3711 125.982 13.7408C125.431 13.1105 124.754 12.6261 123.954 12.2874C123.155 11.9487 122.242 11.7841 121.222 11.7841C120.201 11.7841 119.27 11.9535 118.465 12.2874C117.661 12.6261 116.979 13.1105 116.429 13.7408C115.878 14.3758 115.45 15.1472 115.159 16.055C114.862 16.9675 114.717 17.9929 114.717 19.1265C114.717 20.26 114.862 21.3042 115.159 22.2167C115.455 23.1292 115.878 23.9006 116.429 24.5309C116.979 25.1612 117.661 25.6457 118.465 25.9749C119.27 26.3089 120.192 26.4735 121.222 26.4735C122.252 26.4735 123.155 26.3089 123.954 25.9749C124.754 25.641 125.431 25.1612 125.982 24.5309C126.537 23.9006 126.96 23.1292 127.252 22.2167C127.548 21.3042 127.694 20.2741 127.694 19.1265Z" fill="#4B384C"/>
<path d="M139.777 22.1274V30.7914H134.344V7.37213H141.959C143.653 7.37213 145.097 7.54617 146.291 7.89423C147.486 8.2423 148.46 8.72677 149.212 9.34765C149.97 9.96853 150.515 10.7023 150.859 11.5489C151.202 12.3956 151.371 13.3175 151.371 14.3147C151.371 15.0767 151.268 15.7916 151.066 16.4689C150.863 17.1415 150.558 17.7671 150.158 18.341C149.758 18.9148 149.264 19.4275 148.681 19.8743C148.098 20.3259 147.425 20.6928 146.663 20.9844C147.025 21.1678 147.369 21.3936 147.684 21.657C147.999 21.9251 148.276 22.2497 148.512 22.6401L153.493 30.7867H148.577C147.67 30.7867 147.016 30.4434 146.621 29.7566L142.731 22.9599C142.561 22.6589 142.359 22.4472 142.129 22.3155C141.898 22.1885 141.574 22.1227 141.155 22.1227H139.772L139.777 22.1274ZM139.777 18.3833H141.959C142.698 18.3833 143.328 18.2892 143.846 18.1011C144.363 17.9129 144.791 17.6542 145.125 17.3203C145.454 16.9863 145.699 16.6006 145.845 16.1538C145.995 15.7116 146.07 15.2272 146.07 14.7145C146.07 13.6844 145.736 12.8801 145.064 12.3062C144.396 11.7277 143.356 11.4361 141.955 11.4361H139.772V18.3786L139.777 18.3833Z" fill="#4B384C"/>
<path d="M33.6353 15.1049L36.3634 7.94126C36.3304 7.90834 36.3069 7.87071 36.2693 7.84249C35.9306 7.58849 35.559 7.45209 35.0605 7.45209H31.4951C31.0436 7.45209 30.8931 7.53675 30.545 7.77193C30.1969 8.00241 29.99 8.48218 29.8959 8.82554L26.3259 22.4519C26.1001 23.2609 25.926 24.1123 25.3616 24.0982C24.9007 24.0841 24.9007 23.7125 24.4444 22.626C24.1434 21.9204 20.0136 10.787 20.0136 10.787C19.8208 10.2648 19.2657 8.99958 18.833 8.5104C18.4238 8.04945 17.6242 7.50383 16.4106 7.48972L10.5358 7.4662C10.5358 7.4662 9.52454 7.4662 9.02596 7.69197C8.5603 7.89893 8.06642 8.53392 8.06642 8.53392C8.06642 8.53392 7.41732 9.22065 7.06455 9.64868C6.55656 10.2648 6.88581 10.8058 8.0476 10.8058C9.32228 10.8058 12.2714 10.8199 12.2714 10.8199C12.2714 10.8199 13.5744 10.7681 13.9506 11.088C14.1482 11.2573 14.3975 11.2902 14.6515 11.9111C16.2695 15.8057 22.0691 28.8253 22.3654 29.4744C22.9534 30.7726 24.1904 30.7961 24.1904 30.7961L26.6974 30.7726C27.4641 30.7726 28.6353 30.4434 29.0445 29.3615L32.9391 15.4435C33.0614 15.0578 33.4048 14.9402 33.64 15.1143" fill="#4B384C"/>
<path d="M36.7634 8.7597L34.0071 16.0033L34.4351 17.4614L37.1867 10.2272C36.9327 9.34766 36.7728 8.79263 36.7728 8.79263C36.7728 8.78322 36.7681 8.76911 36.7634 8.7597Z" fill="#76BC21"/>
<path d="M34.7502 18.5197L35.1642 19.9261L37.9111 12.7107C37.7653 12.2027 37.6242 11.7324 37.4972 11.2949L34.7502 18.5197Z" fill="#76BC21"/>
<path d="M35.4746 20.9844L35.8227 22.165L38.5649 14.9591C38.4473 14.5592 38.3344 14.1594 38.2215 13.7737L35.4793 20.9844H35.4746Z" fill="#76BC21"/>
<path d="M40.9024 22.9034L38.2825 29.7895C38.4941 30.0718 38.7199 30.2834 38.9504 30.4292L41.4057 23.9759C41.2552 23.8771 41.1799 23.7313 41.0999 23.529C41.0717 23.4491 41.0012 23.228 40.9024 22.9034Z" fill="#76BC21"/>
<path d="M37.5159 27.9081L37.8263 28.9617C37.8357 28.9853 37.8451 29.0041 37.8545 29.0276L40.5826 21.8593C40.4839 21.5206 40.371 21.1349 40.2487 20.7257L37.5159 27.9128V27.9081Z" fill="#76BC21"/>
<path d="M36.8338 25.5845L37.2054 26.8498L39.9382 19.6627C39.8206 19.2582 39.6936 18.8301 39.5666 18.3927L36.8291 25.5845H36.8338Z" fill="#76BC21"/>
<path d="M36.1331 23.2186L36.5188 24.5309L39.2563 17.3391C39.1293 16.9017 38.9976 16.4642 38.8706 16.0221L36.1331 23.2233V23.2186Z" fill="#76BC21"/>
<path d="M53.4705 7.89893C53.1836 7.39094 51.8431 7.48971 51.8431 7.48971C51.8431 7.48971 44.6183 7.37212 43.6682 7.40505C42.9438 7.43327 42.2947 7.50853 41.7774 7.80956C41.2647 8.11059 40.8554 8.96194 40.5027 9.70041C40.3004 10.119 39.7125 10.8998 41.0859 10.8998C41.2835 10.8998 45.4368 10.8622 46.194 10.8998C46.4386 10.9139 46.989 11.1397 46.7303 11.723C46.7303 11.723 42.7369 22.5272 42.4359 23.228C42.3794 23.355 42.323 23.4961 42.2571 23.6278L39.5667 30.6974C39.7736 30.7491 39.9618 30.7679 40.1123 30.7679L42.6099 30.7914C42.6099 30.7914 43.8281 30.7679 44.3314 30.2881C44.9053 29.7425 45.084 29.2298 45.1734 29.0041L53.2024 9.00428C53.2024 9.00428 53.5975 8.13411 53.4705 7.89893Z" fill="#76BC21"/>
<path d="M51.749 42.3811V45.5702H50.2297V37.4094H52.7179C53.273 37.4094 53.7527 37.4659 54.1478 37.5788C54.543 37.6963 54.8722 37.8563 55.1262 38.0632C55.3802 38.2702 55.5683 38.5195 55.6859 38.8064C55.8035 39.0933 55.8647 39.4132 55.8647 39.7565C55.8647 40.0293 55.8223 40.2927 55.7424 40.5373C55.6624 40.7819 55.5448 41.003 55.3943 41.2052C55.2438 41.4028 55.0556 41.5815 54.8299 41.732C54.6041 41.8826 54.3501 42.0049 54.0632 42.0942C54.256 42.2024 54.4207 42.3623 54.5618 42.5646L56.6031 45.5796H55.2391C55.1074 45.5796 54.9945 45.5514 54.9051 45.4996C54.8111 45.4479 54.7358 45.3726 54.67 45.2739L52.9531 42.6587C52.8873 42.5599 52.8167 42.4893 52.7415 42.4517C52.6662 42.4094 52.5486 42.3906 52.3981 42.3906H51.749V42.3811ZM51.749 41.2946H52.6991C52.9861 41.2946 53.2353 41.257 53.447 41.1864C53.6587 41.1159 53.8327 41.0171 53.9738 40.8901C54.1149 40.7631 54.2137 40.6126 54.2795 40.4433C54.3501 40.2692 54.383 40.0811 54.383 39.8741C54.383 39.4602 54.2466 39.1404 53.9738 38.9193C53.701 38.6982 53.2824 38.5853 52.7227 38.5853H51.7537V41.2946H51.749Z" fill="#76BC21"/>
<path d="M62.3601 37.4094V38.6183H58.743V40.8807H61.5934V42.0472H58.743V44.3567H62.3601V45.5702H57.2144V37.4094H62.3601Z" fill="#76BC21"/>
<path d="M64.2795 37.4188C64.3265 37.4235 64.3642 37.4376 64.4018 37.4518C64.4394 37.4706 64.4723 37.4941 64.5053 37.527C64.5382 37.5599 64.5758 37.6023 64.6182 37.654L68.9031 43.1102C68.889 42.9785 68.8796 42.8515 68.8702 42.7245C68.8655 42.5975 68.8608 42.4799 68.8608 42.3717V37.4094H70.1966V45.5702H69.4111C69.2888 45.5702 69.1901 45.5514 69.1101 45.5138C69.0301 45.4761 68.9549 45.4103 68.8796 45.3115L64.6134 39.8741C64.6229 39.9964 64.6323 40.114 64.637 40.2316C64.6417 40.3492 64.6464 40.4574 64.6464 40.5561V45.5702H63.3105V37.4094H64.1055C64.1713 37.4094 64.2277 37.4094 64.2748 37.4188" fill="#76BC21"/>
<path d="M77.2378 37.4094V38.6559H74.7825V45.5702H73.2633V38.6559H70.7986V37.4094H77.2378Z" fill="#76BC21"/>
<path d="M86.8335 45.5702H85.6576C85.5259 45.5702 85.4177 45.5373 85.333 45.4714C85.2483 45.4056 85.1872 45.3256 85.1496 45.2268L84.5381 43.5618H81.1562L80.5447 45.2268C80.5165 45.3115 80.4554 45.3915 80.366 45.462C80.2766 45.5326 80.1684 45.5702 80.0414 45.5702H78.8608L82.0687 37.4094H83.6209L86.8288 45.5702H86.8335ZM81.5513 42.4893H84.1524L83.1599 39.7753C83.1129 39.653 83.0659 39.5119 83.0094 39.3473C82.953 39.1827 82.9012 39.0039 82.8495 38.8158C82.7978 39.0087 82.746 39.1874 82.6943 39.352C82.6425 39.5166 82.5955 39.6625 82.5438 39.7848L81.5513 42.4893Z" fill="#76BC21"/>
<path d="M94.74 43.6464C94.8246 43.6464 94.8952 43.6794 94.9563 43.7405L95.5537 44.3896C95.2197 44.7988 94.8152 45.114 94.3308 45.3303C93.8463 45.5467 93.2677 45.6596 92.5904 45.6596C91.9837 45.6596 91.438 45.5561 90.9536 45.3491C90.4691 45.1422 90.0552 44.8553 89.7165 44.4837C89.3732 44.1168 89.1098 43.6747 88.931 43.162C88.7476 42.6493 88.6582 42.0895 88.6582 41.4875C88.6582 40.8854 88.7617 40.3116 88.9639 39.8036C89.1662 39.2956 89.4531 38.8534 89.82 38.4866C90.1869 38.1197 90.629 37.8328 91.1464 37.6258C91.6591 37.4188 92.2282 37.3201 92.8491 37.3201C93.47 37.3201 93.9827 37.4188 94.4389 37.6117C94.8905 37.8045 95.2809 38.0632 95.6054 38.3831L95.0975 39.0886C95.0692 39.1357 95.0269 39.1733 94.9799 39.2062C94.9328 39.2391 94.867 39.258 94.787 39.258C94.7071 39.258 94.613 39.225 94.5236 39.1545C94.4342 39.0886 94.3167 39.0134 94.1802 38.9334C94.0391 38.8534 93.8651 38.7829 93.6534 38.7123C93.4418 38.6465 93.169 38.6089 92.8444 38.6089C92.4587 38.6089 92.106 38.6747 91.7861 38.8111C91.4663 38.9428 91.1887 39.1357 90.9583 39.385C90.7278 39.6342 90.5444 39.9353 90.4174 40.2928C90.2857 40.6502 90.2245 41.05 90.2245 41.4922C90.2245 41.9343 90.2904 42.3576 90.4174 42.7151C90.5491 43.0726 90.7231 43.3736 90.9442 43.6182C91.1652 43.8628 91.4286 44.0509 91.7297 44.1779C92.0307 44.3096 92.3552 44.3708 92.6986 44.3708C92.9056 44.3708 93.0937 44.3614 93.2583 44.3379C93.4277 44.3143 93.5782 44.2814 93.7193 44.2297C93.8604 44.1826 93.9921 44.1168 94.1191 44.0415C94.2461 43.9663 94.3684 43.8675 94.4954 43.7546C94.533 43.7217 94.5706 43.6935 94.613 43.6747C94.6553 43.6558 94.6976 43.6417 94.7494 43.6417" fill="#76BC21"/>
<path d="M103.512 45.5702H102.336C102.205 45.5702 102.096 45.5373 102.012 45.4714C101.927 45.4056 101.866 45.3256 101.828 45.2268L101.217 43.5618H97.8349L97.2234 45.2268C97.1952 45.3115 97.1341 45.3915 97.0447 45.462C96.9553 45.5326 96.8472 45.5702 96.7202 45.5702H95.5396L98.7474 37.4094H100.3L103.507 45.5702H103.512ZM98.23 42.4893H100.831L99.8387 39.7753C99.7916 39.653 99.7446 39.5119 99.6881 39.3473C99.6317 39.1827 99.58 39.0039 99.5282 38.8158C99.4765 39.0087 99.4247 39.1874 99.373 39.352C99.3213 39.5166 99.2742 39.6625 99.2225 39.7848L98.23 42.4893Z" fill="#76BC21"/>
<path d="M105.563 42.3811V45.5702H104.044V37.4094H106.532C107.087 37.4094 107.567 37.4659 107.962 37.5788C108.357 37.6963 108.686 37.8563 108.94 38.0632C109.194 38.2702 109.382 38.5195 109.5 38.8064C109.617 39.0933 109.679 39.4132 109.679 39.7565C109.679 40.0293 109.636 40.2927 109.556 40.5373C109.476 40.7819 109.359 41.003 109.208 41.2052C109.058 41.4028 108.87 41.5815 108.644 41.732C108.418 41.8826 108.164 42.0049 107.877 42.0942C108.07 42.2024 108.235 42.3623 108.376 42.5646L110.417 45.5796H109.053C108.921 45.5796 108.808 45.5514 108.719 45.4996C108.625 45.4479 108.55 45.3726 108.484 45.2739L106.767 42.6587C106.701 42.5599 106.631 42.4893 106.555 42.4517C106.48 42.4094 106.363 42.3906 106.212 42.3906H105.563V42.3811ZM105.563 41.2946H106.513C106.8 41.2946 107.049 41.257 107.261 41.1864C107.473 41.1159 107.647 41.0171 107.788 40.8901C107.929 40.7631 108.028 40.6126 108.094 40.4433C108.164 40.2692 108.197 40.0811 108.197 39.8741C108.197 39.4602 108.061 39.1404 107.788 38.9193C107.515 38.6982 107.096 38.5853 106.537 38.5853H105.568V41.2946H105.563Z" fill="#76BC21"/>
</g>
<defs>
<clipPath id="clip0_2096_3714">
<rect width="146.663" height="38.2874" fill="white" transform="translate(6.82935 7.37213)"/>
</clipPath>
</defs>
</svg>
